<?xml version="1.0" encoding="utf-8"?>
<!-- Generator: Adobe Illustrator 22.0.0, SVG Export Plug-In . SVG Version: 6.00 Build 0)  -->
<svg version="1.1" id="Layer_1" xmlns="http://www.w3.org/2000/svg" xmlns:xlink="http://www.w3.org/1999/xlink" x="0px" y="0px"
	 viewBox="0 0 144 144" style="enable-background:new 0 0 144 144;" xml:space="preserve">
<style type="text/css">
	.st0{fill:#FAFBFB;}
	.st1{fill:#263238;}
	.st2{fill:#F3725F;}
	.st3{opacity:0.5;}
	.st4{opacity:0.6;}
	.st5{opacity:0.7;}
	.st6{opacity:0.8;}
	.st7{opacity:0.1;}
	.st8{opacity:0.2;}
	.st9{opacity:0.3;}
	.st10{opacity:0.4;}
	.st11{fill:#FFFFFF;}
	.st12{fill:#455B64;}
	.st13{fill:#F5F5F5;}
	.st14{fill:#E0E0E0;}
	.st15{fill:#FFEC5E;}
	.st16{fill:#EBEBEB;}
	.st17{fill:#F5333F;}
	.st18{fill:#BCBEC0;}
	.st19{fill:#EEBE9D;}
	.st20{fill:#263238;stroke:#00AEEF;stroke-width:0.5;stroke-miterlimit:10;}
	.st21{fill:#455B64;stroke:#00AEEF;stroke-width:0.5;stroke-miterlimit:10;}
	.st22{fill:#126B42;}
	.st23{fill:#00A651;}
	.st24{fill:#E8996F;}
	.st25{fill:#CD6632;}
	.st26{fill:#455B64;stroke:#455B64;stroke-miterlimit:10;}
	.st27{fill:#808285;}
</style>
<g>
	<g>
		<g>
			<rect x="40.2" y="51" class="st0" width="50.5" height="33.7"/>
		</g>
		<g>
			<g>
				<path class="st1" d="M90.7,84.6c0-0.3,0-13.2,0-33.7l0,0c-13.9,0-31.5,0-50.5,0h0l0,0c0,12,0,23.4,0,33.7l0,0
					C70,84.6,90.4,84.6,90.7,84.6c-0.3,0-20.8,0-50.5,0l0,0v0c0-10.3,0-21.7,0-33.7v0h0h0c19,0,36.6,0,50.5,0h0l0,0
					C90.7,71.5,90.7,84.4,90.7,84.6z"/>
			</g>
		</g>
	</g>
</g>
<g>
	<g>
		<g>
			<g>
				<g>
					<g>
						<path class="st0" d="M41.9,80.1l-1.2-9.5c-0.1-1,0.6-1.9,1.6-2l36.2-4.7c1-0.1,1.9,0.6,2,1.6l1.2,9.5c0.1,1-0.6,1.9-1.6,2
							l-36.2,4.7C42.9,81.8,42,81.1,41.9,80.1z"/>
					</g>
				</g>
				<g>
					<g>
						<g>
							<path class="st1" d="M41.9,80.1c0,0,0,0.1,0.1,0.3c0,0.2,0.1,0.4,0.4,0.7c0.2,0.3,0.6,0.5,1.1,0.6c0.2,0,0.5,0,0.8,0
								c0.3,0,0.6-0.1,0.9-0.1c2.6-0.3,6.4-0.8,11-1.5c4.7-0.6,10.2-1.3,16.3-2.1c1.5-0.2,3.1-0.4,4.7-0.6c0.8-0.1,1.6-0.2,2.4-0.3
								c0.2,0,0.4,0,0.6-0.1c0.2,0,0.4-0.1,0.6-0.2c0.3-0.2,0.6-0.5,0.8-0.9c0.1-0.2,0.1-0.4,0.1-0.6c0-0.2,0-0.4-0.1-0.6
								c-0.1-0.4-0.1-0.8-0.2-1.3c-0.1-0.9-0.2-1.7-0.3-2.6c-0.2-1.7-0.5-3.5-0.7-5.3c-0.1-0.4-0.3-0.8-0.6-1.1
								c-0.3-0.3-0.8-0.4-1.2-0.4c-0.9,0.1-1.7,0.2-2.6,0.3c-1.7,0.2-3.4,0.4-5.1,0.7c-3.3,0.4-6.6,0.9-9.6,1.3
								c-6.1,0.8-11.7,1.5-16.3,2.1c-0.6,0.1-1.1,0.1-1.7,0.2c-0.3,0-0.5,0.1-0.8,0.1c-0.3,0-0.5,0.1-0.8,0.2
								c-0.5,0.2-0.8,0.7-0.9,1.1c-0.1,0.5,0,1,0.1,1.4c0.2,1.8,0.4,3.4,0.6,4.7c0.2,1.3,0.3,2.3,0.4,3c0,0.3,0.1,0.6,0.1,0.8
								C41.9,80,41.9,80.1,41.9,80.1s0-0.1,0-0.3c0-0.2-0.1-0.4-0.1-0.8c-0.1-0.7-0.2-1.7-0.4-3c-0.2-1.3-0.4-2.9-0.6-4.7
								c0-0.2-0.1-0.5-0.1-0.7c0-0.2,0-0.5,0-0.7c0.1-0.5,0.5-0.9,1-1.2c0.2-0.1,0.5-0.2,0.8-0.2c0.3,0,0.5-0.1,0.8-0.1
								c0.6-0.1,1.1-0.1,1.7-0.2c4.7-0.6,10.2-1.3,16.3-2.1c3.1-0.4,6.3-0.8,9.6-1.3c1.7-0.2,3.4-0.4,5.1-0.7
								c0.9-0.1,1.7-0.2,2.6-0.3c0.5,0,0.9,0.1,1.3,0.4c0.4,0.3,0.6,0.7,0.6,1.2c0.2,1.8,0.5,3.5,0.7,5.3c0.1,0.9,0.2,1.7,0.3,2.6
								c0.1,0.4,0.1,0.8,0.2,1.3c0,0.2,0.1,0.4,0.1,0.6c0,0.2,0,0.4-0.1,0.6c-0.1,0.4-0.4,0.8-0.8,1c-0.2,0.1-0.4,0.2-0.6,0.2
								C80,77,79.8,77,79.6,77c-0.8,0.1-1.6,0.2-2.4,0.3c-1.6,0.2-3.2,0.4-4.7,0.6c-6.1,0.8-11.7,1.5-16.3,2.1
								c-4.6,0.6-8.4,1.1-11,1.4c-0.3,0-0.6,0.1-0.9,0.1c-0.3,0-0.6,0.1-0.8,0c-0.5-0.1-0.9-0.4-1.1-0.6c-0.2-0.3-0.3-0.5-0.4-0.7
								C41.9,80.2,41.9,80.2,41.9,80.1C41.9,80.1,41.9,80.1,41.9,80.1z"/>
						</g>
					</g>
				</g>
			</g>
			<g>
				<g>
					
						<rect x="69.3" y="67.7" transform="matrix(0.1292 0.9916 -0.9916 0.1292 135.9271 -13.0867)" class="st2" width="12.2" height="6.2"/>
				</g>
			</g>
			<g>
				<g>
					
						<rect x="60.6" y="68.9" transform="matrix(0.1292 0.9916 -0.9916 0.1292 129.4345 -3.4124)" class="st2" width="12.2" height="6.2"/>
				</g>
			</g>
			<g>
				<g>
					
						<rect x="51.8" y="70" transform="matrix(0.1292 0.9916 -0.9916 0.1292 122.9418 6.2617)" class="st2" width="12.2" height="6.2"/>
				</g>
			</g>
			<g>
				<g>
					
						<rect x="43.1" y="71.2" transform="matrix(0.1292 0.9916 -0.9916 0.1292 116.4492 15.9359)" class="st2" width="12.2" height="6.2"/>
				</g>
			</g>
			<g class="st3">
				<g>
					<rect x="69.3" y="67.7" transform="matrix(0.1292 0.9916 -0.9916 0.1292 135.9271 -13.0867)" width="12.2" height="6.2"/>
				</g>
			</g>
			<g class="st4">
				<g>
					<rect x="60.6" y="68.9" transform="matrix(0.1292 0.9916 -0.9916 0.1292 129.4345 -3.4124)" width="12.2" height="6.2"/>
				</g>
			</g>
			<g class="st5">
				<g>
					<rect x="51.8" y="70" transform="matrix(0.1292 0.9916 -0.9916 0.1292 122.9418 6.2617)" width="12.2" height="6.2"/>
				</g>
			</g>
			<g class="st6">
				<g>
					<rect x="43.1" y="71.2" transform="matrix(0.1292 0.9916 -0.9916 0.1292 116.4492 15.9359)" width="12.2" height="6.2"/>
				</g>
			</g>
		</g>
		<g>
			<g>
				<g>
					<g>
						<path class="st0" d="M41.9,78.4L37.6,70c-0.5-0.9-0.1-2.1,0.8-2.6l32.3-16.6c0.9-0.5,2.1-0.1,2.6,0.8l4.3,8.3
							c0.5,0.9,0.1,2.1-0.8,2.6L44.5,79.2C43.5,79.7,42.4,79.3,41.9,78.4z"/>
					</g>
				</g>
				<g>
					<g>
						<g>
							<path class="st1" d="M41.9,78.4C41.9,78.4,41.9,78.4,41.9,78.4c0.1,0.1,0.1,0.2,0.1,0.2c0.1,0.1,0.3,0.3,0.6,0.5
								c0.3,0.2,0.7,0.3,1.2,0.3c0.2,0,0.5-0.1,0.8-0.3c0.3-0.1,0.5-0.3,0.8-0.4c2.3-1.2,5.7-2.9,9.8-5.1c4.2-2.1,9.1-4.7,14.6-7.6
								c1.4-0.7,2.8-1.4,4.2-2.2c0.7-0.4,1.4-0.7,2.2-1.1c0.4-0.2,0.8-0.4,1-0.7c0.3-0.3,0.4-0.7,0.5-1.1c0-0.2,0-0.4-0.1-0.6
								c-0.1-0.2-0.1-0.4-0.2-0.6c-0.2-0.4-0.4-0.8-0.6-1.1c-0.4-0.8-0.8-1.5-1.2-2.3c-0.8-1.5-1.6-3.1-2.4-4.7
								c-0.2-0.4-0.5-0.7-0.9-0.9c-0.4-0.2-0.9-0.2-1.3-0.1c-0.2,0.1-0.4,0.2-0.6,0.3c-0.2,0.1-0.4,0.2-0.6,0.3
								c-0.4,0.2-0.8,0.4-1.2,0.6c-1.5,0.8-3.1,1.6-4.6,2.4c-3,1.5-5.9,3-8.6,4.5C50,61.5,45,64.1,40.9,66.2c-0.5,0.3-1,0.5-1.5,0.8
								c-0.2,0.1-0.5,0.3-0.7,0.4c-0.2,0.1-0.5,0.2-0.7,0.4c-0.4,0.4-0.6,0.9-0.6,1.4c0,0.2,0.1,0.5,0.1,0.7
								c0.1,0.2,0.2,0.4,0.3,0.6c0.8,1.7,1.6,3.1,2.2,4.2c0.6,1.2,1.1,2.1,1.4,2.7c0.2,0.3,0.3,0.5,0.4,0.7
								C41.8,78.3,41.9,78.4,41.9,78.4s0-0.1-0.1-0.2c-0.1-0.2-0.2-0.4-0.4-0.7c-0.3-0.6-0.8-1.5-1.4-2.7c-0.6-1.2-1.3-2.6-2.2-4.2
								c-0.1-0.2-0.2-0.4-0.3-0.6c-0.1-0.2-0.1-0.5-0.1-0.7c0-0.5,0.2-1,0.6-1.4c0.2-0.2,0.4-0.3,0.7-0.4c0.2-0.1,0.5-0.3,0.7-0.4
								c0.5-0.3,1-0.5,1.5-0.8c4.2-2.1,9.1-4.7,14.6-7.6c2.7-1.4,5.6-2.9,8.6-4.5c1.5-0.8,3-1.6,4.6-2.4c0.4-0.2,0.8-0.4,1.2-0.6
								c0.2-0.1,0.4-0.2,0.6-0.3c0.2-0.1,0.4-0.2,0.6-0.3c0.4-0.1,0.9-0.1,1.3,0.1c0.4,0.2,0.8,0.5,1,0.9c0.8,1.6,1.6,3.2,2.4,4.7
								c0.4,0.8,0.8,1.5,1.2,2.3c0.2,0.4,0.4,0.8,0.6,1.1c0.1,0.2,0.2,0.4,0.3,0.6c0.1,0.2,0.1,0.4,0.1,0.6c0,0.4-0.2,0.8-0.5,1.2
								c-0.1,0.2-0.3,0.3-0.5,0.4c-0.2,0.1-0.4,0.2-0.6,0.3c-0.7,0.4-1.5,0.8-2.2,1.1c-1.4,0.7-2.8,1.5-4.2,2.2
								c-5.5,2.8-10.5,5.4-14.6,7.5c-4.2,2.1-7.5,3.9-9.9,5.1c-0.3,0.1-0.6,0.3-0.8,0.4c-0.3,0.1-0.5,0.2-0.8,0.3
								c-0.5,0.1-0.9-0.1-1.2-0.3c-0.3-0.2-0.5-0.4-0.6-0.5C42,78.5,41.9,78.5,41.9,78.4C41.9,78.4,41.9,78.4,41.9,78.4z"/>
						</g>
					</g>
				</g>
			</g>
			<g>
				<g>
					
						<rect x="64.3" y="55.3" transform="matrix(0.4585 0.8887 -0.8887 0.4585 90.0008 -30.8747)" class="st2" width="12.2" height="6.2"/>
				</g>
			</g>
			<g>
				<g>
					
						<rect x="56.4" y="59.3" transform="matrix(0.4585 0.8887 -0.8887 0.4585 89.3497 -21.7105)" class="st2" width="12.2" height="6.2"/>
				</g>
			</g>
			<g>
				<g>
					
						<rect x="48.6" y="63.4" transform="matrix(0.4585 0.8887 -0.8887 0.4585 88.6991 -12.5463)" class="st2" width="12.2" height="6.2"/>
				</g>
			</g>
			<g>
				<g>
					
						<rect x="40.7" y="67.4" transform="matrix(0.4585 0.8887 -0.8887 0.4585 88.0484 -3.382)" class="st2" width="12.2" height="6.2"/>
				</g>
			</g>
			<g class="st7">
				<g>
					<rect x="64.3" y="55.3" transform="matrix(0.4585 0.8887 -0.8887 0.4585 90.0008 -30.8747)" width="12.2" height="6.2"/>
				</g>
			</g>
			<g class="st8">
				<g>
					<rect x="56.4" y="59.3" transform="matrix(0.4585 0.8887 -0.8887 0.4585 89.3497 -21.7105)" width="12.2" height="6.2"/>
				</g>
			</g>
			<g class="st9">
				<g>
					<rect x="48.6" y="63.4" transform="matrix(0.4585 0.8887 -0.8887 0.4585 88.6991 -12.5463)" width="12.2" height="6.2"/>
				</g>
			</g>
			<g class="st10">
				<g>
					<rect x="40.7" y="67.4" transform="matrix(0.4585 0.8887 -0.8887 0.4585 88.0484 -3.382)" width="12.2" height="6.2"/>
				</g>
			</g>
		</g>
		<g>
			<g>
				<g>
					<g>
						<path class="st0" d="M42.9,78.2l-7.2-5.9c-0.8-0.7-1-1.9-0.3-2.8l22.9-28c0.7-0.8,1.9-1,2.8-0.3l7.2,5.9
							c0.8,0.7,1,1.9,0.3,2.8l-22.9,28C45,78.8,43.7,78.9,42.9,78.2z"/>
					</g>
				</g>
				<g>
					<g>
						<g>
							<path class="st1" d="M42.9,78.2C42.9,78.2,42.9,78.2,42.9,78.2c0.1,0.1,0.1,0.1,0.2,0.1c0.1,0.1,0.4,0.2,0.7,0.3
								c0.3,0.1,0.8,0,1.2-0.2c0.5-0.2,0.8-0.7,1.2-1.2c1.7-2,4-5,7-8.6c3-3.6,6.5-7.9,10.4-12.7c1-1.2,2-2.4,3-3.7
								c0.5-0.6,1-1.3,1.6-1.9c0.3-0.3,0.6-0.6,0.7-1c0.1-0.4,0.1-0.8,0-1.2c-0.1-0.4-0.4-0.7-0.7-1c-0.3-0.3-0.7-0.5-1-0.8
								c-0.7-0.5-1.3-1.1-2-1.6c-1.3-1.1-2.7-2.2-4.1-3.3c-0.3-0.3-0.8-0.4-1.2-0.4c-0.4,0-0.9,0.1-1.2,0.4
								c-0.2,0.1-0.3,0.3-0.4,0.5c-0.1,0.2-0.3,0.3-0.4,0.5c-0.3,0.3-0.6,0.7-0.8,1c-1.1,1.3-2.2,2.7-3.3,4
								c-2.1,2.6-4.2,5.1-6.2,7.5c-3.9,4.8-7.5,9.1-10.4,12.7c-0.4,0.5-0.7,0.9-1.1,1.3c-0.2,0.2-0.4,0.4-0.5,0.6
								c-0.2,0.2-0.3,0.4-0.4,0.7c-0.2,0.5-0.2,1,0,1.5c0.1,0.2,0.2,0.4,0.4,0.6c0.2,0.2,0.4,0.3,0.5,0.5c1.4,1.2,2.7,2.2,3.7,3
								c1,0.8,1.8,1.5,2.3,1.9c0.3,0.2,0.5,0.4,0.6,0.5C42.8,78.1,42.9,78.2,42.9,78.2s-0.1-0.1-0.2-0.2c-0.1-0.1-0.3-0.3-0.6-0.5
								c-0.5-0.4-1.3-1.1-2.3-1.9c-1-0.8-2.3-1.8-3.7-3c-0.2-0.1-0.4-0.3-0.5-0.5c-0.2-0.2-0.3-0.4-0.4-0.6c-0.2-0.5-0.2-1,0-1.5
								c0.1-0.2,0.3-0.5,0.4-0.7c0.2-0.2,0.3-0.4,0.5-0.6c0.4-0.4,0.7-0.9,1.1-1.3c3-3.6,6.5-7.9,10.4-12.7c2-2.4,4-4.9,6.1-7.5
								c1.1-1.3,2.2-2.6,3.3-4c0.3-0.3,0.6-0.7,0.8-1c0.1-0.2,0.3-0.3,0.4-0.5c0.1-0.2,0.3-0.3,0.5-0.5c0.4-0.3,0.8-0.4,1.3-0.4
								c0.5,0,0.9,0.2,1.3,0.5c1.4,1.1,2.7,2.2,4.1,3.3c0.7,0.6,1.3,1.1,2,1.6c0.3,0.3,0.7,0.5,1,0.8c0.3,0.3,0.6,0.6,0.7,1
								c0.1,0.4,0.1,0.9,0,1.3c-0.1,0.2-0.2,0.4-0.3,0.6c-0.1,0.2-0.3,0.3-0.4,0.5c-0.5,0.6-1,1.3-1.6,1.9c-1,1.3-2,2.5-3,3.7
								c-3.9,4.8-7.5,9.1-10.4,12.7c-3,3.6-5.4,6.5-7,8.6c-0.2,0.3-0.4,0.5-0.6,0.7c-0.2,0.2-0.4,0.4-0.6,0.5
								c-0.5,0.2-0.9,0.3-1.2,0.2c-0.3-0.1-0.6-0.2-0.7-0.3C42.9,78.3,42.9,78.2,42.9,78.2z"/>
						</g>
					</g>
				</g>
			</g>
			<g>
				<g>
					
						<rect x="55" y="45.5" transform="matrix(0.7735 0.6338 -0.6338 0.7735 44.6626 -27.7217)" class="st2" width="12.2" height="6.2"/>
				</g>
			</g>
			<g>
				<g>
					
						<rect x="49.4" y="52.3" transform="matrix(0.7735 0.6338 -0.6338 0.7735 47.7233 -22.6282)" class="st2" width="12.2" height="6.2"/>
				</g>
			</g>
			<g>
				<g>
					
						<rect x="43.8" y="59.2" transform="matrix(0.7735 0.6338 -0.6338 0.7735 50.7836 -17.5347)" class="st2" width="12.2" height="6.2"/>
				</g>
			</g>
			<g>
				<g>
					
						<rect x="38.2" y="66" transform="matrix(0.7735 0.6338 -0.6338 0.7735 53.8443 -12.4412)" class="st2" width="12.2" height="6.2"/>
				</g>
			</g>
			<g class="st3">
				<g>
					
						<rect x="55" y="45.5" transform="matrix(0.7735 0.6338 -0.6338 0.7735 44.6626 -27.7217)" class="st11" width="12.2" height="6.2"/>
				</g>
			</g>
			<g class="st4">
				<g>
					
						<rect x="49.4" y="52.3" transform="matrix(0.7735 0.6338 -0.6338 0.7735 47.7233 -22.6282)" class="st11" width="12.2" height="6.2"/>
				</g>
			</g>
			<g class="st5">
				<g>
					
						<rect x="43.8" y="59.2" transform="matrix(0.7735 0.6338 -0.6338 0.7735 50.7836 -17.5347)" class="st11" width="12.2" height="6.2"/>
				</g>
			</g>
			<g class="st6">
				<g>
					
						<rect x="38.2" y="66" transform="matrix(0.7735 0.6338 -0.6338 0.7735 53.8443 -12.4412)" class="st11" width="12.2" height="6.2"/>
				</g>
			</g>
		</g>
		<g>
			<g>
				<g>
					<path class="st12" d="M44.2,76.3c-0.4,0.7-1.3,0.9-2,0.5c-0.7-0.4-0.9-1.3-0.5-2c0.4-0.7,1.3-0.9,2-0.5
						C44.4,74.7,44.6,75.6,44.2,76.3z"/>
				</g>
			</g>
			<g>
				<g>
					<g>
						<path class="st1" d="M44.2,76.3c0,0,0.1-0.1,0.1-0.3c0.1-0.2,0.1-0.6-0.1-0.9c-0.2-0.4-0.5-0.8-1.1-0.8c-0.3,0-0.5,0-0.8,0.1
							c-0.3,0.1-0.5,0.3-0.7,0.6c-0.2,0.3-0.2,0.6-0.2,0.9c0,0.3,0.1,0.6,0.3,0.8c0.3,0.4,0.9,0.6,1.3,0.5c0.4,0,0.7-0.2,0.9-0.4
							C44.1,76.4,44.2,76.3,44.2,76.3C44.2,76.3,44.2,76.3,44.2,76.3c-0.1,0.1-0.1,0.2-0.2,0.3c-0.2,0.2-0.4,0.4-0.9,0.5
							c-0.2,0-0.5,0-0.7-0.1c-0.2-0.1-0.5-0.2-0.7-0.5c-0.2-0.2-0.3-0.5-0.3-0.8c0-0.3,0-0.6,0.2-0.9c0.2-0.3,0.4-0.5,0.7-0.6
							c0.3-0.1,0.6-0.2,0.9-0.1c0.3,0,0.5,0.2,0.7,0.3c0.2,0.2,0.3,0.4,0.4,0.6c0.2,0.4,0.1,0.8,0,1C44.3,76.1,44.3,76.2,44.2,76.3
							C44.2,76.3,44.2,76.3,44.2,76.3z"/>
					</g>
				</g>
			</g>
		</g>
	</g>
</g>
<g>
	<g>
		<g>
			<g>
				<g>
					<g>
						<path class="st13" d="M72.7,120.7c0,0.2,0,8.8,0,8.8h-1.5v1h1.5v5.9h27.4V131h-2v-1.2h2v-1.7h0.9v-0.8h-1.1v-6.5H72.7z"/>
					</g>
				</g>
			</g>
		</g>
		<g>
			<g>
				<g>
					<g>
						<polygon class="st14" points="92.8,120.7 92.8,136.2 100.1,136.2 100.1,130.9 98.1,130.9 98.1,129.8 100.1,129.8 100.1,128.1 
							101,128.1 101,127.2 99.9,127.2 99.9,120.7 						"/>
					</g>
				</g>
			</g>
		</g>
		<g>
			<g>
				<g>
					<g>
						<g>
							<path class="st14" d="M93.3,130.3c0,0.1-4.9,0.1-11.1,0.1c-6.1,0-11.1,0-11.1-0.1c0-0.1,4.9-0.1,11.1-0.1
								C88.4,130.2,93.3,130.3,93.3,130.3z"/>
						</g>
					</g>
				</g>
			</g>
		</g>
		<g>
			<g>
				<g>
					<g>
						<g>
							<path class="st14" d="M93.3,129.4c0,0.1-4.9,0.1-11.1,0.1c-6.1,0-11.1,0-11.1-0.1c0-0.1,4.9-0.1,11.1-0.1
								C88.4,129.3,93.3,129.4,93.3,129.4z"/>
						</g>
					</g>
				</g>
			</g>
		</g>
		<g>
			<g>
				<g>
					<g>
						<g>
							<path class="st14" d="M94.8,127c0,0.1-4.9,0.1-11.1,0.1c-6.1,0-11.1,0-11.1-0.1c0-0.1,4.9-0.1,11.1-0.1
								C89.8,126.9,94.8,127,94.8,127z"/>
						</g>
					</g>
				</g>
			</g>
		</g>
		<g>
			<g>
				<g>
					<g>
						<g>
							<path class="st14" d="M94.9,133.6c0,0.1-4.9,0.1-11.1,0.1c-6.1,0-11.1,0-11.1-0.1c0-0.1,4.9-0.1,11.1-0.1
								C89.9,133.5,94.9,133.5,94.9,133.6z"/>
						</g>
					</g>
				</g>
			</g>
		</g>
	</g>
</g>
<g>
	<g>
		<path class="st1" d="M131.1,136.4c0,0-29,0.1-64.8,0.1c-35.8,0-64.8,0-64.8-0.1c0,0,29-0.1,64.8-0.1
			C102.1,136.4,131.1,136.4,131.1,136.4z"/>
	</g>
</g>
<g>
	<g>
		<path class="st14" d="M30.1,16.2c0,0-1.8,24.8,0.4,28.9h27.9l-1.1-27.7L30.1,16.2z"/>
	</g>
	<g>
		<g>
			<path class="st15" d="M30.1,16.2c0.2,10.3,1.1,19.7,3.1,27.6L64.7,44c0,0-3.1-23.7-3.1-27.8H30.1z"/>
		</g>
		<g>
			<g>
				<path class="st1" d="M58.1,25.5c0,0-0.1,0.2-0.4,0.4c-0.3,0.2-0.7,0.6-1.4,0.8c-0.7,0.2-1.5,0.4-2.6,0.3c-1-0.2-2.1-0.7-2.9-1.6
					c-0.2-0.2-0.4-0.5-0.5-0.8c-0.1-0.3-0.2-0.6-0.1-1c0.1-0.3,0.4-0.6,0.8-0.7c0.2,0,0.4,0,0.6,0.1c0.2,0.1,0.3,0.3,0.4,0.4
					c0.3,0.7,0.1,1.5-0.4,2.1c-0.4,0.6-1,1.2-1.8,1.6c-1.4,0.8-3.4,1.2-5.1,0.5c-0.8-0.3-1.7-1-1.9-1.9c-0.1-0.5,0-0.9,0.2-1.4
					c0.2-0.4,0.6-0.8,1.1-0.9c0.5-0.2,1.1,0,1.5,0.3c0.4,0.3,0.7,0.7,0.8,1.2c0.1,0.5,0.1,0.9-0.1,1.3c-0.2,0.4-0.5,0.8-0.8,1.1
					c-1.4,1.2-3.5,1.3-5,0.8c-0.8-0.3-1.5-0.7-2-1.3c-0.5-0.6-0.9-1.2-1.1-1.9c-0.2-0.7-0.2-1.4-0.1-2c0.1-0.3,0.1-0.6,0.3-0.9
					c0.1-0.3,0.4-0.6,0.7-0.7c0.3-0.1,0.7,0,1,0.2c0.2,0.2,0.4,0.5,0.5,0.7c0.2,0.5,0.1,1.1,0,1.5c-0.2,0.9-0.8,1.6-1.3,2.1
					c-0.5,0.5-1,0.7-1.4,0.8c-0.4,0.1-0.5,0.1-0.5,0.1c0,0,0.2,0,0.5-0.2c0.3-0.1,0.8-0.4,1.3-0.8c0.5-0.5,1-1.1,1.2-2
					c0.1-0.4,0.1-0.9,0-1.4c-0.1-0.2-0.2-0.5-0.4-0.6c-0.2-0.2-0.5-0.2-0.8-0.1c-0.3,0.1-0.5,0.3-0.6,0.6c-0.1,0.3-0.2,0.6-0.3,0.9
					c-0.1,0.6-0.1,1.3,0.1,1.9c0.2,0.6,0.5,1.3,1,1.8c0.5,0.5,1.2,1,1.9,1.2c1.5,0.5,3.4,0.4,4.8-0.7c0.3-0.3,0.6-0.6,0.8-1
					c0.2-0.4,0.2-0.8,0.1-1.2c-0.1-0.4-0.4-0.8-0.7-1c-0.3-0.2-0.8-0.4-1.2-0.2c-0.8,0.2-1.3,1.2-1.1,2c0.2,0.8,0.9,1.4,1.7,1.7
					c1.6,0.7,3.5,0.4,4.9-0.4c0.7-0.4,1.3-0.9,1.7-1.5c0.2-0.3,0.4-0.6,0.5-0.9c0.1-0.3,0.1-0.7-0.1-1c-0.1-0.3-0.4-0.4-0.7-0.4
					c-0.3,0.1-0.5,0.3-0.6,0.6c-0.2,0.6,0.1,1.2,0.5,1.6c0.7,0.9,1.8,1.4,2.8,1.6c1,0.2,1.8,0,2.5-0.2
					C57.6,26.1,58.1,25.5,58.1,25.5z"/>
			</g>
		</g>
		<g>
			<g>
				<path class="st1" d="M61.4,35.4c0,0-0.5,0.5-1.7,0.9c-0.6,0.2-1.4,0.4-2.3,0.4c-0.9,0-2-0.1-3-0.5c-0.5-0.2-1.1-0.4-1.5-0.9
					c-0.2-0.2-0.4-0.6-0.3-0.9c0.1-0.3,0.3-0.7,0.6-0.8c0.4-0.1,0.8,0.1,1,0.4c0.2,0.3,0.2,0.7,0,1c-0.2,0.3-0.4,0.6-0.7,0.8
					c-0.3,0.2-0.6,0.5-0.9,0.6c-1.3,0.7-3,0.9-4.6,0.5c-0.8-0.2-1.6-0.6-2.2-1.2c-0.3-0.3-0.6-0.6-0.7-1c-0.2-0.4-0.2-0.8-0.1-1.3
					c0.2-0.4,0.5-0.8,0.9-0.9c0.5-0.2,1,0,1.3,0.2c0.4,0.3,0.6,0.7,0.7,1.1c0.1,0.4,0,0.8-0.2,1.2c-0.7,1.5-2.1,2.4-3.6,2.7
					c-1.5,0.3-3-0.2-4.1-1c-0.5-0.4-1-0.9-1.1-1.5c-0.1-0.3-0.1-0.6-0.1-0.9c0.1-0.3,0.2-0.6,0.5-0.7c0.5-0.4,1.2-0.2,1.6,0.1
					c0.4,0.3,0.6,0.8,0.6,1.2c0,0.9-0.6,1.5-1.1,1.9c-0.5,0.4-1,0.6-1.2,0.7c-0.1,0.1-0.3,0.1-0.3,0.1c-0.1,0-0.1,0-0.1,0
					c0,0,0.1-0.1,0.4-0.2c0.3-0.2,0.7-0.4,1.2-0.7c0.5-0.4,1-1,1-1.8c0-0.4-0.2-0.8-0.6-1.1c-0.4-0.3-1-0.4-1.4-0.1
					c-0.2,0.1-0.3,0.4-0.4,0.6c0,0.3,0,0.5,0.1,0.8c0.2,0.5,0.6,1,1.1,1.4c1,0.7,2.5,1.2,3.9,0.9c1.4-0.3,2.8-1.2,3.4-2.6
					c0.1-0.3,0.2-0.7,0.2-1.1c-0.1-0.3-0.3-0.7-0.5-0.9c-0.3-0.2-0.7-0.3-1-0.2c-0.4,0.1-0.6,0.4-0.7,0.8c-0.1,0.3-0.1,0.7,0,1.1
					c0.1,0.3,0.4,0.7,0.7,0.9c0.6,0.5,1.3,0.9,2,1.1c1.5,0.4,3.2,0.2,4.4-0.4c0.3-0.2,0.6-0.4,0.9-0.6c0.3-0.2,0.5-0.5,0.6-0.7
					c0.1-0.3,0.2-0.6,0-0.8c-0.1-0.3-0.4-0.4-0.7-0.3c-0.3,0.1-0.4,0.3-0.5,0.6c0,0.3,0.1,0.5,0.2,0.7c0.4,0.4,0.9,0.7,1.4,0.9
					c1,0.4,2,0.6,2.9,0.6c0.9,0,1.7-0.1,2.2-0.3C60.8,35.8,61.4,35.3,61.4,35.4z"/>
			</g>
		</g>
	</g>
</g>
<g>
	<g>
		<g>
			<g>
				<g>
					<polygon class="st11" points="125.2,67.3 72.4,73.8 66.4,17.4 119.2,11 					"/>
				</g>
				<g>
					<g>
						<path class="st1" d="M125.2,67.3c0,0,0-0.1,0-0.3c0-0.2,0-0.4-0.1-0.8c-0.1-0.7-0.2-1.7-0.3-3c-0.3-2.6-0.7-6.5-1.2-11.5
							c-1.1-9.9-2.6-23.9-4.4-40.8l0.1,0.1c-15.3,1.9-33.4,4.1-52.7,6.4l0,0l0.1-0.1c2.2,20.6,4.3,40,6,56.4l-0.1-0.1
							c15.8-1.9,29-3.5,38.2-4.6c4.6-0.6,8.2-1,10.7-1.3c1.2-0.1,2.2-0.3,2.8-0.3c0.3,0,0.6-0.1,0.7-0.1
							C125.1,67.3,125.2,67.3,125.2,67.3s-0.1,0-0.2,0c-0.2,0-0.4,0.1-0.7,0.1c-0.6,0.1-1.6,0.2-2.8,0.4c-2.5,0.3-6.1,0.8-10.7,1.3
							c-9.2,1.1-22.4,2.8-38.3,4.7l-0.1,0l0-0.1c-1.8-16.4-3.8-35.7-6-56.4l0-0.1l0.1,0l0,0c19.3-2.3,37.4-4.5,52.7-6.4l0.1,0l0,0.1
							c1.8,16.9,3.3,31,4.3,40.9c0.5,4.9,0.9,8.8,1.2,11.4c0.1,1.3,0.2,2.3,0.3,3c0,0.3,0.1,0.6,0.1,0.8
							C125.2,67.2,125.2,67.3,125.2,67.3z"/>
					</g>
				</g>
			</g>
			<g>
				<g>
					<polygon class="st16" points="122.1,64.8 74.9,70.5 69.5,20 116.8,14.2 					"/>
				</g>
				<g>
					<g>
						<path class="st1" d="M122.1,64.8c0,0,0-0.1,0-0.2c0-0.2,0-0.4-0.1-0.7c-0.1-0.6-0.2-1.5-0.3-2.7c-0.3-2.4-0.6-5.9-1.1-10.3
							c-1-8.8-2.3-21.5-4-36.6l0.1,0.1C103,16,86.8,18,69.5,20.1l0,0l0.1-0.1c2,18.5,3.8,35.9,5.4,50.6l-0.1-0.1
							c14.2-1.7,26-3.1,34.3-4.1c4.1-0.5,7.4-0.9,9.6-1.1c1.1-0.1,2-0.2,2.5-0.3c0.3,0,0.5-0.1,0.7-0.1
							C122.1,64.8,122.1,64.8,122.1,64.8s-0.1,0-0.2,0c-0.1,0-0.4,0-0.6,0.1c-0.6,0.1-1.4,0.2-2.5,0.3c-2.2,0.3-5.5,0.7-9.6,1.2
							c-8.3,1-20.1,2.5-34.3,4.2l-0.1,0l0-0.1c-1.6-14.7-3.4-32-5.4-50.5l0-0.1l0.1,0l0,0c17.3-2.1,33.5-4.1,47.3-5.7l0.1,0l0,0.1
							c1.6,15.2,2.9,27.8,3.9,36.7c0.5,4.4,0.8,7.9,1.1,10.3c0.1,1.2,0.2,2.1,0.3,2.7c0,0.3,0.1,0.5,0.1,0.7
							C122.1,64.7,122.1,64.8,122.1,64.8z"/>
					</g>
				</g>
			</g>
		</g>
		<g>
			<g>
				<path class="st12" d="M102,48c0,0,1.8,12.1,1.8,12.1l-1.8,0.2l-3.1-11.7L102,48z"/>
			</g>
			<g>
				<path class="st12" d="M112.5,46.3c0,0,1.8,12.1,1.8,12.1l-1.8,0.2l-3.1-11.7L112.5,46.3z"/>
			</g>
			<g>
				<polygon class="st12" points="82.2,50.3 82.2,63 84,62.8 85.2,50.3 				"/>
			</g>
			<g>
				<path class="st17" d="M114.2,21c0.3,4.4,1.6,18.5-1.1,25.4l-12.2,1.9L81.1,51c0,0-5.2-8.9-5.6-17.8l9.8-5.1c0,0,1.4-5.1,3.1-5.3
					c1.2-0.1,19.1-2.7,24.3-3.4C113.5,19.5,114.1,20.1,114.2,21z"/>
			</g>
			<g>
				<g>
					<path class="st1" d="M111.2,19.8C111.2,19.8,111.2,19.8,111.2,19.8c0,0.1-0.1,0.2-0.1,0.3c-0.1,0.2-0.2,0.5-0.4,0.9
						c-0.4,0.8-0.9,1.9-1.6,3.3c-0.2,0.3-0.3,0.7-0.6,1.1c-0.3,0.3-0.6,0.6-1,0.8c-0.7,0.4-1.5,0.8-2.3,1.2
						c-0.8,0.4-1.7,0.9-2.5,1.4c-0.4,0.3-0.9,0.5-1.3,0.8c-0.2,0.2-0.4,0.3-0.6,0.5c-0.2,0.2-0.4,0.4-0.4,0.7
						c-0.2,0.6-0.3,1.2-0.4,1.7c-0.1,0.6-0.2,1.2-0.3,1.7c-0.2,1.1-0.3,2.3-0.5,3.3c-0.3,2.1-0.5,4-0.7,5.6
						c-0.2,1.6-0.4,2.9-0.5,3.8c-0.1,0.4-0.1,0.8-0.1,1c0,0.2-0.1,0.4-0.1,0.4c0,0,0-0.1,0-0.4c0-0.3,0.1-0.6,0.1-1
						c0.1-0.9,0.2-2.2,0.4-3.8c0.2-1.6,0.4-3.5,0.7-5.7c0.1-1.1,0.3-2.2,0.5-3.3c0.1-0.6,0.2-1.2,0.3-1.8c0.1-0.6,0.2-1.2,0.4-1.8
						c0.1-0.3,0.3-0.6,0.5-0.8c0.2-0.2,0.4-0.4,0.6-0.5c0.4-0.3,0.9-0.6,1.3-0.8c0.9-0.5,1.7-1,2.5-1.4c0.8-0.4,1.6-0.8,2.3-1.2
						c0.4-0.2,0.7-0.5,0.9-0.8c0.3-0.3,0.4-0.7,0.6-1c0.7-1.4,1.3-2.5,1.7-3.3c0.2-0.4,0.3-0.7,0.4-0.9
						C111.2,19.9,111.2,19.8,111.2,19.8z"/>
				</g>
			</g>
			<g>
				<g>
					<path class="st1" d="M100.9,48.3c0,0,0-0.1,0-0.4c0-0.3,0.1-0.6,0.1-1c0.1-0.9,0.2-2.2,0.4-3.8c0.2-1.6,0.4-3.5,0.7-5.6
						c0.1-1,0.3-2.1,0.4-3.3c0.1-0.6,0.2-1.1,0.3-1.7c0.1-0.3,0.1-0.6,0.2-0.9l0.1-0.2c0-0.1,0.1-0.2,0.1-0.2
						c0.1-0.1,0.2-0.2,0.3-0.3c0.9-0.7,1.8-1.2,2.6-1.7c0.9-0.5,1.7-0.9,2.5-1.3c0.8-0.4,1.6-0.8,2.3-1.2c0.7-0.3,1.1-1.1,1.4-1.8
						c0.6-1.4,1-2.6,1.2-3.5c0.1-0.4,0.2-0.7,0.3-1c0.1-0.2,0.1-0.3,0.1-0.3c0,0,0,0.1-0.1,0.4c-0.1,0.2-0.1,0.6-0.3,1
						c-0.2,0.8-0.6,2.1-1.2,3.5c-0.1,0.4-0.3,0.7-0.5,1.1c-0.1,0.2-0.2,0.4-0.4,0.5c-0.2,0.2-0.3,0.2-0.5,0.4
						c-0.7,0.4-1.5,0.8-2.3,1.2c-0.8,0.4-1.6,0.9-2.5,1.4c-0.9,0.5-1.8,1-2.6,1.6c-0.1,0.1-0.2,0.2-0.3,0.3c0,0.1-0.1,0.1-0.1,0.2
						l-0.1,0.2c-0.1,0.3-0.1,0.6-0.2,0.9c-0.1,0.6-0.2,1.2-0.3,1.7c-0.2,1.1-0.3,2.2-0.4,3.3c-0.3,2.1-0.5,4-0.7,5.6
						c-0.2,1.6-0.4,2.8-0.5,3.7c-0.1,0.4-0.1,0.8-0.1,1C100.9,48.2,100.9,48.3,100.9,48.3z"/>
				</g>
			</g>
			<g>
				<g>
					<path class="st1" d="M84.6,50.6c0,0-0.1-0.1-0.1-0.3c-0.1-0.2-0.2-0.5-0.3-0.9c-0.3-0.7-0.7-1.8-1.2-3.2
						c-0.5-1.4-1.1-2.9-1.6-4.8c-0.1-0.3-0.1-0.6,0-0.8c0.1-0.3,0.3-0.4,0.5-0.6c0.4-0.3,0.8-0.4,1.3-0.5c0.9-0.1,1.8-0.2,2.7-0.4
						c3.7-0.5,7-0.9,9.5-1.3c1.2-0.1,2.2-0.3,2.9-0.4c0.3,0,0.6-0.1,0.8-0.1c0.2,0,0.3,0,0.3,0c0,0-0.1,0-0.3,0.1
						c-0.2,0-0.5,0.1-0.8,0.1c-0.7,0.1-1.7,0.3-2.9,0.4c-2.4,0.3-5.8,0.8-9.4,1.3c-0.9,0.1-1.8,0.2-2.7,0.4c-0.4,0-0.8,0.2-1.2,0.4
						c-0.2,0.1-0.3,0.3-0.4,0.5c-0.1,0.2-0.1,0.4,0,0.6c0.5,1.8,1.1,3.4,1.6,4.8c0.5,1.3,0.8,2.4,1.1,3.2c0.1,0.4,0.2,0.7,0.3,0.9
						C84.6,50.5,84.6,50.6,84.6,50.6z"/>
				</g>
			</g>
			<g>
				<g>
					<path class="st1" d="M83.1,46.5c0-0.1,3.4-0.6,7.6-1.2c4.2-0.6,7.6-1,7.6-0.9c0,0.1-3.4,0.6-7.6,1.2
						C86.5,46.1,83.1,46.5,83.1,46.5z"/>
				</g>
			</g>
			<g>
				<g>
					<path class="st1" d="M75.5,33.3c0,0,0.1-0.1,0.4-0.2c0.2-0.1,0.6-0.3,1.1-0.3c0.5,0,1.1,0,1.6,0.4c0.3,0.2,0.5,0.5,0.7,0.9
						c0.2,0.4,0.3,0.7,0.5,1.2c0.5,1.7,0.9,3.1,1.2,4.2c0.3,1.1,0.4,1.8,0.4,1.8c0,0-0.2-0.6-0.6-1.7c-0.3-1.1-0.7-2.6-1.2-4.2
						c-0.1-0.4-0.3-0.8-0.4-1.1c-0.2-0.3-0.4-0.6-0.6-0.8c-0.5-0.4-1.1-0.4-1.5-0.4C76.1,32.9,75.5,33.3,75.5,33.3z"/>
				</g>
			</g>
			<g>
				<g>
					<path class="st1" d="M90.7,38.8c0,0-0.1-0.2-0.2-0.5c-0.1-0.3-0.2-0.8-0.3-1.4c-0.3-1.2-0.7-2.9-1.1-4.8
						c-0.2-0.9-0.4-1.8-0.8-2.5c-0.4-0.7-0.8-1.2-1.3-1.4c-0.5-0.3-0.9-0.3-1.2-0.2c-0.3,0-0.4,0.1-0.4,0.1c0,0,0,0,0.1-0.1
						c0.1,0,0.2-0.1,0.3-0.1c0.3-0.1,0.7-0.1,1.2,0.2c0.5,0.2,1,0.7,1.4,1.5c0.4,0.7,0.6,1.6,0.8,2.5c0.4,1.9,0.8,3.5,1,4.8
						c0.1,0.6,0.2,1.1,0.3,1.5C90.7,38.6,90.7,38.8,90.7,38.8z"/>
				</g>
			</g>
			<g>
				<g>
					<g>
						<path class="st1" d="M94.6,28.8c0,0-0.3-0.1-0.6,0.2c-0.2,0.1-0.3,0.4-0.2,0.7c0,0.3,0.2,0.6,0.5,0.7c0.3,0.1,0.5-0.2,0.6-0.4
							c0.1-0.3,0.1-0.6,0-0.8c-0.2-0.4-0.6-0.3-0.5-0.4c0,0,0.1,0,0.2,0c0.1,0,0.3,0.1,0.5,0.3c0.2,0.2,0.2,0.6,0.1,1
							c-0.1,0.2-0.2,0.4-0.3,0.5c-0.2,0.1-0.3,0.2-0.5,0.1c-0.4-0.1-0.6-0.5-0.7-0.9c0-0.2,0-0.4,0.1-0.5c0.1-0.2,0.2-0.3,0.3-0.3
							c0.2-0.1,0.4-0.2,0.5-0.1C94.5,28.7,94.6,28.8,94.6,28.8z"/>
					</g>
				</g>
			</g>
			<g>
				<g>
					<g>
						<path class="st1" d="M103.9,28c0,0-0.1-0.3-0.4-0.4l0,0l0,0c-0.1,0-0.3,0-0.5,0c-0.2,0.1-0.4,0.4-0.4,0.6l0,0
							c0,0.3,0.1,0.4,0.1,0.4c0,0-0.1-0.1-0.2-0.4l0,0c-0.1-0.3,0.1-0.7,0.5-0.9c0.2-0.1,0.4-0.1,0.6,0l0,0c0.2,0.1,0.3,0.2,0.4,0.4
							C103.9,28,103.9,28,103.9,28z"/>
					</g>
				</g>
			</g>
			<g class="st9">
				<g>
					<path d="M99.2,37.4c0-2.3,0.4-4.6,1.1-6.8c-0.6,0.6-0.9,1.5-1.3,2.4c-0.3,0.9-0.7,1.8-1.5,2.1c-0.7,0.3-1.5,0-2.2,0
						c-0.9,0-1.8,0.6-2.8,0.5c-0.8-0.1-1.6-0.7-2.1-1.4c-0.6-0.7-1-1.6-1.3-2.5c0.2,1.4,0.5,3-0.1,4.2c-0.7,1.4-2.2,1.9-3.5,2.2
						c-1.3,0.3-2.8,0.7-3.6,2c0,0,0.7-0.4,1.7-0.5C84.5,39.5,99.2,37.4,99.2,37.4z"/>
				</g>
			</g>
		</g>
	</g>
	<g>
		<polygon class="st18" points="104,12.1 106.1,8.5 124.5,18.2 122.4,21.7 		"/>
	</g>
</g>
<g>
	<g>
		<polygon class="st19" points="69,102.6 74.8,96.2 79.3,95.9 80,100.8 76.3,102.4 72.3,106.6 69.9,107.2 		"/>
	</g>
	<g>
		<g>
			<g>
				<g>
					<polygon class="st11" points="130.4,137 60.8,122.1 73.4,61.9 143,76.7 					"/>
				</g>
				<g>
					<g>
						<path class="st1" d="M130.4,137c0.1-0.6,5-24,12.6-60.3l0.1,0.1c-20-4.3-43.9-9.4-69.6-14.9l0,0l0.1-0.1
							c-4.6,21.9-8.9,42.5-12.6,60.2l-0.1-0.1C102.3,130.9,129.7,136.8,130.4,137c-0.7-0.1-28.1-6-69.6-14.8l-0.1,0l0-0.1
							c3.7-17.8,8-38.4,12.6-60.2l0-0.1l0.1,0l0,0c25.7,5.5,49.6,10.6,69.6,14.9l0.1,0l0,0.1C135.5,113,130.5,136.4,130.4,137z"/>
					</g>
				</g>
			</g>
			<g>
				<g>
					<polygon class="st16" points="127.9,133.5 64.6,119.9 76,65.4 139.3,78.9 					"/>
				</g>
				<g>
					<g>
						<path class="st1" d="M127.9,133.5c0,0,0.1-0.3,0.2-1c0.1-0.7,0.3-1.6,0.6-2.9c0.5-2.6,1.3-6.3,2.3-11.1
							c2-9.5,4.8-23.2,8.3-39.6l0.1,0.1c-18.2-3.9-39.9-8.5-63.3-13.5l0,0l0.1-0.1c-4.1,19.8-8.1,38.4-11.4,54.5l-0.1-0.1
							c18.9,4.1,34.7,7.4,45.8,9.8c5.6,1.2,9.9,2.1,12.9,2.8c1.5,0.3,2.6,0.6,3.4,0.7c0.4,0.1,0.7,0.1,0.9,0.2
							C127.8,133.4,127.9,133.5,127.9,133.5s-0.1,0-0.3-0.1c-0.2,0-0.5-0.1-0.9-0.2c-0.8-0.2-1.9-0.4-3.4-0.7
							c-3-0.6-7.4-1.6-12.9-2.7c-11.1-2.4-26.9-5.7-45.8-9.8l-0.1,0l0-0.1c3.4-16.1,7.3-34.8,11.4-54.5l0-0.1l0.1,0l0,0
							c23.4,5,45.1,9.7,63.3,13.6l0.1,0l0,0.1c-3.5,16.4-6.3,30.1-8.3,39.6c-1,4.8-1.8,8.5-2.3,11c-0.3,1.3-0.5,2.2-0.6,2.9
							C127.9,133.1,127.9,133.5,127.9,133.5z"/>
					</g>
				</g>
			</g>
			<g>
				<g>
					<polygon class="st1" points="95.9,115.4 94.2,120.9 94.7,121 97.6,115.8 					"/>
				</g>
				<g>
					<polygon class="st1" points="116.5,119.8 115.8,125.6 115.3,125.5 114.8,119.5 					"/>
				</g>
				<g>
					<g>
						<polygon class="st20" points="123.5,121.6 89.2,114.3 91.4,103.4 125.7,110.7 						"/>
					</g>
					<g>
						<g>
							<path class="st21" d="M107.2,112.2C107.2,112.2,107.2,112.2,107.2,112.2c0-0.2,0-0.2,0.1-0.3c0-0.2,0.1-0.6,0.2-1
								c0.2-0.9,0.4-2.1,0.7-3.6l0.1,0.1c-3.8-0.8-9.7-2.1-16.3-3.4c0.1,0-0.1,0.1,0.1-0.1l0,0l0,0l0,0l0,0l0,0l0,0l0,0.1l0,0.2
								l-0.1,0.3c0,0.2-0.1,0.4-0.1,0.6c-0.1,0.4-0.2,0.8-0.3,1.2c-0.2,0.8-0.3,1.6-0.5,2.4l-0.1-0.1c4.6,1,8.7,1.9,11.6,2.5
								c1.4,0.3,2.6,0.6,3.4,0.8c0.4,0.1,0.7,0.2,0.9,0.2C107,112.2,107.1,112.2,107.2,112.2C107.2,112.2,107.2,112.2,107.2,112.2
								c0,0-0.1,0-0.3-0.1c-0.2,0-0.5-0.1-0.9-0.2c-0.8-0.2-2-0.4-3.4-0.7c-2.9-0.6-7-1.5-11.7-2.5l-0.1,0l0-0.1
								c0.2-0.8,0.3-1.6,0.5-2.4c0.1-0.4,0.2-0.8,0.3-1.2c0-0.2,0.1-0.4,0.1-0.6l0.1-0.3l0-0.2l0-0.1l0,0l0,0l0,0l0,0l0,0l0,0
								c0.3-0.2,0.1,0,0.1-0.1c6.6,1.4,12.5,2.7,16.3,3.5l0.1,0l0,0.1c-0.3,1.5-0.6,2.7-0.8,3.6c-0.1,0.4-0.2,0.7-0.2,0.9
								C107.3,112.1,107.2,112.3,107.2,112.2z"/>
						</g>
					</g>
					<g>
						<g>
							<path class="st21" d="M106.2,117.4C106.1,117.4,106.2,117.3,106.2,117.4c0-0.2,0-0.2,0.1-0.3c0-0.2,0.1-0.6,0.2-1
								c0.2-0.9,0.4-2.1,0.7-3.6l0.1,0.1c-3.8-0.8-9.7-2.1-16.3-3.4c0.1,0-0.1,0.1,0.1-0.1l0,0l0,0l0,0l0,0l0,0l0,0l0,0.1l0,0.2
								l-0.1,0.3c0,0.2-0.1,0.4-0.1,0.6c-0.1,0.4-0.2,0.8-0.3,1.2c-0.2,0.8-0.3,1.6-0.5,2.4l-0.1-0.1c4.6,1,8.7,1.9,11.6,2.5
								c1.4,0.3,2.6,0.6,3.4,0.8c0.4,0.1,0.7,0.2,0.9,0.2C105.9,117.3,106,117.3,106.2,117.4C106.1,117.4,106.1,117.4,106.2,117.4
								c0,0-0.1,0-0.3-0.1c-0.2,0-0.5-0.1-0.9-0.2c-0.8-0.2-2-0.4-3.4-0.7c-2.9-0.6-7-1.5-11.7-2.5l-0.1,0l0-0.1
								c0.2-0.8,0.3-1.6,0.5-2.4c0.1-0.4,0.2-0.8,0.3-1.2c0-0.2,0.1-0.4,0.1-0.6l0.1-0.3l0-0.2l0-0.1l0,0l0,0l0,0l0,0l0,0l0,0
								c0.3-0.2,0.1,0,0.1-0.1c6.6,1.4,12.5,2.7,16.3,3.5l0.1,0l0,0.1c-0.3,1.5-0.6,2.7-0.8,3.6c-0.1,0.4-0.2,0.7-0.2,0.9
								C106.2,117.3,106.2,117.4,106.2,117.4z"/>
						</g>
					</g>
					<g>
						<g>
							<path class="st21" d="M124.1,115.9C124.1,115.8,124.1,115.8,124.1,115.9c0-0.2,0-0.2,0.1-0.3c0-0.2,0.1-0.6,0.2-1
								c0.2-0.9,0.4-2.1,0.7-3.6l0.1,0.1c-3.8-0.8-9.7-2.1-16.3-3.4c0.1,0-0.1,0.1,0.1-0.1l0,0l0,0l0,0l0,0l0,0l0,0l0,0.1l0,0.2
								l-0.1,0.3c0,0.2-0.1,0.4-0.1,0.6c-0.1,0.4-0.2,0.8-0.3,1.2c-0.2,0.8-0.3,1.6-0.5,2.4l-0.1-0.1c4.6,1,8.7,1.9,11.6,2.5
								c1.4,0.3,2.6,0.6,3.4,0.8c0.4,0.1,0.7,0.2,0.9,0.2C123.8,115.8,123.9,115.8,124.1,115.9C124,115.8,124.1,115.8,124.1,115.9
								c0,0-0.1,0-0.3-0.1c-0.2,0-0.5-0.1-0.9-0.2c-0.8-0.2-2-0.4-3.4-0.7c-2.9-0.6-7-1.5-11.7-2.5l-0.1,0l0-0.1
								c0.2-0.8,0.3-1.6,0.5-2.4c0.1-0.4,0.2-0.8,0.3-1.2c0-0.2,0.1-0.4,0.1-0.6l0.1-0.3l0-0.2l0-0.1l0,0l0,0l0,0l0,0l0,0l0,0
								c0.3-0.2,0.1,0,0.1-0.1c6.6,1.4,12.5,2.7,16.3,3.5l0.1,0l0,0.1c-0.3,1.5-0.6,2.7-0.8,3.6c-0.1,0.4-0.2,0.7-0.2,0.9
								C124.1,115.7,124.1,115.9,124.1,115.9z"/>
						</g>
					</g>
					<g>
						<g>
							<path class="st21" d="M123,121C123,121,123,121,123,121c0-0.2,0-0.2,0.1-0.3c0-0.2,0.1-0.6,0.2-1c0.2-0.9,0.4-2.1,0.7-3.6
								l0.1,0.1c-3.8-0.8-9.7-2.1-16.3-3.4c0.1,0-0.1,0.1,0.1-0.1l0,0l0,0l0,0l0,0l0,0l0,0l0,0.1l0,0.2l-0.1,0.3
								c0,0.2-0.1,0.4-0.1,0.6c-0.1,0.4-0.2,0.8-0.3,1.2c-0.2,0.8-0.3,1.6-0.5,2.4l-0.1-0.1c4.6,1,8.7,1.9,11.6,2.5
								c1.4,0.3,2.6,0.6,3.4,0.8c0.4,0.1,0.7,0.2,0.9,0.2C122.8,120.9,122.8,120.9,123,121C123,121,123,121,123,121
								c0,0-0.1,0-0.3-0.1c-0.2,0-0.5-0.1-0.9-0.2c-0.8-0.2-2-0.4-3.4-0.7c-2.9-0.6-7-1.5-11.7-2.5l-0.1,0l0-0.1
								c0.2-0.8,0.3-1.6,0.5-2.4c0.1-0.4,0.2-0.8,0.3-1.2c0-0.2,0.1-0.4,0.1-0.6l0.1-0.3l0-0.2l0-0.1l0,0l0,0l0,0l0,0l0,0l0,0
								c0.3-0.2,0.1,0,0.1-0.1c6.6,1.4,12.5,2.7,16.3,3.5l0.1,0l0,0.1c-0.3,1.5-0.6,2.7-0.8,3.6c-0.1,0.4-0.2,0.7-0.2,0.9
								C123,120.9,123,121,123,121z"/>
						</g>
					</g>
					<g>
						<g>
							<path class="st21" d="M91.9,103.9c0,0-0.2,0-0.3-0.2c-0.1-0.1-0.2-0.3-0.2-0.3c0,0,0.2,0,0.3,0.2
								C91.9,103.7,92,103.8,91.9,103.9z"/>
						</g>
					</g>
					<g>
						<g>
							<path class="st21" d="M89.8,113.9c0,0.1-0.1,0.2-0.3,0.3c-0.2,0.1-0.4,0.2-0.4,0.1c0-0.1,0.1-0.2,0.3-0.3
								C89.6,113.9,89.8,113.8,89.8,113.9z"/>
						</g>
					</g>
					<g>
						<g>
							<path class="st21" d="M123.5,121.6c0,0.1-7.7-1.5-17.2-3.6c-9.5-2-17.2-3.7-17.2-3.8c0-0.1,7.7,1.5,17.2,3.6
								C115.8,119.9,123.5,121.6,123.5,121.6z"/>
						</g>
					</g>
					<g>
						<g>
							<path class="st21" d="M99,113.3c0,0,0-0.2-0.2-0.4c-0.1-0.1-0.2-0.1-0.4-0.1c-0.1,0-0.3,0.1-0.3,0.3c0,0.2,0,0.3,0.2,0.4
								c0.1,0.1,0.3,0.1,0.4,0C98.9,113.5,99,113.3,99,113.3c0,0,0,0.1,0,0.1c0,0.1-0.1,0.2-0.2,0.3c-0.1,0.1-0.4,0.1-0.6,0
								c-0.2-0.1-0.3-0.4-0.3-0.7c0.1-0.3,0.3-0.5,0.5-0.5c0.2,0,0.4,0.1,0.5,0.2c0.1,0.1,0.1,0.3,0.1,0.4
								C99,113.3,99,113.3,99,113.3z"/>
						</g>
					</g>
					<g>
						<g>
							<path class="st21" d="M100.1,108.2c0,0,0-0.2-0.2-0.4c-0.1-0.1-0.2-0.1-0.4-0.1c-0.1,0-0.3,0.1-0.3,0.3c0,0.2,0,0.3,0.2,0.4
								c0.1,0.1,0.3,0.1,0.4,0C100,108.4,100,108.2,100.1,108.2c0,0,0,0.1,0,0.1c0,0.1-0.1,0.2-0.2,0.3c-0.1,0.1-0.4,0.1-0.6,0
								c-0.2-0.1-0.3-0.4-0.3-0.7c0.1-0.3,0.3-0.5,0.5-0.5c0.2,0,0.4,0.1,0.5,0.2c0.1,0.1,0.1,0.3,0.1,0.4
								C100.1,108.1,100.1,108.2,100.1,108.2z"/>
						</g>
					</g>
					<g>
						<g>
							<path class="st21" d="M116.1,117c0,0,0-0.2-0.2-0.4c-0.1-0.1-0.2-0.1-0.4-0.1c-0.1,0-0.3,0.1-0.3,0.3c0,0.2,0,0.3,0.2,0.4
								c0.1,0.1,0.3,0.1,0.4,0C116,117.1,116,116.9,116.1,117c0,0,0,0.1,0,0.1c0,0.1-0.1,0.2-0.2,0.3c-0.1,0.1-0.4,0.1-0.6,0
								c-0.2-0.1-0.3-0.4-0.3-0.7c0.1-0.3,0.3-0.5,0.5-0.5c0.2,0,0.4,0.1,0.5,0.2c0.1,0.1,0.1,0.3,0.1,0.4
								C116.1,116.9,116.1,117,116.1,117z"/>
						</g>
					</g>
					<g>
						<g>
							<path class="st21" d="M117.1,111.8c0,0,0-0.2-0.2-0.4c-0.1-0.1-0.2-0.1-0.4-0.1c-0.1,0-0.3,0.1-0.3,0.3c0,0.2,0,0.3,0.2,0.4
								c0.1,0.1,0.3,0.1,0.4,0C117,112,117.1,111.8,117.1,111.8c0,0,0,0.1,0,0.1c0,0.1-0.1,0.2-0.2,0.3c-0.1,0.1-0.4,0.1-0.6,0
								c-0.2-0.1-0.3-0.4-0.3-0.7c0.1-0.3,0.3-0.5,0.5-0.5c0.2,0,0.4,0.1,0.5,0.2c0.1,0.1,0.1,0.3,0.1,0.4
								C117.2,111.8,117.1,111.8,117.1,111.8z"/>
						</g>
					</g>
					<g>
						<g>
							<path class="st21" d="M125.8,110.7c0,0.1-0.1,0.1-0.3,0.2c-0.2,0.1-0.3,0.1-0.4,0.1c0-0.1,0.1-0.2,0.3-0.3
								C125.6,110.6,125.7,110.6,125.8,110.7z"/>
						</g>
					</g>
					<g>
						<g>
							<path class="st21" d="M123.5,121.6c0,0-0.2-0.1-0.3-0.3c-0.1-0.2-0.2-0.4-0.2-0.4c0,0,0.2,0.1,0.3,0.3
								C123.5,121.4,123.6,121.6,123.5,121.6z"/>
						</g>
					</g>
				</g>
			</g>
			<g>
				<polygon class="st14" points="65.8,114.6 128.9,128.1 127.8,133.4 64.7,119.8 				"/>
			</g>
			<g>
				<g>
					<g>
						<path class="st22" d="M87.7,95c0,0,0.9-6.2-3.3-12.8c-4.2-6.6-9.4-7.2-9.4-7.2s6.2-0.8,10.8,6.2C90.4,88.3,87.7,95,87.7,95z"
							/>
					</g>
					<g>
						<path class="st23" d="M91.7,72.8c-0.1-0.2-3,13.7-3,13.7l-1.2,10.1c0,0,2.8-7.2,3.5-10.9C91.8,81.9,92.5,74.5,91.7,72.8z"/>
					</g>
					<g>
						<path class="st23" d="M97.9,73.9c0,0-2.8,0.9-6.1,10.8c-2.5,7.6-3.7,10.5-4.1,11.5c-0.1,0.3-0.1,0.4-0.1,0.4s4.8-6.7,6.7-10.4
							C96.1,82.5,96.3,76.7,97.9,73.9z"/>
					</g>
					<g>
						<path class="st22" d="M87.7,98.8c-0.1,0.2,1.8-3.1,8.2-6.6c6-3.2,8.2-3,8.2-3s-5.3-0.3-9.5,2.2C90.9,93.6,88.4,96.3,87.7,98.8
							z"/>
					</g>
					<g>
						<path class="st23" d="M86.1,102.7c-0.1-1.9-0.3-3.7-1.2-5.5c-0.8-1.7-2.4-3.3-4.5-3.9C83.3,96.1,85.3,99.1,86.1,102.7"/>
					</g>
					<g>
						<path class="st23" d="M87.8,95.8c0,0,0.8-7-4.6-10.2c-3-1.8-8-1.9-8-1.9s6,1.7,7.9,3.3C85.1,88.7,87.8,95.8,87.8,95.8z"/>
					</g>
					<g>
						<g>
							<path class="st1" d="M82.7,115.8C82.7,115.8,82.7,115.7,82.7,115.8c0-0.2,0-0.2,0.1-0.3c0.1-0.2,0.1-0.6,0.2-1
								c0.2-0.9,0.5-2.1,0.9-3.6c0.8-3,1.8-7.2,3-11.8c0.1-0.6,0.3-1.1,0.4-1.7c0.1-0.3,0.1-0.6,0.2-0.8c0-0.1,0.1-0.3,0.1-0.4
								c0.1-0.1,0.1-0.3,0.2-0.4c0.3-0.5,0.5-1,0.7-1.5c0.3-0.5,0.5-1,0.7-1.4c0.5-0.9,1-1.8,1.4-2.7c0.4-0.8,0.8-1.6,1.1-2.3
								c0.4-0.7,0.6-1.4,0.9-1.9c0.2-0.6,0.5-1.1,0.6-1.5c0.2-0.4,0.3-0.7,0.4-0.9c0-0.1,0.1-0.2,0.1-0.2c0-0.1,0-0.1,0-0.1
								c0,0,0,0,0,0.1c0,0.1,0,0.1-0.1,0.2c-0.1,0.2-0.2,0.5-0.4,0.9c-0.2,0.4-0.4,0.9-0.6,1.5c-0.2,0.6-0.5,1.2-0.8,2
								c-0.3,0.7-0.7,1.5-1.1,2.3c-0.4,0.8-0.9,1.7-1.3,2.7c-0.2,0.5-0.5,0.9-0.7,1.4c-0.2,0.5-0.5,1-0.7,1.5
								c-0.1,0.1-0.1,0.3-0.2,0.4c-0.1,0.1-0.1,0.3-0.1,0.4c-0.1,0.3-0.1,0.6-0.2,0.8c-0.1,0.6-0.3,1.1-0.4,1.7
								c-1.2,4.6-2.2,8.7-3,11.7c-0.4,1.5-0.7,2.7-0.9,3.6c-0.1,0.4-0.2,0.7-0.3,1C82.8,115.5,82.8,115.6,82.7,115.8
								C82.7,115.7,82.7,115.8,82.7,115.8z"/>
						</g>
					</g>
					<g>
						<g>
							<path class="st1" d="M88.8,96.9c0,0-0.2,0.3-0.5,0.8c-0.3,0.5-0.7,1.2-1.1,2c-0.4,0.8-0.7,1.6-0.9,2.1
								c-0.2,0.5-0.3,0.9-0.4,0.9c0,0,0-0.4,0.2-0.9c0.2-0.6,0.5-1.3,0.8-2.1c0.4-0.8,0.8-1.5,1.1-2C88.6,97.2,88.8,96.9,88.8,96.9z
								"/>
						</g>
					</g>
					<g>
						<path class="st1" d="M85.7,118.6c1.5-0.7,2.1-2.3,2-3.8c-0.1-1.4-0.8-2.8-1.3-4.2l-4.6-0.8c-1.1,1.1-2.4,2.1-3.2,3.4
							c-0.8,1.3-1,2.9,0,4.1L85.7,118.6z"/>
					</g>
				</g>
				<g>
					<g>
						<path class="st1" d="M91.4,78.7c0,0,0,0.1,0,0.2c0,0.1,0,0.3-0.1,0.5c-0.1,0.4-0.1,1.1-0.3,1.9c-0.3,1.6-0.6,3.7-1.1,6.1
							c-0.5,2.4-1,4.5-1.4,6.1c-0.2,0.8-0.4,1.4-0.5,1.8c-0.1,0.2-0.1,0.4-0.2,0.5c0,0.1-0.1,0.2-0.1,0.2c0,0,0-0.1,0-0.2
							c0-0.1,0.1-0.3,0.1-0.5c0.1-0.5,0.3-1.1,0.5-1.8c0.4-1.5,0.8-3.7,1.3-6.1c0.5-2.4,0.9-4.5,1.2-6.1c0.1-0.8,0.3-1.4,0.3-1.8
							c0-0.2,0.1-0.4,0.1-0.5C91.3,78.7,91.3,78.7,91.4,78.7z"/>
					</g>
				</g>
				<g>
					<g>
						<path class="st1" d="M86.2,83.8c0,0,0.1,0.1,0.2,0.4c0.1,0.2,0.3,0.6,0.4,1c0.3,0.9,0.7,2.1,1,3.5c0.3,1.4,0.4,2.7,0.4,3.6
							c0,0.5,0,0.8,0,1.1c0,0.3,0,0.4,0,0.4c0,0,0-0.6-0.1-1.5c-0.1-0.9-0.2-2.2-0.5-3.6c-0.3-1.4-0.6-2.6-0.9-3.5
							C86.4,84.4,86.2,83.8,86.2,83.8z"/>
					</g>
				</g>
				<g>
					<g>
						<path class="st1" d="M83,86.1c0,0,0.2,0.1,0.4,0.2c0.2,0.2,0.6,0.4,0.9,0.8c0.4,0.4,0.8,0.8,1.2,1.3c0.4,0.5,0.8,1.2,1,1.9
							c0.6,1.4,0.9,2.7,1.1,3.6c0.1,0.5,0.2,0.8,0.2,1.1c0,0.3,0.1,0.4,0,0.4c0,0-0.1-0.1-0.1-0.4c-0.1-0.3-0.2-0.7-0.3-1.1
							c-0.3-0.9-0.6-2.2-1.2-3.5c-0.3-0.7-0.6-1.3-1-1.8c-0.4-0.5-0.8-1-1.1-1.4c-0.3-0.4-0.7-0.7-0.9-0.8
							C83.2,86.2,83,86.1,83,86.1z"/>
					</g>
				</g>
			</g>
			<g>
				<g>
					<polygon class="st1" points="125.2,104.5 123.9,104.2 128.5,82.5 129.8,82.7 					"/>
				</g>
				<g>
					<polygon class="st11" points="124,104 97.9,98.5 102.4,77.1 128.5,82.7 					"/>
					<path class="st12" d="M124.4,104.7l-27-5.8l4.7-22.4l27,5.8L124.4,104.7z M98.5,98.1l25.1,5.4l4.3-20.4l-25.1-5.4L98.5,98.1z"
						/>
				</g>
				<g>
					<polygon class="st14" points="121.1,99.9 101.9,95.8 105.1,80.7 124.3,84.8 					"/>
				</g>
			</g>
		</g>
	</g>
	<g>
		<g>
			<g>
				<path class="st19" d="M52.2,100.6l2.8,11l9.2-10.1l3.5,3.7c0,0-7.8,15.5-11.5,18.4c-4.2,3.2-9.2-1-9.8-4.1
					c-0.6-3.1-3.9-17.1-3.9-17.1L52.2,100.6z"/>
			</g>
			<g>
				<g>
					<path class="st24" d="M55.1,111.4c0,0-0.2,0.2-0.6,0.6c-0.2,0.2-0.4,0.4-0.6,0.7c-0.2,0.3-0.4,0.6-0.6,1
						c-0.2,0.4-0.3,0.8-0.4,1.1c-0.1,0.4-0.2,0.7-0.2,1c-0.1,0.6-0.1,0.9-0.1,0.9c0,0,0-0.1,0-0.3c0-0.1,0-0.2,0-0.3
						c0-0.1,0-0.2,0-0.4c0-0.3,0.1-0.6,0.2-1c0.1-0.4,0.2-0.8,0.4-1.1c0.2-0.4,0.4-0.7,0.6-1c0.2-0.3,0.4-0.5,0.6-0.7
						c0.1-0.1,0.2-0.2,0.3-0.2c0.1-0.1,0.1-0.1,0.2-0.2C55.1,111.4,55.1,111.4,55.1,111.4z"/>
				</g>
			</g>
		</g>
		<g>
			<g>
				<path class="st17" d="M45.3,111.5l9.6-3.3c0,0-2.1-7.6-3.7-13.2c-1.4-4.9-3.8-6.9-5-8c-0.5-0.4-1.1-0.7-1.7-0.8
					c-2.3-0.4-8.5-1.4-11.6-1.7c-3.8-0.4-11.8,2.2-11.8,2.2s-7,4.9-9.4,6.8c-0.6,0.5-1,1.2-1.3,2c-0.4,1.5-1,4-1.7,7.3
					c-0.4,2.1-1.8,9-1.8,9l8.2-0.3c1.7,6.3,3.2,11.9,3.2,11.9l-0.6,13.1l30.1-0.1c0,0-2.6-21.2-2.6-21.7
					C45.4,114.4,45.3,113.1,45.3,111.5z"/>
			</g>
			<g class="st9">
				<g>
					<g>
						<path d="M35.8,99.3c-0.6-1-1.7-1.4-2.6-1.2c-1,0.1-1.9,0.7-2.7,1.4c-2.5,2.1-4.3,5.3-5.8,8.5c-2.7,5.6-5,11.5-6.8,17.7
							l0.1,1.6c2-0.3,3.4-2.5,4.3-4.8c0.9-2.3,1.3-4.9,2.1-7.3c1.5-4.5,4.5-8.3,8.1-10.1c1.2,0.2,2.5-0.3,3.3-1.5
							C36.4,102.3,36.6,100.5,35.8,99.3z"/>
					</g>
				</g>
			</g>
			<g>
				<g>
					<g>
						<path class="st1" d="M45.4,113.5c0,0-0.3-3.3-0.6-7.5c-0.3-4.1-0.5-7.5-0.4-7.5c0,0,0.3,3.3,0.6,7.5
							C45.2,110.2,45.4,113.5,45.4,113.5z"/>
					</g>
				</g>
			</g>
			<g>
				<g>
					<g>
						<path class="st1" d="M13,98.6c0,0,0.1,0.2,0.1,0.5c0.1,0.4,0.2,0.9,0.3,1.4c0.2,1.2,0.5,2.9,0.8,4.7c0.3,1.9,0.6,3.5,0.8,4.7
							c0.1,0.6,0.2,1.1,0.2,1.4c0,0.3,0.1,0.5,0.1,0.5c0,0-0.1-0.2-0.1-0.5c-0.1-0.4-0.2-0.9-0.3-1.4c-0.2-1.2-0.5-2.9-0.8-4.7
							c-0.3-1.8-0.6-3.5-0.8-4.7c-0.1-0.6-0.2-1.1-0.2-1.4C13,98.8,13,98.6,13,98.6z"/>
					</g>
				</g>
			</g>
			<g>
				<g>
					<g>
						<path class="st1" d="M43.9,86.4c0,0-0.2,1.4-0.4,3c-0.2,1.7-0.2,3.1-0.3,3.1c0,0,0-0.3,0-0.9c0-0.6,0.1-1.3,0.1-2.2
							c0.1-0.8,0.2-1.6,0.3-2.1C43.8,86.7,43.9,86.4,43.9,86.4z"/>
					</g>
				</g>
			</g>
		</g>
		<g>
			<g>
				<g>
					<g>
						<path class="st19" d="M30.8,93.4l2.8-7l-0.9-3.1c0,0,4.2-2.7,2.7-8.2c-0.7-2.7-2.5-8-4.1-12.8c-1.8-5.2-6.4-7.8-10.7-6
							l-0.4,0.2c-4.5,2.3-5.4,8.3-3.5,13.8l5.6,20.6L30.8,93.4z"/>
					</g>
					<g>
						<path class="st25" d="M32.7,83.3c0,0-6.6,0.8-9.2-0.6c0,0,3.1,4.6,9.6,2L32.7,83.3z"/>
					</g>
					<g>
						<path class="st1" d="M31.6,68c0.2,0.5-0.1,1.2-0.5,1.4c-0.4,0.2-0.9,0-1.1-0.6c-0.2-0.5,0.1-1.2,0.5-1.4
							C31,67.2,31.5,67.4,31.6,68z"/>
					</g>
					<g>
						<path class="st1" d="M31.1,65.1c-0.1,0.1-0.9-0.1-1.6,0.2c-0.7,0.3-1.1,1-1.2,1c0,0,0-0.7,0.1-1c0.2-0.3,0.5-0.6,0.9-0.8
							c0.4-0.2,0.8-0.1,1.1,0C30.7,64.6,31.1,65.1,31.1,65.1z"/>
					</g>
					<g>
						<path class="st1" d="M25.8,70.3c0.2,0.6-0.1,1.3-0.6,1.6c-0.5,0.3-1.1,0-1.2-0.6c-0.2-0.6,0.1-1.3,0.6-1.6
							C25.1,69.4,25.6,69.7,25.8,70.3z"/>
					</g>
					<g>
						<path class="st1" d="M24.8,67.8c0,0.1-0.7,0.1-1.3,0.4c-0.6,0.4-1.1,1-1.2,1c-0.1,0-0.1-0.5,0-0.9c0.1-0.3,0.4-0.7,0.8-0.9
							c0.4-0.2,0.8-0.2,1.1-0.2C24.4,67.4,24.8,67.7,24.8,67.8z"/>
					</g>
					<g>
						<path class="st1" d="M28.1,73.8c0,0,0.6-0.4,1.6-0.9c0.3-0.1,0.5-0.3,0.5-0.4c0-0.2-0.1-0.4-0.3-0.6c-0.4-0.4-0.7-0.9-1.1-1.4
							c-1.6-1.9-2.8-3.6-2.7-3.7c0.1-0.1,1.5,1.4,3.1,3.4c0.4,0.5,0.8,0.9,1.1,1.4c0.2,0.2,0.4,0.4,0.3,0.8c0,0.2-0.2,0.4-0.4,0.5
							C30,73,29.9,73,29.8,73.1C28.7,73.6,28.1,73.8,28.1,73.8z"/>
					</g>
					<g>
						<g>
							<g>
								<g>
									<g>
										<g>
											<g>
												<path class="st19" d="M17.4,71.4c-0.1,0-4.9,0.2-3.2,5.7c1.6,5.4,5.6,2.3,5.6,2.1C19.7,79.1,17.4,71.4,17.4,71.4z"/>
											</g>
										</g>
									</g>
								</g>
							</g>
						</g>
					</g>
					<g>
						<g>
							<g>
								<g>
									<g>
										<g>
											<g>
												<g>
													<path class="st24" d="M17.8,77.8c0,0-0.1,0.1-0.2,0.2c-0.1,0.1-0.3,0.3-0.6,0.3c-0.5,0-1.2-0.7-1.5-1.7
														c-0.2-0.5-0.2-1-0.2-1.5c0-0.5,0.1-0.8,0.4-1c0.2-0.2,0.4-0.1,0.5,0.1c0.1,0.1,0.1,0.2,0.1,0.2c0,0,0.1-0.1,0-0.3
														c-0.1-0.1-0.1-0.2-0.3-0.3c-0.1-0.1-0.3,0-0.5,0.1c-0.3,0.2-0.5,0.7-0.5,1.2c0,0.5,0,1.1,0.2,1.6
														c0.4,1.1,1.1,1.9,1.8,1.8c0.3,0,0.6-0.3,0.7-0.5C17.8,77.9,17.8,77.8,17.8,77.8z"/>
												</g>
											</g>
										</g>
									</g>
								</g>
							</g>
						</g>
					</g>
					<g>
						<path class="st1" d="M26.9,74.9c0.2-0.1,0.5,1.1,1.8,1.5c1.3,0.4,2.6-0.3,2.6-0.1c0,0.1-0.2,0.4-0.8,0.6
							c-0.6,0.2-1.4,0.4-2.2,0.2c-0.8-0.3-1.2-0.8-1.4-1.3C26.8,75.3,26.8,75,26.9,74.9z"/>
					</g>
				</g>
				<g>
					<g>
						<path class="st1" d="M32.7,53.6c-0.3-0.7-0.9-1.2-1.5-1.3c-0.1-0.2-0.1-0.4-0.2-0.6c-0.6-1.2-1.9-1.9-2.9-1.4
							c-0.4-0.9-1.3-1.5-2.2-1.5c-0.9,0.1-1.7,0.8-2.1,1.7c-1-0.5-2.3-0.2-3.1,0.7c-0.1,0.1-0.2,0.3-0.2,0.4c0,0.1,0,0.2,0.1,0.3
							c-0.5-0.5-1.1-0.6-1.7-0.4c-0.2,0.1-0.4,0.2-0.5,0.3c-0.5,0.3-0.9,0.8-1.1,1.4c-1.4,0-2.8,1.5-2.9,3.3c-1,0.5-1.7,1.9-1.7,3.2
							c-0.6,0.3-1.1,1.2-1.2,2c-0.1,0.9,0.2,1.8,0.8,2.3c0,0-2.1,1.6-0.8,3.8c0.6,1.1,1.9,0.4,1.9,0.4l3.9,7.3c0,0.1,0.7,0.8,1,0.4
							c0.3-0.4,0.4-1,0.5-1.5c0.1-0.6,0.3-1.2,0.2-1.9c0-0.6-0.4-1.3-0.9-1.4c0.5-0.5,0.7-1.3,0.6-2.1c-0.1-0.8-0.4-1.4-0.7-2.1
							c-0.4-1-0.9-2-1.3-3c1.1-0.5,2-1.9,2.1-3.4c1,0.4,2.3-0.6,2.4-1.9c0.8,1.3,2.4,1.6,3.4,0.6c0.1,0.9,1.5,1.1,2.2,1.1
							c0.7-0.1,1.4-1,1.4-1s0.8,0.2,1.4,0c0,0,0,0,0,0c0,0,0,0,0,0c0,0,0,0,0.1,0c0.9-0.3,1.5-1.7,1.7-2.8c0.2-0.1,0.5-0.2,0.7-0.4
							C32.8,55.8,33.1,54.5,32.7,53.6z"/>
					</g>
				</g>
			</g>
			<g>
				<g>
					<path class="st26" d="M27.6,52.2c0,0,0,0,0.1,0.1c0.1,0.1,0.2,0.2,0.3,0.4c0.1,0.2,0.2,0.5,0.2,0.8c0,0.3,0,0.7-0.1,1.2
						c-0.1,0.4-0.4,0.8-0.8,1c-0.4,0.2-0.8,0.3-1.3,0.2c-0.2-0.1-0.4-0.2-0.6-0.4c-0.1-0.1-0.2-0.2-0.3-0.3C25.1,55.1,25,55,25,54.8
						c0-0.2,0.1-0.3,0.2-0.5c0.1-0.1,0.2-0.2,0.4-0.2c0.1,0,0.3,0,0.4,0c0.1,0,0.3,0.1,0.4,0.2c0.5,0.4,0.7,1,0.7,1.7
						c0,0.6-0.3,1.2-0.7,1.6c-0.4,0.4-0.8,0.6-1.2,0.6c-0.4,0.1-0.8,0-1.1-0.1c-0.7-0.2-1.2-0.5-1.5-0.7c-0.2-0.1-0.3-0.2-0.4-0.2
						c-0.1-0.1-0.1-0.1-0.1-0.1c0,0,0.1,0,0.1,0.1c0.1,0.1,0.2,0.1,0.4,0.2c0.3,0.2,0.9,0.5,1.5,0.6c0.3,0.1,0.7,0.1,1.1,0
						c0.4-0.1,0.8-0.2,1.1-0.6c0.3-0.3,0.6-0.9,0.6-1.5c0-0.6-0.2-1.2-0.6-1.6c-0.1-0.1-0.2-0.1-0.3-0.2c-0.1,0-0.2,0-0.4,0
						c-0.1,0-0.2,0.1-0.3,0.2c-0.1,0.1-0.1,0.2-0.1,0.4c0,0.3,0.2,0.5,0.4,0.7c0.2,0.2,0.4,0.3,0.6,0.3c0.4,0.1,0.9,0,1.2-0.2
						c0.4-0.2,0.6-0.6,0.7-1c0.1-0.4,0.2-0.8,0.1-1.1c0-0.3-0.1-0.6-0.2-0.8C27.8,52.3,27.6,52.2,27.6,52.2z"/>
				</g>
			</g>
		</g>
		<g>
			<g>
				<g>
					<path class="st19" d="M8,111.7c0,0-1.9,8.7-2.3,10.8c-0.4,2.1-0.4,7.1,0.5,8.5c1,1.5,4.1,2.4,4.1,2.4s6.2-3.8,8.4-8.5
						c2.1-4.7,7.9-17.3,7.9-17.3l-1.8-6.3L15.1,113l0.1-1.5L8,111.7z"/>
				</g>
			</g>
			<g>
				<g>
					<path class="st12" d="M28.2,81.5L28.2,81.5c0.3-0.2,0.7,0,0.9,0.4l5.6,13.9l-1.4,0.8l-5.4-13.9C27.7,82.2,27.9,81.7,28.2,81.5z
						"/>
				</g>
			</g>
			<g>
				<g>
					<path class="st19" d="M24.5,101.8l5.2-6.7h5l3.2,5.3c0,0-1.5,0.4-2.1-0.7l-0.7-1.3c0,0,0.7,1.9,0.3,2.9c0,0-0.7,2.2-0.9,2.4
						c-0.2,0.4-0.4,0.7-1.1,0.6c-0.7-0.1-1.7-0.8-1.6-1.3c0.1-0.5,0.5-0.5,0.5-0.5l-1.5-0.3c0,0-1.5,3.5-2.5,4.3
						c-0.9,0.8-1.9,1.2-1.9,1.2L24.5,101.8z"/>
				</g>
			</g>
			<g>
				<g>
					<g>
						<path class="st24" d="M15.3,112.8c0,0-0.4,0.3-1.1,0.8c-0.7,0.5-1.5,1.2-2.4,2.2c-0.9,1-1.6,2-2,2.8c-0.5,0.8-0.7,1.3-0.7,1.3
							c0,0,0-0.1,0.1-0.4c0.1-0.2,0.3-0.6,0.5-1c0.4-0.8,1.1-1.8,2-2.8c0.9-1,1.8-1.7,2.5-2.2c0.3-0.2,0.6-0.4,0.8-0.5
							C15.2,112.8,15.3,112.8,15.3,112.8z"/>
					</g>
				</g>
			</g>
			<g>
				<g>
					<g>
						<path class="st24" d="M30.8,97c0,0,0.3-0.1,0.7-0.2c0.5-0.1,1.1-0.2,1.8-0.2c0.2,0,0.4,0,0.5,0c0.2,0,0.3,0.1,0.5,0.2
							c0.3,0.2,0.4,0.5,0.5,0.8c0.2,0.5,0.2,0.9,0.2,0.9c0,0-0.1-0.3-0.3-0.8c-0.1-0.2-0.3-0.5-0.5-0.7c-0.1-0.1-0.3-0.2-0.4-0.2
							c-0.2,0-0.3,0-0.5,0C32.6,96.9,32,97,31.6,97C31.1,97.1,30.8,97.1,30.8,97z"/>
					</g>
				</g>
			</g>
			<g>
				<g>
					<g>
						<path class="st24" d="M34.8,103.4c0,0,0-0.5,0-1.2c0-0.4-0.1-0.8-0.1-1.3c-0.1-0.5-0.2-1-0.6-1.3c-0.2-0.1-0.4-0.2-0.6-0.3
							c-0.2-0.1-0.4-0.1-0.6-0.2c-0.4-0.1-0.7-0.2-1-0.2c-0.6-0.1-1,0.1-1,0c0,0,0.1-0.1,0.3-0.1c0.2,0,0.4-0.1,0.7-0.1
							c0.3,0,0.7,0.1,1.1,0.2c0.2,0,0.4,0.1,0.6,0.2c0.2,0.1,0.4,0.1,0.7,0.3c0.2,0.2,0.4,0.4,0.5,0.7c0.1,0.3,0.1,0.5,0.2,0.8
							c0.1,0.5,0.1,1,0.1,1.3c0,0.4,0,0.7,0,0.9C34.8,103.3,34.8,103.4,34.8,103.4z"/>
					</g>
				</g>
			</g>
			<g>
				<g>
					<g>
						<path class="st24" d="M33,101.2c0,0,0.1,0.5,0.1,1.3l0,0.1l-0.1,0c-0.1,0-0.1,0-0.2,0c-0.3,0-0.6,0.2-0.7,0.4
							c-0.1,0.2-0.2,0.3-0.2,0.3c0,0,0-0.2,0.1-0.4c0.1-0.2,0.4-0.5,0.8-0.5c0.1,0,0.1,0,0.2,0l-0.1,0.1
							C32.9,101.7,32.9,101.2,33,101.2z"/>
					</g>
				</g>
			</g>
			<g>
				<g>
					<g>
						<path class="st24" d="M33,101.4c0,0.1-0.5,0-1-0.1c-0.6,0-1,0-1-0.1c0-0.1,0.5-0.2,1-0.1C32.6,101.2,33,101.3,33,101.4z"/>
					</g>
				</g>
			</g>
			<g>
				<g>
					<g>
						<path class="st24" d="M31.1,101.1c0,0,0,0.6-0.2,1.3c-0.2,0.7-0.6,1.2-0.6,1.1c0,0,0.2-0.5,0.4-1.2
							C30.9,101.6,31,101.1,31.1,101.1z"/>
					</g>
				</g>
			</g>
		</g>
		<g>
			<g>
				<path class="st19" d="M63.8,101.8c0,0,3.4-5.6,3.8-5.8c0.4-0.2,5.2-1.1,5.2-1.1s-0.2,1.9-1.6,2.4C70.2,97.7,69,98,69,98
					s0.4,3.7-0.3,5.1c-0.7,1.5-2,3.2-2,3.2L63.8,101.8z"/>
			</g>
			<g>
				<g>
					<path class="st24" d="M68.1,104c0,0,0.4-0.5,0.7-1.5c0.1-0.5,0.3-1.2,0.3-1.9c0-0.4,0-0.7,0-1.1c0-0.2,0-0.4-0.1-0.6
						c0-0.2-0.1-0.4,0-0.7c0-0.1,0.1-0.2,0.2-0.2c0.1-0.1,0.2-0.1,0.2-0.1c0.2-0.1,0.3-0.1,0.5-0.1c0.3-0.1,0.6-0.2,0.9-0.3
						c0.6-0.2,1-0.6,1.3-1c0.3-0.4,0.4-0.8,0.5-1.1c0.1-0.3,0.1-0.5,0.1-0.5c0,0,0,0,0,0.1c0,0.1,0,0.2-0.1,0.3
						c-0.1,0.3-0.2,0.7-0.5,1.2c-0.3,0.4-0.8,0.8-1.3,1c-0.3,0.1-0.6,0.2-0.9,0.3c-0.2,0-0.3,0.1-0.5,0.1c-0.1,0-0.2,0.1-0.2,0.1
						c-0.1,0-0.1,0.1-0.2,0.2c0,0.2,0,0.4,0,0.6c0,0.2,0.1,0.4,0.1,0.6c0,0.4,0,0.8,0,1.2c0,0.7-0.2,1.4-0.3,1.9
						c-0.2,0.5-0.4,0.9-0.5,1.2C68.2,103.7,68.2,103.8,68.1,104C68.1,103.9,68.1,104,68.1,104z"/>
				</g>
			</g>
		</g>
	</g>
</g>
<g>
	<g>
		<g>
			<path class="st1" d="M24.8,136.5h33.6c0.8,0,1.5-0.6,1.6-1.3l4.2-23c0.2-1-0.6-1.9-1.6-1.9H29c-0.8,0-1.5,0.6-1.6,1.3l-4.2,23
				C23,135.5,23.8,136.5,24.8,136.5z"/>
		</g>
	</g>
	<g>
		<g>
			<path class="st1" d="M7,134.3h19.5v2.2H5v-0.1C5,135.2,5.9,134.3,7,134.3z"/>
		</g>
	</g>
	<g>
		<g>
			<g>
				<path class="st12" d="M29.3,110.2c0,0-1.2,5.9-2.7,13.1c-1.4,7.2-2.6,13.1-2.5,13.1c0,0,1.2-5.9,2.7-13.1
					C28.2,116.1,29.4,110.2,29.3,110.2z"/>
			</g>
		</g>
	</g>
	<g>
		<g>
			<path class="st12" d="M44.8,123.7c0.1-0.5,0.5-0.8,1-0.9l-0.1,0c0.6-0.1,1.3,0.4,1.4,1.1c0,0.7-0.6,1.3-1.3,1.2
				C45.2,125.1,44.6,124.4,44.8,123.7z"/>
		</g>
	</g>
</g>
<rect x="3.5" y="136.8" transform="matrix(-1 -1.224647e-16 1.224647e-16 -1 140.7979 276.3071)" class="st27" width="133.7" height="2.7"/>
</svg>
