<?xml version="1.0" encoding="utf-8"?>
<!-- Generator: Adobe Illustrator 22.0.0, SVG Export Plug-In . SVG Version: 6.00 Build 0)  -->
<svg version="1.1" id="Layer_1" xmlns="http://www.w3.org/2000/svg" xmlns:xlink="http://www.w3.org/1999/xlink" x="0px" y="0px"
	 viewBox="0 0 144 144" style="enable-background:new 0 0 144 144;" xml:space="preserve">
<style type="text/css">
	.st0{fill:#E6E7E8;}
	.st1{fill:#6D6E71;}
	.st2{fill:#009447;}
	.st3{fill:#3BB54A;}
	.st4{fill:url(#SVGID_1_);}
	.st5{fill:url(#SVGID_2_);}
	.st6{fill:url(#SVGID_3_);}
	.st7{fill:url(#SVGID_4_);}
	.st8{fill:#FFFFFF;}
	.st9{fill:#E62854;}
	.st10{fill:#58595B;stroke:#D2D3D4;stroke-miterlimit:10;}
	.st11{fill:#F5333F;}
	.st12{fill:#EEBE9D;}
	.st13{fill:#010101;}
	.st14{fill:#DE623C;}
	.st15{fill:#201D3F;}
	.st16{fill:#263238;}
	.st17{fill:#455B64;}
	.st18{fill:#C51F4B;}
	.st19{fill:#4C66AF;}
	.st20{fill:#F37B51;}
	.st21{fill:#8B294D;}
	.st22{fill:#2E3652;}
	.st23{fill:#333333;}
	.st24{fill:#E8996F;}
	.st25{fill:#2D2958;}
	.st26{fill:#476EB5;}
	.st27{fill:#2E3192;}
	.st28{fill:#565A95;}
</style>
<g>
	<path class="st0" d="M12.9,130.2c-8.9-6.9-11.7-21.6-5.9-31.7c1.8-3.2,4.4-6.1,4.8-9.8c-0.4-10-7.8-16.9,1-26.4
		c6.5-7.8,17.6-6.1,25-11.7c7-7.9,14.3-20.9,26.3-20.7c22.9,0.5,17,8.3,32.1,12.3c4.3,1.1,13,0.4,22.6,1.9
		c15.5,2.4,13.8,22.9,13.1,34.7c0.5,18.7,8.5,14.8,9.3,28.3c0.7,11.8-8.8,20.4-16.4,25.2C124.7,132.1,12.9,130.2,12.9,130.2z"/>
	<ellipse class="st1" cx="77.3" cy="132.6" rx="60.6" ry="7.7"/>
	<g>
		<path class="st2" d="M19,91.7c0,0-0.7,4.3,4.9,9.6c5.6,5.3,6.7,10.1,6.7,10.1l3.9,1.4c0,0-2-7.1-6.8-11.2
			C21.8,96.5,19,91.7,19,91.7z"/>
		<path class="st2" d="M11.1,97c0,0,0.6,3.2,5.7,6c5.2,2.9,7.1,6.1,7.1,6.1l3.2,1c0,0-3.2-5.4-7.5-7.5C14.2,99.9,11.1,97,11.1,97z"
			/>
		<path class="st2" d="M28,96.2c0,0,3.4,0.9,7.9,7.7c3.7,5.6,3.5,9.3,5.8,12.8l-5.3-2.7c-1.2-2.6-0.2-5-3.3-10.2
			C30.1,98.9,28,96.2,28,96.2z"/>
		<path class="st2" d="M60.4,109.9c0,0,2.3,2.6,2.2,10.8c-0.1,6.7-2.8,8.6-2.9,10.2l-2.4-2.5c0.8-2.9,2.7-3.3,3.1-9.4
			C60.7,113.4,60.4,109.9,60.4,109.9z"/>
		<path class="st2" d="M35.9,98.6c0,0,3.8,4.6,5.5,7.8c2.4,4.6,1.5,7.9,3.6,12.7l3.9,2.2c0,0,0.4-6.1-2.8-11.6
			C40.7,100.5,35.9,98.6,35.9,98.6z"/>
		<path class="st2" d="M46.1,97.6c0.6,3.3,1.8,6.5,3.3,9.5c4.8,9,2.5,18,2.5,18l2.7,1.1c0,0,4.2-7.3,0-14.7
			C50.1,103.7,46.1,97.6,46.1,97.6z"/>
		<path class="st2" d="M36.7,114.6c0,0-2.5,0.1-11.4,4.7c-5.7,3-4.8,0.1-9.7,3.9c4.4-1.2,7,1.3,12.5-1.2c4.3-2,8.8-3.6,13.4-4.9
			L36.7,114.6z"/>
		<path class="st2" d="M21,127.5c0,0,5.4,3.2,13.4-0.5c4.9-2.3,10.2-3.7,15.6-4.3l-4-3.2c0,0-4.3-1.2-12.3,3.5
			C28.2,126.2,21,127.5,21,127.5z"/>
		<path class="st2" d="M28.9,133.4c0,0,5.4,3.2,13.4-0.5c4.9-2.3,10.2-3.7,15.6-4.3l-4-3.2c0,0-4.3-1.2-12.3,3.5
			C36.1,132.1,28.9,133.4,28.9,133.4z"/>
		<path class="st2" d="M9.5,114.6c0,0,3.5,1.4,8.5-1.1c5-2.6,9.3-2.9,9.3-2.9l-2.1-1c0,0-2.7-0.7-7.8,2.2
			C14.1,113.8,9.5,114.6,9.5,114.6z"/>
		<path class="st2" d="M30.5,112.3c0,0-4.2,1.1-10,3.9c-3.6,1.7-9.5,1.4-9.5,1.4s5.9,3.9,11.2,1c6.1-3.4,12.8-4.9,12.8-4.9
			L30.5,112.3z"/>
		<path class="st2" d="M25.9,110c0,0-5.4-4-11.4-2.9c-3.6,0.6-7.3,0.6-10.8,0c0,0,5.2,4.3,10.6,2.7c5-1.5,9.6,0.5,9.6,0.5L25.9,110z
			"/>
		<path class="st2" d="M59.3,131.2l0.7-0.7c-4.2-4.4-20.4-17.7-36-21.5l-0.2,1C39.1,113.8,55.2,126.9,59.3,131.2z"/>
	</g>
	<g>
		<path class="st3" d="M122.3,82.9c0,0,3.1,3.3,1.5,10.9c-1.6,7.8,0.2,12.5,0.2,12.5l-2.4,3.4c0,0-2.5-7.2-0.9-13.4
			C122.7,88.6,122.3,82.9,122.3,82.9z"/>
		<path class="st3" d="M132.1,82.7c0,0,1.4,3-1.3,8.4c-2.7,5.5-2.4,9.3-2.4,9.3l-2.1,2.7c0,0-0.5-6.4,1.9-10.7
			C131.2,87,132.1,82.7,132.1,82.7z"/>
		<path class="st3" d="M117.4,91.9c0,0-2.3,2.7-2.1,11.1c0.2,6.9,2.5,9.9,2.6,14.1l2.9-5.3c-0.5-2.9-2.8-4.3-3.2-10.5
			C117.1,95.5,117.4,91.9,117.4,91.9z"/>
		<path class="st3" d="M98.1,122.5c0,0-0.4,3.5,4.5,10.4c4,5.6,7.4,5.6,8.4,6.9l0.6-3.5c-2.3-2-4.2-1.2-8.1-6.1
			C99.9,125.6,98.1,122.5,98.1,122.5z"/>
		<path class="st3" d="M112,98.6c0,0-0.5,6.1,0,9.8c0.7,5.3,3.4,7.5,4.4,12.8l-1.9,4.1c0,0-3.9-4.9-4.4-11.4
			C109.1,103,112,98.6,112,98.6z"/>
		<path class="st3" d="M103,103.7c1.4,3.2,2.3,6.5,2.8,9.9c1.2,10.4,8.5,16.6,8.5,16.6l-1.6,2.5c0,0-7.8-3.7-8.6-12.4
			C103.1,111.1,103,103.7,103,103.7z"/>
		<path class="st3" d="M120.8,112.6c0,0,2.2-1.4,12.3-2.7c6.5-0.8,4.1-2.7,10.5-2.4c-4.4,1.5-5.1,5.2-11.2,6.3
			c-4.8,0.9-9.6,2.1-14.2,3.7L120.8,112.6z"/>
		<path class="st3" d="M141.5,114.2c0,0-2.6,5.8-11.5,7.4c-5.5,1-10.8,2.9-15.6,5.5l1.5-5.1c0,0,3-3.5,12.4-4.3
			C134.7,117.3,141.5,114.2,141.5,114.2z"/>
		<path class="st3" d="M138.4,123.8c0,0-2.6,5.8-11.5,7.4c-5.5,1-10.8,2.9-15.6,5.5l1.5-5.1c0,0,3-3.5,12.4-4.3
			C131.6,126.9,138.4,123.8,138.4,123.8z"/>
		<path class="st3" d="M143.7,96.6c0,0-2.2,3.2-7.8,4c-5.7,0.8-9.5,3-9.5,3l1.2-2c0,0,1.9-2.2,7.8-2.7
			C139.4,98.6,143.7,96.6,143.7,96.6z"/>
		<path class="st3" d="M124.6,106.9c0,0,4.2-1.5,10.7-2.6c4.1-0.7,8.8-4.4,8.8-4.4s-2.7,6.7-8.8,7.4c-7.1,0.7-13.6,3.3-13.6,3.3
			L124.6,106.9z"/>
		<path class="st3" d="M127.2,102.4c0,0,2.2-6.5,7.9-9.1c3.4-1.6,6.5-3.7,9.1-6.3c0,0-1.9,6.6-7.4,8.5c-5.1,1.7-7.8,6-7.8,6
			L127.2,102.4z"/>
		<path class="st3" d="M111.5,139.7l-1-0.1c0.9-6.1,6.8-26.8,17.8-39.1l0.8,0.7C118.3,113.3,112.4,133.7,111.5,139.7z"/>
	</g>
	<g>
		<g>
			<g>
				<linearGradient id="SVGID_1_" gradientUnits="userSpaceOnUse" x1="103.3033" y1="61.4941" x2="131.5554" y2="61.4941">
					<stop  offset="0" style="stop-color:#FFF33B"/>
					<stop  offset="5.948725e-02" style="stop-color:#FFE029"/>
					<stop  offset="0.1303" style="stop-color:#FFD218"/>
					<stop  offset="0.2032" style="stop-color:#FEC90F"/>
					<stop  offset="0.2809" style="stop-color:#FDC70C"/>
					<stop  offset="0.6685" style="stop-color:#F3903F"/>
					<stop  offset="0.8876" style="stop-color:#ED683C"/>
					<stop  offset="1" style="stop-color:#E93E3A"/>
				</linearGradient>
				<path class="st4" d="M126,76c6.9-6.4,7.4-17.1,1.1-23.8c-6.3-6.7-17-6.9-23.9-0.5L126,76z"/>
				<linearGradient id="SVGID_2_" gradientUnits="userSpaceOnUse" x1="104.5616" y1="66.0402" x2="120.7063" y2="66.0402">
					<stop  offset="0" style="stop-color:#FFF33B"/>
					<stop  offset="5.948725e-02" style="stop-color:#FFE029"/>
					<stop  offset="0.1303" style="stop-color:#FFD218"/>
					<stop  offset="0.2032" style="stop-color:#FEC90F"/>
					<stop  offset="0.2809" style="stop-color:#FDC70C"/>
					<stop  offset="0.6685" style="stop-color:#F3903F"/>
					<stop  offset="0.8876" style="stop-color:#ED683C"/>
					<stop  offset="1" style="stop-color:#E93E3A"/>
				</linearGradient>
				<polygon class="st5" points="116.3,74.3 104.6,62 109,57.8 120.7,70.1 				"/>
			</g>
			<g>
				<linearGradient id="SVGID_3_" gradientUnits="userSpaceOnUse" x1="40.3725" y1="61.4941" x2="68.6247" y2="61.4941">
					<stop  offset="0" style="stop-color:#FFF33B"/>
					<stop  offset="5.948725e-02" style="stop-color:#FFE029"/>
					<stop  offset="0.1303" style="stop-color:#FFD218"/>
					<stop  offset="0.2032" style="stop-color:#FEC90F"/>
					<stop  offset="0.2809" style="stop-color:#FDC70C"/>
					<stop  offset="0.6685" style="stop-color:#F3903F"/>
					<stop  offset="0.8876" style="stop-color:#ED683C"/>
					<stop  offset="1" style="stop-color:#E93E3A"/>
				</linearGradient>
				<path class="st6" d="M45.9,76c-6.9-6.4-7.4-17.1-1.1-23.8c6.3-6.7,17-6.9,23.9-0.5L45.9,76z"/>
				<linearGradient id="SVGID_4_" gradientUnits="userSpaceOnUse" x1="51.2217" y1="66.0402" x2="67.3664" y2="66.0402">
					<stop  offset="0" style="stop-color:#FFF33B"/>
					<stop  offset="5.948725e-02" style="stop-color:#FFE029"/>
					<stop  offset="0.1303" style="stop-color:#FFD218"/>
					<stop  offset="0.2032" style="stop-color:#FEC90F"/>
					<stop  offset="0.2809" style="stop-color:#FDC70C"/>
					<stop  offset="0.6685" style="stop-color:#F3903F"/>
					<stop  offset="0.8876" style="stop-color:#ED683C"/>
					<stop  offset="1" style="stop-color:#E93E3A"/>
				</linearGradient>
				<polygon class="st7" points="55.7,74.3 67.4,62 62.9,57.8 51.2,70.1 				"/>
			</g>
			<ellipse class="st8" cx="85.9" cy="95.2" rx="33.1" ry="33.1"/>
			<g>
				<g>
					<g>
						<path class="st9" d="M85.9,59.4c-1,0-1.9,0.8-1.9,1.9v4.4c0,1,0.8,1.9,1.9,1.9c1,0,1.9-0.8,1.9-1.9v-4.4
							C87.7,60.3,86.9,59.4,85.9,59.4z"/>
					</g>
				</g>
				<g>
					<g>
						<path class="st9" d="M68.1,64.6c-0.9,0.5-1.2,1.6-0.7,2.5l2.2,3.8c0.5,0.9,1.6,1.2,2.5,0.7c0.9-0.5,1.2-1.6,0.7-2.5l-2.2-3.8
							C70.1,64.4,69,64,68.1,64.6z"/>
					</g>
				</g>
				<g>
					<g>
						<path class="st9" d="M55.1,77.7c-0.5,0.9-0.2,2,0.7,2.5l3.8,2.2c0.9,0.5,2,0.2,2.5-0.7c0.5-0.9,0.2-2-0.7-2.5L57.7,77
							C56.8,76.5,55.7,76.8,55.1,77.7z"/>
					</g>
				</g>
				<g>
					<g>
						<path class="st9" d="M50.5,95.5c0,1,0.8,1.9,1.9,1.9h4.4c1,0,1.9-0.8,1.9-1.9s-0.8-1.9-1.9-1.9h-4.4
							C51.3,93.6,50.5,94.5,50.5,95.5z"/>
					</g>
				</g>
				<g>
					<g>
						<path class="st9" d="M55.3,113.3c0.5,0.9,1.6,1.2,2.5,0.7l3.8-2.2c0.9-0.5,1.2-1.6,0.7-2.5c-0.5-0.9-1.6-1.2-2.5-0.7l-3.8,2.2
							C55.1,111.2,54.8,112.4,55.3,113.3z"/>
					</g>
				</g>
				<g>
					<g>
						<path class="st9" d="M68.5,126.2c0.9,0.5,2,0.2,2.5-0.7l2.2-3.8c0.5-0.9,0.2-2-0.7-2.5c-0.9-0.5-2-0.2-2.5,0.7l-2.2,3.8
							C67.3,124.6,67.6,125.7,68.5,126.2z"/>
					</g>
				</g>
				<g>
					<g>
						<path class="st9" d="M86.3,130.9c1,0,1.9-0.8,1.9-1.9v-4.4c0-1-0.8-1.9-1.9-1.9c-1,0-1.9,0.8-1.9,1.9v4.4
							C84.4,130.1,85.3,130.9,86.3,130.9z"/>
					</g>
				</g>
				<g>
					<g>
						<path class="st9" d="M104.1,126c0.9-0.5,1.2-1.6,0.7-2.5l-2.2-3.8c-0.5-0.9-1.6-1.2-2.5-0.7c-0.9,0.5-1.2,1.6-0.7,2.5l2.2,3.8
							C102,126.2,103.2,126.5,104.1,126z"/>
					</g>
				</g>
				<g>
					<g>
						<path class="st9" d="M117,112.9c0.5-0.9,0.2-2-0.7-2.5l-3.8-2.2c-0.9-0.5-2-0.2-2.5,0.7c-0.5,0.9-0.2,2,0.7,2.5l3.8,2.2
							C115.4,114.1,116.5,113.8,117,112.9z"/>
					</g>
				</g>
				<g>
					<g>
						<path class="st9" d="M121.7,94.8c0-1-0.8-1.9-1.9-1.9h-4.4c-1,0-1.9,0.8-1.9,1.9c0,1,0.8,1.9,1.9,1.9h4.4
							C120.9,96.7,121.7,95.9,121.7,94.8z"/>
					</g>
				</g>
				<g>
					<g>
						<path class="st9" d="M116.8,77.1c-0.5-0.9-1.6-1.2-2.5-0.7l-3.8,2.2c-0.9,0.5-1.2,1.6-0.7,2.5c0.5,0.9,1.6,1.2,2.5,0.7
							l3.8-2.2C117,79.1,117.3,78,116.8,77.1z"/>
					</g>
				</g>
				<g>
					<g>
						<path class="st9" d="M103.7,64.1c-0.9-0.5-2-0.2-2.5,0.7L99,68.6c-0.5,0.9-0.2,2,0.7,2.5c0.9,0.5,2,0.2,2.5-0.7l2.2-3.8
							C104.9,65.8,104.6,64.6,103.7,64.1z"/>
					</g>
				</g>
			</g>
			<g>
				
					<ellipse transform="matrix(0.9493 -0.3144 0.3144 0.9493 -23.5218 30.0223)" class="st10" cx="81.3" cy="87.9" rx="2.5" ry="9.9"/>
				<path class="st10" d="M97.3,96.4c-6.9,1.7-12.8,2-13.1,0.6c-0.3-1.4,5-3.8,11.9-5.5c6.9-1.7,12.8-2,13.1-0.6
					C109.6,92.3,104.2,94.8,97.3,96.4z"/>
				<path class="st10" d="M82.5,94.8c-1.2,1.2-1.1,3.2,0.1,4.3c1.2,1.2,3.2,1.1,4.4-0.1c1.2-1.2,1.1-3.2-0.1-4.3
					C85.6,93.5,83.7,93.6,82.5,94.8z"/>
				<path class="st10" d="M83.4,95.7c-0.7,0.7-0.7,1.8,0.1,2.5c0.7,0.7,1.8,0.7,2.5-0.1c0.7-0.7,0.7-1.8-0.1-2.5
					C85.2,95,84.1,95,83.4,95.7z"/>
			</g>
			<path class="st11" d="M113.3,67.8c-15.2-15.2-39.8-15.2-54.9,0c-15.2,15.2-15.2,39.7,0,54.9c15.2,15.2,39.8,15.2,54.9,0
				C128.5,107.5,128.5,82.9,113.3,67.8z M109.3,118.6c-12.9,12.9-33.9,12.9-46.9,0c-12.9-12.9-12.9-33.9,0-46.8
				c12.9-12.9,33.9-12.9,46.9,0C122.2,84.7,122.2,105.7,109.3,118.6z"/>
		</g>
		<g>
			<path class="st8" d="M45.9,72.9c-0.3,0-0.6-0.1-0.7-0.4c-2.5-4.1-3.2-8-2.3-11.7c1.5-5.8,6.7-8.9,6.9-9c0.4-0.2,0.9-0.1,1.2,0.3
				c0.2,0.4,0.1,0.9-0.3,1.2c-0.1,0-4.8,2.9-6.1,8c-0.8,3.2-0.1,6.7,2.1,10.4c0.2,0.4,0.1,0.9-0.3,1.2
				C46.2,72.9,46.1,72.9,45.9,72.9z"/>
		</g>
		<g>
			<path class="st8" d="M126.7,70.2c0.3,0,0.5-0.2,0.6-0.4c2-3.7,2.5-7.3,1.5-10.6c-1.6-5.2-6.4-7.7-6.6-7.8c-0.4-0.2-0.8,0-1,0.3
				c-0.2,0.4,0,0.8,0.3,1c0.1,0,4.4,2.4,5.8,6.9c0.9,2.9,0.4,6-1.4,9.4c-0.2,0.4-0.1,0.8,0.3,1C126.5,70.2,126.6,70.2,126.7,70.2z"
				/>
		</g>
	</g>
	<g id="c_1_">
		<g>
			<polygon id="v-2_1_" class="st12" points="23.6,47.6 23.6,47.6 26.3,47.6 27,54.1 23.8,55.8 20.4,54.1 20.9,47.6 			"/>
			<g>
				
					<ellipse transform="matrix(0.9894 -0.1455 0.1455 0.9894 -5.8977 3.9767)" class="st12" cx="24.2" cy="42.3" rx="6.5" ry="8.2"/>
				<path class="st13" d="M28.9,42.4c0.1,0.3,0.5,0.5,0.8,0.4c0.3-0.1,0.5-0.5,0.4-0.8c-0.1-0.3-0.5-0.5-0.8-0.4
					C28.9,41.7,28.8,42.1,28.9,42.4z"/>
				<path class="st13" d="M23.9,43.1c0.1,0.3,0.5,0.5,0.9,0.4c0.3-0.1,0.5-0.5,0.4-0.9c-0.1-0.3-0.5-0.5-0.9-0.4
					C24,42.4,23.8,42.8,23.9,43.1z"/>
				<path class="st14" d="M27.8,43.1c0.7,0.8,1.5,1.9,1.5,1.9s-0.2,1-1.5,1.1c0.5-0.3,1-0.7,0.7-1.4C28.2,44.1,27.8,43.1,27.8,43.1z
					"/>
				<g>
					<path class="st15" d="M22.8,42.5C22.8,42.5,22.8,42.4,22.8,42.5c-0.2-0.1-0.3-0.3-0.2-0.4c0.2-0.4,0.9-1.1,1.8-0.9
						c0.2,0,0.3,0.2,0.2,0.4c0,0.2-0.2,0.3-0.4,0.2c-0.7-0.2-1.1,0.6-1.1,0.6C23.1,42.4,23,42.5,22.8,42.5z"/>
				</g>
				<g>
					<path class="st15" d="M28.6,40.9c0,0-0.1,0-0.1-0.1c-0.1-0.1-0.1-0.3,0-0.4c0,0,0.4-0.4,0.9-0.4c0.4,0,0.7,0.2,1,0.6
						c0.1,0.1,0.1,0.3,0,0.4c-0.1,0.1-0.3,0.1-0.4,0c-0.2-0.2-0.4-0.4-0.6-0.4c-0.3,0-0.5,0.2-0.5,0.2C28.8,40.9,28.7,41,28.6,40.9z
						"/>
				</g>
				<path class="st16" d="M16.3,39.6c-0.4-4.3,3.5-5.7,3.5-5.7s-0.9-0.3-0.7-1.6c0.6,0.4,1.4,0.5,2.1,0.5c4.9-0.6,8,0.2,7.5,2.1
					c-0.2,0.7,3,0.9,1.7,5.5c-0.1-0.3-0.6-2.5-1.6-2.9c-1-0.4-0.4,1.1-2.5,0.9c-2.2-0.2-3.6-1.1-5.2-0.2c-1.3,0.8-3.1,6.7-2.8,6.9
					C17.4,44.4,16.5,41.5,16.3,39.6z"/>
				<path class="st15" d="M30.7,43.8c0,0-0.4,2.5-0.9,3.1c-0.1-1.1-1.1-0.2-1.9-0.3c-1.8-0.2-4.8-1.5-5.8,1
					c-2.3,0.2-3.7-4.7-3.7-4.7c-1.4,5.1,2.1,8.7,7.8,9.1C29.9,52.4,31.4,47.5,30.7,43.8z"/>
				<g>
					<path class="st12" d="M19.3,42.4c0.8,0.7,0.9,1.8,0.3,2.5c-0.6,0.6-1.7,0.6-2.5-0.2c-0.8-0.7-0.9-1.8-0.3-2.5
						C17.4,41.6,18.5,41.7,19.3,42.4z"/>
					<g>
						<path class="st14" d="M18.6,44.6C18.7,44.6,18.7,44.6,18.6,44.6c0.4-0.5,0.5-0.9,0.3-1.3c-0.2-0.4-0.7-0.6-1.2-0.5
							c-0.1,0-0.2,0.2-0.2,0.3c0,0.1,0.2,0.2,0.3,0.2c0.2-0.1,0.5,0.1,0.7,0.3c0.1,0.2,0.1,0.5-0.1,0.7c-0.1,0.1-0.1,0.2,0,0.3
							C18.5,44.6,18.5,44.6,18.6,44.6z"/>
					</g>
				</g>
				<path class="st8" d="M28.7,47.8c0.1-0.1,0-0.3-0.2-0.3c-0.5,0-1.2,0-1.9,0c-0.7,0-1.5-0.2-1.9-0.3c-0.2,0-0.3,0.2-0.2,0.3
					c0.3,0.5,0.9,1.2,2,1.3C27.6,48.9,28.3,48.3,28.7,47.8z"/>
			</g>
		</g>
		<path class="st13" d="M28.6,132.3c2.4,3.3,8.4,1.3,8.2,5.8c-9-0.1-12.8,0-12.8,0c0-1,0.2-3.5,0.4-4.5L28.6,132.3z"/>
		<path class="st13" d="M15.1,132.3c2.4,3.3,8.4,1.3,8.2,5.8c-9-0.1-12.8,0-12.8,0c0-1,0.2-3.5,0.4-4.5L15.1,132.3z"/>
		<path class="st16" d="M32.8,81.2c0,0,1.5,21.4,0.9,26.2c-0.6,4.8-2.7,10.9-2.5,26.6c-2.9,0.7-7.2,0-7.2,0s-0.6-17.8,2.5-25.8
			c-1.3-7.7-5.3-25.4-5.3-25.4L32.8,81.2z"/>
		<path class="st17" d="M27.2,81.8c0,0-3,24.1-4.4,28.6c-1.5,4.6-2.7,7.9-5.3,23.4c-3,0.2-7.4,0.1-7.4,0.1s0.4-19.2,5.1-23.7
			c0.2-7.8-0.8-28.2-0.8-28.2L27.2,81.8z"/>
		<g id="v_1_">
			<path id="h-5_1_" class="st9" d="M13.5,54.5c0,0,5.2-1.8,6.9-1c5.3,2.6,6.6,0,6.6,0c1.7,0.1,6.9,1,6.9,1c0,5.8,0.4,11.5,0.3,15.9
				c-0.1,3.8,0.6,14.1,0.6,14.1S29.1,86,23.7,86c-5.4,0-10.8-1.5-10.8-1.5s0.3-10.4,0.5-14.3C13.3,65.9,13.5,60.2,13.5,54.5z"/>
		</g>
		<g id="c_9_">
			<path id="c_10_" class="st18" d="M43,63.1c-2.1-5.1-8.4-8.3-9.2-8.5L32.4,61c3,1.8,5.2,3.7,5.2,3.7c-0.4,1.8-0.3,3.6-1.4,5.9
				c0,0,0.9-1.3,2-0.5c1.1,0.7,3.1-0.8,3.1-0.8S44.6,66.9,43,63.1z"/>
		</g>
		<g id="c_2_">
			<g id="c_5_">
				<g id="c_6_">
					<path id="c_8_" class="st16" d="M41.8,75.9c0,0,0.1,0,0.1,0H42c0.2,0,0.4-0.2,0.5-0.4l5.7-18.3c0,0,0-0.1,0-0.1c0,0,0,0,0-0.1
						c0,0,0,0,0,0c0,0,0,0,0,0c0-0.2-0.2-0.4-0.4-0.5c0,0-0.1,0-0.1,0c0,0-0.1,0-0.1,0H33.3l-5.7,19.4L41.8,75.9L41.8,75.9z"/>
					<path id="c_7_" class="st19" d="M33.4,56.5c-0.3-0.1-0.6,0.1-0.7,0.4l-5.6,18.2l0,0c-0.1,0.3,0.1,0.6,0.4,0.7l0,0
						c0.3,0.1,0.6-0.1,0.7-0.4l5.6-18.3C33.9,56.9,33.7,56.6,33.4,56.5z"/>
				</g>
			</g>
			<path id="c_4_" class="st20" d="M44.2,68.1c0.1,0,0.1-0.1,0.2-0.1c0,0,0,0,0,0c-0.4-0.5-0.3-1.2,0.1-1.4c0.1,0,0.1-0.1,0.2-0.1
				c-0.1-0.4,0-0.8,0.3-1c0.1-0.1,0.2-0.1,0.4-0.1c-0.1-0.4,0-0.8,0.3-1c0.4-0.3,0.9-0.1,1.2,0.4c0.3,0.5,0.2,1-0.1,1.3
				c-0.1,0.1-0.2,0.1-0.3,0.1c0.3,0.5,0.2,1-0.1,1.3c-0.1,0-0.1,0.1-0.2,0.1c0.1,0.4,0,0.8-0.3,1c-0.1,0.1-0.2,0.1-0.3,0.1
				c0.1,0.3,0,0.7-0.2,0.9c-0.3,0.2-0.8,0.1-1.1-0.3C43.8,68.8,43.9,68.3,44.2,68.1z"/>
			<path class="st12" d="M26.7,66.9l1.3-0.8c0,0,0.4-1.8,2.4-1.9c-0.2,0.8-0.6,1.9-0.6,1.9s1,0.8,3.5-0.6c2.4-0.5,1.4,1.2,2.2,1.3
				c1.2,0.2-0.8,2.5-3.2,2.8c-3.1,0.5-3.4-0.2-3.4-0.2L27,70.2L26.7,66.9z"/>
			<path id="c_3_" class="st21" d="M13.4,69.1c4.3-0.3,13-2.6,13-2.6c1.2,1.8,0.9,4.2,0.9,4.2c-6.8,5.9-16.9,7.8-20,6.4
				c-2.8-1.3-0.8-18.6,6.3-22.6L13.4,69.1z"/>
		</g>
		<path class="st19" d="M36.3,59.3c-0.2,0.6-0.9,0.9-1.4,0.7c-0.5-0.2-0.8-0.9-0.5-1.5c0.2-0.6,0.9-0.9,1.4-0.7
			C36.4,58,36.6,58.7,36.3,59.3z"/>
		<path class="st19" d="M38.2,59.1c-0.1,0.4-0.5,0.6-0.8,0.4C37,59.4,36.9,59,37,58.6c0.1-0.4,0.5-0.6,0.8-0.4
			C38.2,58.3,38.3,58.7,38.2,59.1z"/>
	</g>
</g>
<path class="st22" d="M6.1,138.5h134.9c0.4,0,0.8,0.4,0.8,0.8v2.2c0,0.4-0.4,0.8-0.8,0.8H6.1c-0.4,0-0.8-0.4-0.8-0.8v-2.2
	C5.4,138.8,5.7,138.5,6.1,138.5z"/>
<g>
	<path class="st23" d="M84,22.5c0.8-3.3,0.3-6.3-2.1-8.2c-2.4-1.9-6-1-6-1l0,0c0,0-2.7-1.5-5.7,1c-3,2.4-1.5,5.2-2.9,7.1
		c-0.8,1.1-4,0.9-3.8,5c0.1,1.2,1.3,2.2,2.5,2.4c2,0.5,4.1,0,4.8,0.9c2.3,3.1,8.5,3.1,9.8,0.8c0.4-0.7,5.6,1.6,5.9-3.5
		C86.6,24.3,83.3,25.4,84,22.5z"/>
	<path class="st24" d="M107.9,71.1l1.7,2.2c0,0,1.5,1.8,3.2,0.8c1.7-0.9,0.8-3.7,0.8-3.7l-2.1-2.5L107.9,71.1z"/>
	<g>
		<g>
			<g>
				<path class="st13" d="M113.5,70.1c0,0,1.7-0.1,3.6-0.8c1-0.4,3.7-1.6,4.4,0.3c0.1,0.3,0.1,0.7-0.4,1.3c-0.7,0.9-1.8,1.9-4.5,2.9
					c-3.2,1.2-3.5,1.8-4.7,2.1c-1.3,0.4-1.8-1.4-2.4-2.8l0,0c0.2,0.3,1,1,3.4,0.5C113.7,73.4,111.5,71.2,113.5,70.1z"/>
			</g>
		</g>
	</g>
	<path class="st24" d="M94.7,79.5l0.1,1.5c0,0,0.2,2.3,2.1,2.5c1.9,0.2,2.8-2.5,2.8-2.5l-0.2-2.4L94.7,79.5z"/>
	<g>
		<path class="st18" d="M85.5,41.9c-0.9,0-2.6,3.5-2.5,3.8c2.4,2.4,11.1,2.2,11.1,2.2l1-1.1C95.2,46.8,89.9,44.6,85.5,41.9z"/>
		<path class="st21" d="M76.9,34.6c1,2.5,5.3,10.9,6.2,11.1l2.5-3.8c0,0-4.5-8.8-5.2-10.1C79,29.6,75.2,30.5,76.9,34.6z"/>
	</g>
	<path class="st24" d="M76.7,26.2c0,0,0.5,3.3,0.7,4.5L73.2,32c-0.7-3.7-1-8.3-1-8.3L76.7,26.2z"/>
	<g>
		<path class="st24" d="M71.9,21.6c0,4,2.5,7.2,5.6,7.2c3.1,0,5.7-3.2,5.7-7.2c0-4-2.5-7.2-5.6-7.2C74.5,14.4,71.9,17.6,71.9,21.6z"
			/>
		<path class="st13" d="M81.6,22.3c0.1,0.3,0.4,0.5,0.6,0.4c0.3-0.1,0.5-0.4,0.4-0.6c-0.1-0.3-0.4-0.5-0.6-0.4
			C81.7,21.7,81.5,22,81.6,22.3z"/>
		<path class="st13" d="M77.2,22.3c0.1,0.3,0.4,0.5,0.7,0.4c0.3-0.1,0.5-0.4,0.4-0.7c-0.1-0.3-0.4-0.5-0.7-0.4
			C77.3,21.7,77.1,22,77.2,22.3z"/>
		<g>
			<path class="st25" d="M76.7,21.7c0,0,0.1,0,0.1-0.1c0.4-0.5,1.2-0.5,1.2-0.5c0.1,0,0.2-0.1,0.2-0.2c0-0.1-0.1-0.2-0.2-0.2
				c0,0-1-0.1-1.6,0.6c-0.1,0.1-0.1,0.2,0,0.3C76.6,21.7,76.6,21.7,76.7,21.7z"/>
		</g>
		<g>
			<path class="st25" d="M82.9,21.8C82.9,21.8,83,21.8,82.9,21.8c0.2-0.1,0.2-0.2,0.1-0.3c-0.5-0.7-1.3-0.7-1.3-0.7
				c-0.1,0-0.2,0.1-0.2,0.2c0,0.1,0.1,0.2,0.2,0.2c0,0,0.6,0,0.9,0.5C82.7,21.8,82.8,21.8,82.9,21.8z"/>
		</g>
		<path class="st14" d="M81,23.3c0.2,0.4,0.4,0.7,0.6,1c0.1,0.1,0.1,0.2,0,0.3c-0.3,0.3-1.1,0.5-1.5,0.6c-0.1,0-0.1-0.1,0-0.1
			c0.5-0.3,0.7-0.5,0.8-0.6c0.1-0.1,0.1-0.1,0.1-0.2c0-0.2-0.1-0.6-0.2-0.9C80.8,23.3,80.9,23.3,81,23.3z"/>
		<path class="st16" d="M71.5,21.6c3.6,0.4,9.9-2.4,10.7-4.1c-0.1-2.4-3.5-4.4-5.8-3.8C74.1,14.2,70.6,18.5,71.5,21.6z"/>
		<g>
			<path class="st24" d="M73.2,21.4c0.7,0.8,0.7,2,0,2.5c-0.7,0.6-1.8,0.3-2.5-0.5c-0.7-0.8-0.7-2,0-2.5
				C71.4,20.4,72.5,20.6,73.2,21.4z"/>
			<g>
				<path class="st14" d="M72.2,23.5C72.2,23.5,72.3,23.5,72.2,23.5c0.5-0.4,0.7-0.9,0.5-1.3c-0.2-0.5-0.7-0.8-1.1-0.7
					c-0.1,0-0.2,0.1-0.2,0.3c0,0.1,0.1,0.2,0.3,0.2c0.3,0,0.5,0.2,0.6,0.4c0.1,0.2,0,0.5-0.3,0.7c-0.1,0.1-0.1,0.2,0,0.3
					C72,23.5,72.1,23.6,72.2,23.5z"/>
			</g>
		</g>
		<path class="st8" d="M80.8,26.5c0.1-0.1,0-0.3-0.1-0.3c-0.3,0-0.9,0-1.4-0.1c-0.5-0.1-1.1-0.2-1.4-0.3c-0.1,0-0.2,0.1-0.2,0.2
			c0.2,0.4,0.6,0.9,1.4,1.1C80,27.2,80.5,26.7,80.8,26.5z"/>
	</g>
	<path class="st26" d="M79.9,58.3l18.3-1.7c0,0,0.7-4.6-0.1-6.4c-0.8-1.8-17.6-0.6-17.6-0.6L79.9,58.3z"/>
	<path class="st27" d="M73.9,46.8c-0.4,1.2-2.2,4.7-1.9,7.5c0.3,2.9,2.5,5.2,5.9,5c0,0,6.3-4,4.5-11.4C82.4,47.8,79,46.7,73.9,46.8z
		"/>
	<path class="st27" d="M77.5,59.9l16.3,0.7c0,0,5.4-2.6,5.3-4.6c-0.1-2-16.7-6.6-16.7-6.6C72.6,47.1,70,59.1,77.5,59.9z"/>
	<path class="st27" d="M99,56l0.8,22.8c0,0-4,1.9-5.5,0.3c-1.1-7.7-4.6-14.4-1.3-19.3C97.6,53.3,99,56,99,56z"/>
	<path class="st26" d="M97.9,49.7l14.7,18.1c0,0-2.9,4.2-5,3.9c-3.9-4.5-11.7-9.6-12-15.4C95,48.4,97.9,49.7,97.9,49.7z"/>
	<path class="st9" d="M72.9,30.5l4.5-0.3c2.2,2.3,4.4,4.3,4.9,5.9c0.6,2.1,1.1,13.9,1.1,13.9c-3.7,1.6-8.1,0.6-10.9-0.3
		c0.4-5.8-4.6-12.1-2.1-16.6C71,32,71.9,31.4,72.9,30.5z"/>
	<g>
		<g>
			<g>
				<path class="st13" d="M99.8,80.8c0,0,1.5,0.9,3.4,1.4c1.1,0.3,4,0.9,3.5,2.8c-0.1,0.3-0.3,0.6-1.1,0.8c-1.1,0.3-2.6,0.5-5.4-0.2
					c-3.3-0.9-3.8-0.6-5.1-1c-1.3-0.4-0.6-2.2-0.3-3.7l0,0c0,0.4,0.2,1.4,2.5,2.3C98,83.5,97.5,80.4,99.8,80.8z"/>
			</g>
		</g>
	</g>
	<g>
		<path class="st25" d="M82.9,51.1l14.7-0.7L100,41c0.1-0.4-0.2-0.8-0.7-0.8l-13.3,0.7c-0.3,0-0.5,0.2-0.6,0.5L82.9,51.1z"/>
		<path class="st16" d="M84,51l14-0.7c0.4,0,0.7-0.3,0.8-0.6l2.3-8.7c0.1-0.4-0.2-0.8-0.7-0.8l-13.3,0.7c-0.3,0-0.5,0.2-0.6,0.5
			L84,51z"/>
		<path class="st28" d="M92.4,45.7c-0.1,0.6,0.2,1.1,0.7,1.3c0.5,0.1,1.1-0.2,1.2-0.8c0.1-0.6-0.2-1.1-0.7-1.3
			C93.1,44.8,92.6,45.1,92.4,45.7z"/>
		<path class="st25" d="M76.2,50l7.8-0.4L84,51l-8.9,0.5l0-0.2C75,50.6,75.5,50.1,76.2,50z"/>
	</g>
	<path class="st24" d="M82.3,50.4c-1.1,0-2.4,0.3-2.4-0.2c0-0.5,0.5-0.8,0.6-1.4c0-0.6-1.9-0.3-3,1.6L77,50.2l-1,1.8l0.7,0.2
		c1.2,1.3,4.6,1.8,6.5,0.7C85.2,51.7,83.3,50.4,82.3,50.4z"/>
	<path class="st21" d="M68.9,33.9c-1.2,2.9-5.6,9.6-4.4,13.1c0.9,2.5,11.8,5.6,11.8,5.6l0.9-2.7l-7.8-5.2c0,0,3.9-8.7,4.3-10.4
		C74.4,31.5,70.7,29.3,68.9,33.9z"/>
</g>
</svg>
