<?xml version="1.0" encoding="utf-8"?>
<!-- Generator: Adobe Illustrator 22.0.0, SVG Export Plug-In . SVG Version: 6.00 Build 0)  -->
<svg version="1.1" id="Layer_1" xmlns="http://www.w3.org/2000/svg" xmlns:xlink="http://www.w3.org/1999/xlink" x="0px" y="0px"
	 viewBox="0 0 144 144" style="enable-background:new 0 0 144 144;" xml:space="preserve">
<style type="text/css">
	.st0{fill:#58595B;stroke:#A7A9AC;stroke-miterlimit:10;}
	.st1{fill:#A7A9AC;}
	.st2{fill:#F8D0AF;}
	.st3{fill:#D4A280;}
	.st4{fill:#E8B491;}
	.st5{fill:#A0DAF1;}
	.st6{fill:#74ABBD;}
	.st7{fill:#C2B59B;}
	.st8{fill:#9B8579;}
	.st9{fill:#AB423F;}
	.st10{fill:#7D191A;}
	.st11{fill:#C5453B;}
	.st12{fill:#E57970;}
	.st13{fill:#C75548;}
	.st14{fill:#486BA5;}
	.st15{fill:#F9ED32;}
	.st16{fill:#F26F6B;}
	.st17{fill:#CD8D6A;}
	.st18{fill:#1B75BC;}
	.st19{fill:#43828C;}
	.st20{fill:#FAB17E;}
	.st21{fill:#333333;}
	.st22{fill:#9C6032;}
	.st23{fill:#A8D29F;}
	.st24{fill:#27AAE1;}
	.st25{fill:#FFFFFF;}
	.st26{fill:#609BA8;}
	.st27{fill:#AC7141;}
	.st28{fill:#243962;}
	.st29{fill:#939598;}
	.st30{fill:#818285;}
	.st31{fill:#EC2227;}
	.st32{fill:#2E3652;}
	.st33{fill:#F9E0B2;}
</style>
<rect x="42.3" y="20.6" transform="matrix(-1 -1.224647e-16 1.224647e-16 -1 177.0163 154.3613)" class="st0" width="92.4" height="113.1"/>
<rect x="41.8" y="20.1" transform="matrix(-1 -1.224647e-16 1.224647e-16 -1 85.794 152.907)" class="st1" width="2.1" height="112.7"/>
<rect x="132.7" y="21.5" transform="matrix(-1 -1.224647e-16 1.224647e-16 -1 267.538 155.7694)" class="st1" width="2.1" height="112.7"/>
<rect x="69.5" y="64.2" transform="matrix(-1.836970e-16 1 -1 -1.836970e-16 202.1135 60.8059)" class="st2" width="2.3" height="134.5"/>
<polygon class="st1" points="63.3,90.4 63.3,74.5 42.3,74.5 42.3,72.1 63.3,72.1 63.3,56.2 42.3,56.2 42.3,53.8 63.3,53.8 
	63.3,37.5 42.3,37.5 42.3,35.2 63.3,35.2 63.3,22.3 42.6,22.3 42.6,20 63.3,20 64.8,20 134.7,20 134.7,22.3 64.8,22.3 64.8,90.4 
	87.4,90.4 134.7,90.4 134.7,92.8 87.4,92.8 64.8,92.8 64.8,111.2 134.7,111.2 134.7,113.5 64.8,113.5 64.8,132.7 63.3,132.7 
	63.3,113.5 63.3,111.2 63.3,92.8 42.3,92.8 42.3,90.4 "/>
<g>
	<path class="st2" d="M61.9,101.3v9.8c0,0.6-0.3,1.1-0.7,1.1h-9.8c-0.4,0-0.7-0.4-0.7-1v-9.8H61.9z"/>
	<path class="st3" d="M51.3,99.2h10.1c0.3,0,0.5,0.3,0.5,0.7v2.3H50.7v-2.1C50.7,99.6,51,99.2,51.3,99.2z"/>
	<path class="st4" d="M54.1,104.5h4.4c0.2,0,0.3,0.2,0.3,0.5c0,0.3-0.1,0.5-0.3,0.5h-4.4c-0.2,0-0.3-0.2-0.3-0.5
		C53.8,104.7,53.9,104.5,54.1,104.5z"/>
</g>
<g>
	<path class="st5" d="M62.7,114.4v13c0,0.8-0.4,1.4-1,1.4H48.6c-0.5,0-0.9-0.6-0.9-1.3v-13.1H62.7z"/>
	<path class="st6" d="M48.5,111.7h13.5c0.4,0,0.6,0.4,0.6,1v3.1H47.8v-2.9C47.8,112.2,48.1,111.7,48.5,111.7z"/>
	<path class="st6" d="M52.3,118.7h5.9c0.2,0,0.4,0.3,0.4,0.7l0,0c0,0.4-0.2,0.7-0.4,0.7h-5.9c-0.2,0-0.4-0.3-0.4-0.7l0,0
		C51.9,119,52,118.7,52.3,118.7z"/>
</g>
<g>
	<path class="st2" d="M97.3,79.5v10.4c0,0.6-0.5,1.2-1,1.2H81.9c-0.5,0-1-0.5-1-1.1V79.5H97.3z"/>
	<g>
		<path class="st3" d="M81.8,77.3h14.9c0.4,0,0.7,0.3,0.7,0.8v2.4H80.9v-2.3C80.9,77.7,81.3,77.3,81.8,77.3z"/>
		<path class="st4" d="M85.9,82.9h6.5c0.3,0,0.5,0.2,0.5,0.5c0,0.3-0.2,0.5-0.5,0.5h-6.5c-0.3,0-0.5-0.2-0.5-0.5
			C85.4,83.1,85.6,82.9,85.9,82.9z"/>
	</g>
</g>
<g>
	<path class="st7" d="M132.7,98.8v11.5c0,0.7-0.5,1.3-1.1,1.3h-15.8c-0.6,0-1.1-0.5-1.1-1.2V98.8H132.7z"/>
	<path class="st8" d="M115.5,96.4h16.3c0.4,0,0.8,0.4,0.8,0.9v2.7h-18.1v-2.5C114.6,96.9,115,96.4,115.5,96.4z"/>
	<path class="st8" d="M120.1,102.6h7.1c0.3,0,0.5,0.3,0.5,0.6c0,0.3-0.2,0.6-0.5,0.6h-7.1c-0.3,0-0.5-0.3-0.5-0.6
		C119.6,102.9,119.8,102.6,120.1,102.6z"/>
</g>
<g>
	<path class="st7" d="M90.7,98.6v11.5c0,0.7-0.5,1.3-1.1,1.3H73.7c-0.6,0-1.1-0.5-1.1-1.2V98.6H90.7z"/>
	<path class="st8" d="M73.6,96.2h16.3c0.4,0,0.8,0.4,0.8,0.9v2.7H72.6v-2.5C72.6,96.7,73,96.2,73.6,96.2z"/>
	<path class="st8" d="M78.1,102.4h7.1c0.3,0,0.5,0.3,0.5,0.6c0,0.3-0.2,0.6-0.5,0.6h-7.1c-0.3,0-0.5-0.3-0.5-0.6
		C77.6,102.7,77.8,102.4,78.1,102.4z"/>
</g>
<path class="st9" d="M113,115.2h16.3c0.4,0,0.8,0.4,0.8,0.9v1.5v1.1V129c0,0.7-0.5,1.3-1.1,1.3h-15.8c-0.6,0-1.1-0.5-1.1-1.2v-10.4
	v-1.1v-1.4C112.1,115.6,112.5,115.2,113,115.2z"/>
<path class="st3" d="M69.7,84.5H86c0.4,0,0.8,0.2,0.8,0.4v0.7V86v4.4c0,0.3-0.5,0.5-1.1,0.5H69.8c-0.6,0-1.1-0.2-1.1-0.5V86v-0.5
	v-0.6C68.8,84.7,69.2,84.5,69.7,84.5z"/>
<path class="st3" d="M92.2,123.9h16.3c0.4,0,0.8,0.2,0.8,0.4v0.7v0.5v4.4c0,0.3-0.5,0.5-1.1,0.5H92.3c-0.6,0-1.1-0.2-1.1-0.5v-4.5
	v-0.5v-0.6C91.2,124.1,91.7,123.9,92.2,123.9z"/>
<path class="st6" d="M71.8,117.5h16.3c0.4,0,0.8,0.3,0.8,0.7v1.3v1v8.8c0,0.6-0.5,1.1-1.1,1.1H71.9c-0.6,0-1.1-0.4-1.1-1v-8.9v-1
	v-1.2C70.8,117.9,71.2,117.5,71.8,117.5z"/>
<g>
	<path class="st2" d="M112.1,98.6v11.5c0,0.7-0.5,1.3-1.1,1.3H95.1c-0.6,0-1.1-0.5-1.1-1.2V98.6H112.1z"/>
	<path class="st3" d="M95,96.2h16.3c0.4,0,0.8,0.4,0.8,0.9v2.7H94.1v-2.5C94.1,96.7,94.5,96.2,95,96.2z"/>
	<path class="st4" d="M99.5,102.4h7.1c0.3,0,0.5,0.3,0.5,0.6c0,0.3-0.2,0.6-0.5,0.6h-7.1c-0.3,0-0.5-0.3-0.5-0.6
		C99,102.7,99.3,102.4,99.5,102.4z"/>
</g>
<g>
	<g>
		<path class="st10" d="M93.7,122.5c0,0,1.7-0.6,2.6-0.7c0.9-0.1,1.5-4.6,1.6-5.1c0.1-0.6,1.2-1.5,1.2-1.5l-0.7,6.7l-1.5,1.7h-2.7
			L93.7,122.5z"/>
		<path class="st9" d="M100.5,118.2c-0.2,1-0.2,2.4-0.3,3.6c0,0.3,0,0.5,0,0.7c0,0.4,0,0.8,0,1.1c0,0.2,0,0.3,0,0.3h-0.5l0-0.3l0-1
			l0-0.7l0-2.2c0,0-0.1,0.1-0.1,0.1c-0.3,0.3-0.6,1.4-0.9,2.3c0,0.1-0.1,0.3-0.1,0.4c-0.1,0.4-0.2,0.8-0.4,1
			c-0.1,0.1-0.1,0.2-0.2,0.3c0,0,0,0,0,0H93c-0.1,0-0.2,0-0.2-0.1c-0.3-0.7,0.9-1.3,0.9-1.3s1.7,0.3,3.4-0.2
			c0.7-0.2,1.9-6.9,1.9-7.2c0,0,0,0,0,0s1.7,1.1,1.9,1.6C101,117,100.8,117.6,100.5,118.2z"/>
	</g>
	<g>
		<path class="st10" d="M97.7,122.5c0,0,1.7-0.6,2.6-0.7c0.9-0.1,1.5-4.6,1.6-5.1c0.1-0.6,1.2-1.5,1.2-1.5l-0.7,6.7l-1.5,1.7h-2.7
			L97.7,122.5z"/>
		<path class="st9" d="M104.5,118.2c-0.3,1.9-0.3,5.4-0.3,5.7h-0.5l0-4.2c0,0-0.1,0.1-0.1,0.1c-0.5,0.6-1.1,3.5-1.5,4c0,0,0,0,0,0
			h-4.9c-0.1,0-0.2,0-0.2-0.1c0-0.1-0.1-0.2-0.1-0.2c0-0.6,0.9-1.1,0.9-1.1s0,0,0,0h0c0.1,0,0.4,0.1,0.8,0.1c0.3,0,0.7,0,1.1,0
			c0.2,0,0.3,0,0.5-0.1c0.3,0,0.6-0.1,1-0.2c0.7-0.2,1.9-6.9,1.9-7.2c0,0,0,0,0,0s1.7,1.1,1.9,1.6C105,117,104.8,117.6,104.5,118.2z
			"/>
	</g>
</g>
<g>
	<path class="st11" d="M61.1,36.3c0,0,0.4-0.4,0.2-0.7c-0.2-0.3-0.5-0.4-1.1-0.4c-0.6,0-9.3,0-9.3,0s-0.5,0.2-0.5,0.6
		c0,0.4,0.2,0.5,0.3,0.6C50.9,36.4,61.1,36.3,61.1,36.3z"/>
	<path class="st11" d="M60.6,35.2c0,0,0.9,0,0.7-0.7c-0.1-0.4-0.5-0.4-1.1-0.4c-0.6,0-9.3,0-9.3,0s-0.5,0.2-0.5,0.6
		c0,0.4,0.2,0.5,0.3,0.6C50.9,35.3,60.6,35.2,60.6,35.2z"/>
	<path class="st12" d="M60.6,34c0,0,0.9,0,0.7-0.7c-0.1-0.4-0.5-0.4-1.1-0.4c-0.6,0-9.3,0-9.3,0s-0.5,0.2-0.5,0.6
		c0,0.4,0.2,0.5,0.3,0.6C50.9,34.1,60.6,34,60.6,34z"/>
	<path class="st11" d="M60,32.9c0,0,0.9,0,0.7-0.7c-0.1-0.4-0.5-0.4-1.1-0.4c-0.6,0-9.3,0-9.3,0s-0.5,0.2-0.5,0.6
		c0,0.4,0.2,0.5,0.3,0.6C50.3,32.9,60,32.9,60,32.9z"/>
	<path class="st13" d="M60.6,31.7c0,0,0.9,0,0.7-0.7c-0.1-0.4-0.5-0.4-1.1-0.4c-0.6,0-9.3,0-9.3,0s-0.5,0.2-0.5,0.6
		c0,0.4,0.2,0.5,0.3,0.6C50.9,31.8,60.6,31.7,60.6,31.7z"/>
	<path class="st11" d="M60.6,30.6c0,0,0.9,0,0.7-0.7c-0.1-0.4-0.5-0.4-1.1-0.4c-0.6,0-9.3,0-9.3,0s-0.5,0.2-0.5,0.6s0.2,0.5,0.3,0.6
		C50.9,30.6,60.6,30.6,60.6,30.6z"/>
	<path class="st13" d="M60,29.4c0,0,0.9,0,0.7-0.7c-0.1-0.4-0.5-0.4-1.1-0.4c-0.6,0-9.3,0-9.3,0s-0.5,0.2-0.5,0.6
		c0,0.4,0.2,0.5,0.3,0.6C50.3,29.5,60,29.4,60,29.4z"/>
	<path class="st12" d="M60.6,28.3c0,0,0.9,0,0.7-0.7c-0.1-0.4-0.5-0.4-1.1-0.4c-0.6,0-9.3,0-9.3,0s-0.5,0.2-0.5,0.6
		c0,0.4,0.2,0.5,0.3,0.6C50.9,28.4,60.6,28.3,60.6,28.3z"/>
</g>
<path class="st14" d="M91.6,38.2c-0.9-0.6-2.1-1.4-3.6-2.2c-0.7-0.3-1.4-0.6-2.2-0.9c-1.3-0.5-2.8-0.8-4.3-0.8h0v-3.9
	c0-0.4-0.2-1.2-0.9-1.3c-0.3,0-0.6-0.2-0.7-0.4c-0.2-0.3-0.3-0.6-0.3-0.9c0.1-0.8,0.6-1.4,1.3-1.4c0.2,0,0.4,0.1,0.5,0.3h0.7
	c-0.3-0.7-0.8-0.9-1.2-0.9c-1,0-1.8,0.7-1.9,1.9c0,0.4,0.1,0.9,0.4,1.3c0.3,0.4,0.7,0.6,1.1,0.6c0.4,0,0.4,0.7,0.4,0.7v3.9
	c-1.6,0-3.3,0.4-4.8,1c-0.7,0.3-1.3,0.5-2,0.8c-1.3,0.6-2.4,1.3-3.1,1.8c-0.4,0.3-0.6,0.8-0.5,1.3c0.1,0.5,0.5,0.8,1,0.8h19.4
	c0.4,0,0.8-0.3,0.9-0.7C92.1,38.9,91.9,38.4,91.6,38.2z M91.1,39.1C91.1,39.1,91.1,39.1,91.1,39.1l-19.5,0.1c-0.1,0-0.2-0.1-0.2-0.2
	c0-0.1,0-0.2,0.1-0.3c0.8-0.5,1.8-1.2,3.1-1.8c0.6-0.3,1.3-0.6,1.9-0.8c1.4-0.5,3-0.9,4.6-0.9c0.1,0,0.1,0,0.2,0
	c1.5,0,2.9,0.3,4.2,0.8c0.8,0.3,1.6,0.6,2.4,1c1.3,0.7,2.5,1.4,3.3,2C91.1,39,91.2,39,91.1,39.1z"/>
<path class="st15" d="M92.3,71.7c0,0-1.3,1.5-3.3,0.8c-2-0.7-4,0-4.4,0.3c-2.3,1.6-4.9,2.9-5.9,0.9c-0.7-1.4-2.9,0.3-7.6-0.8
	c0,0,4.7-17.6,4.8-20.7c0.1-3.1-3.1-6.7-1.6-12.8c0,0,0,0,0-0.1c0-0.2,0.1-0.5,0.1-0.9c0-0.7,0-1.5-0.1-2.2
	c-0.1-0.3-0.2-0.6-0.3-0.8c0.6-0.3,1.3-0.6,2-0.8c0.1,0.2,0.2,0.5,0.3,0.8c0.3,0.8,0.8,1.9,1.4,3c0.2,0.3,0.3,0.6,0.5,0.9
	c0.9,1.6,1.9,2.9,2.8,3c0,0,1.2-0.2,2.7-3c0.1-0.3,0.3-0.6,0.5-0.9c0.4-0.8,0.8-1.9,1.2-3.1c0.1-0.3,0.2-0.6,0.3-0.9
	c0.8,0.3,1.5,0.6,2.2,0.9c0,0,0.1,0.1,0.1,0.2c0,0-0.1,0.3-0.1,0.8c-0.1,0.5-0.2,1.3-0.1,2.1c0,0.3,0,0.6,0.1,0.9c0,0,0,0.1,0,0.1
	c0,0,0.7,1.5,0.5,4.3c-0.2,2.8-1.2,5.6-1.2,8.5C86.9,56.1,92.1,67,92.3,71.7z M74.7,39.8c-0.2-0.1-0.3-0.2-0.4-0.3
	C74.4,39.6,74.5,39.6,74.7,39.8z"/>
<path class="st14" d="M122.8,37.9c-2-1.4-5.9-3.6-9.9-3.6v-3.9c0,0,0-0.7,0.4-0.7c0.4,0,0.8-0.2,1.1-0.6c0.3-0.4,0.5-0.9,0.4-1.3
	c-0.1-1.2-0.8-1.9-1.9-1.9c-0.4,0-0.8,0.2-1.2,0.8h0.7c0.1-0.1,0.3-0.2,0.5-0.2c0.7,0,1.2,0.5,1.3,1.4c0,0.3-0.1,0.6-0.3,0.9
	c-0.1,0.2-0.4,0.4-0.7,0.4c-0.7,0-0.9,0.9-0.9,1.3v3.9c-4.2,0.1-8.1,2.5-10.1,3.9c-0.3,0.2-0.5,0.7-0.4,1.1c0.1,0.4,0.5,0.7,0.9,0.7
	h19.4c0.5,0,0.9-0.3,1-0.8C123.4,38.7,123.2,38.2,122.8,37.9z M122.4,39c0,0.1-0.1,0.2-0.2,0.2h-19.4c0,0-0.1,0-0.1-0.1
	c0-0.1,0-0.1,0-0.1c1.9-1.4,5.8-3.7,9.9-3.8c0.1,0,0.1,0,0.2,0c3.8,0,7.6,2.2,9.6,3.5C122.5,38.8,122.4,38.9,122.4,39z"/>
<path class="st16" d="M119,35.2c0,0-3,3-7.4,2.8c-4.4-0.2-6.4-2.6-6.4-2.6s-3.4,1.9-4.1,3c-0.7,1.1-1,12.2-1,12.2s1.7,0.7,3.4,0.7
	l0.7-2.3L102,88.3c0,0,2.7,0.1,4.3-0.9c1.5-1,3.9,0.3,5.9,0.6c2.1,0.3,3.3-1.4,5.3-0.7c3.2,1.1,5.6,0.5,5.6,0.5l-3.3-39l0.9,2.3
	c0,0,3,0,4-1.1c0,0-1.2-11.8-1.8-12.5C122.3,36.7,119,35.2,119,35.2z"/>
<g>
	<path class="st17" d="M110.6,37.2c0.8-0.5,1.9-1.2,3.1-1.8c0.6-0.3,1.3-0.6,2-0.8c1.5-0.6,3.1-0.9,4.8-1v-3.9c0,0,0-0.7-0.4-0.7
		c-0.4,0-0.8-0.2-1.1-0.6c-0.3-0.4-0.5-0.9-0.4-1.3c0.1-1.2,0.8-1.9,1.9-1.9c0.4,0,1,0.2,1.3,1.2c0.2,0.6,0.2,1.1,0.2,1.1
		c0,0.2-0.1,0.3-0.3,0.3c-0.1,0-0.3-0.1-0.3-0.3c0,0-0.1-1.8-1-1.8c-0.7,0-1.2,0.5-1.3,1.4c0,0.3,0.1,0.6,0.3,0.9
		c0.1,0.2,0.4,0.4,0.7,0.4c0.7,0,0.9,0.9,0.9,1.3v3.9h0c1.5,0,2.9,0.4,4.3,0.8c0.8,0.3,1.5,0.6,2.2,0.9c1.5,0.7,2.8,1.5,3.6,2.2
		c0.3,0.2,0.5,0.7,0.4,1.1c-0.1,0.4-0.5,0.7-0.9,0.7h-19.4c-0.5,0-0.9-0.3-1-0.8C110,38,110.2,37.5,110.6,37.2z M111,38.3
		c0,0.1,0.1,0.2,0.2,0.2h19.4c0,0,0.1,0,0.1-0.1c0-0.1,0-0.1,0-0.1c-0.8-0.6-1.9-1.3-3.3-2c-0.7-0.4-1.5-0.7-2.4-1
		c-1.3-0.5-2.8-0.8-4.2-0.8c-0.1,0-0.1,0-0.2,0c-1.6,0-3.1,0.4-4.6,0.9c-0.7,0.2-1.3,0.5-1.9,0.8c-1.2,0.6-2.3,1.3-3.1,1.8
		C110.9,38.1,110.9,38.2,111,38.3z"/>
	<path class="st18" d="M132.1,79.9c0,0-1.3,1.5-3.3,0.8c-2-0.7-4,0-4.4,0.3c-2.3,1.6-4.9,1.8-5.9-0.3c-0.7-1.4-2.9,1.4-7.6,0.4
		c0,0,4.7-25.8,4.8-28.9c0.1-3.1-3.1-6.7-1.6-12.8c0,0,0,0,0-0.1c0-0.2,0.1-0.5,0.1-0.9c0-0.7,0-1.5-0.1-2.2
		c-0.1-0.3-0.2-0.6-0.3-0.8c0.6-0.3,1.3-0.6,2-0.8c0.1,0.2,0.2,0.5,0.3,0.8c0.3,0.8,0.8,1.9,1.4,3c0.2,0.3,0.3,0.6,0.5,0.9
		c0.9,1.6,1.9,2.9,2.8,3c0,0,1.2-0.2,2.7-3c0.1-0.3,0.3-0.6,0.5-0.9c0.4-0.8,0.8-1.9,1.2-3.1c0.1-0.3,0.2-0.6,0.3-0.9
		c0.8,0.3,1.5,0.6,2.2,0.9c0,0,0.1,0.1,0.1,0.2c0,0-0.1,0.3-0.1,0.8c-0.1,0.5-0.2,1.3-0.1,2.1c0,0.3,0,0.6,0.1,0.9c0,0,0,0.1,0,0.1
		c0,0,0.7,1.5,0.5,4.3c-0.2,2.8-1.2,5.6-1.2,8.5C126.7,56.1,132,75.2,132.1,79.9z M114.6,39.8c-0.2-0.1-0.3-0.2-0.4-0.3
		C114.3,39.6,114.4,39.7,114.6,39.8z"/>
</g>
<g>
	<path class="st17" d="M86.4,38.6c0.9-0.6,2.1-1.4,3.6-2.2c0.7-0.3,1.4-0.6,2.2-0.9c1.3-0.5,2.8-0.8,4.3-0.8h0v-3.9
		c0-0.4,0.2-1.2,0.9-1.3c0.3,0,0.6-0.2,0.7-0.4c0.2-0.3,0.3-0.6,0.3-0.9c-0.1-0.8-0.6-1.4-1.3-1.4c-0.9,0-1,1.8-1,1.8
		c0,0.2-0.1,0.3-0.3,0.3c-0.2,0-0.3-0.1-0.3-0.3c0,0,0-0.6,0.2-1.1c0.3-1,0.9-1.2,1.3-1.2c1,0,1.8,0.7,1.9,1.9
		c0,0.4-0.1,0.9-0.4,1.3c-0.3,0.4-0.7,0.6-1.1,0.6c-0.4,0-0.4,0.7-0.4,0.7v3.9c1.6,0,3.3,0.4,4.8,1c0.7,0.3,1.3,0.5,2,0.8
		c1.3,0.6,2.4,1.3,3.1,1.8c0.4,0.3,0.6,0.8,0.5,1.3c-0.1,0.5-0.5,0.8-1,0.8H86.9c-0.4,0-0.8-0.3-0.9-0.7
		C85.9,39.3,86.1,38.9,86.4,38.6z M86.9,39.5C86.9,39.6,86.9,39.6,86.9,39.5l19.5,0.1c0.1,0,0.2-0.1,0.2-0.2c0-0.1,0-0.2-0.1-0.3
		c-0.8-0.5-1.8-1.2-3.1-1.8c-0.6-0.3-1.3-0.6-1.9-0.8c-1.4-0.5-3-0.9-4.6-0.9c-0.1,0-0.1,0-0.2,0c-1.5,0-2.9,0.3-4.2,0.8
		c-0.8,0.3-1.6,0.6-2.4,1c-1.3,0.7-2.5,1.4-3.3,2C86.9,39.4,86.8,39.4,86.9,39.5z"/>
	<path class="st19" d="M103.1,39.6c0,0-1.5,6.9-1.6,7.4h-10l-1.5-7.4H103.1z"/>
	<path class="st6" d="M103.1,39.6c0,0,0.7,11.9,0,19.1c0,0-1.8,0.4-3.4,0l-2.5-19.1H103.1z"/>
	<path class="st6" d="M95.6,39.6L95,58.7c0,0-2.1,0.5-3.3,0l-1.6-19.1H95.6z"/>
</g>
<path class="st5" d="M116.7,42.9c0,0.5-0.3,0.9-0.8,0.9c-0.4,0-0.8-0.4-0.8-0.9c0-0.5,0.3-0.9,0.8-0.9
	C116.3,42,116.7,42.4,116.7,42.9z"/>
<ellipse class="st5" cx="125.2" cy="42.8" rx="0.4" ry="0.4"/>
<ellipse class="st5" cx="120.8" cy="47" rx="0.6" ry="0.7"/>
<ellipse class="st5" cx="125.4" cy="47.5" rx="0.6" ry="0.6"/>
<ellipse class="st5" cx="117.8" cy="49.9" rx="0.5" ry="0.6"/>
<path class="st5" d="M127.3,37.1c0,0.3-0.2,0.5-0.5,0.5c-0.3,0-0.5-0.2-0.5-0.5c0-0.3,0.2-0.5,0.5-0.5
	C127.1,36.5,127.3,36.8,127.3,37.1z"/>
<path class="st5" d="M116,38.3c0,0.1-0.1,0.2-0.2,0.2c-0.1,0-0.2-0.1-0.2-0.2c0-0.1,0.1-0.2,0.2-0.2C115.9,38.1,116,38.2,116,38.3z"
	/>
<ellipse class="st5" cx="123.2" cy="53.1" rx="0.5" ry="0.6"/>
<ellipse class="st5" cx="117.7" cy="57.4" rx="0.4" ry="0.4"/>
<ellipse class="st5" cx="124.4" cy="58.6" rx="0.5" ry="0.5"/>
<ellipse class="st5" cx="121.1" cy="56.4" rx="0.3" ry="0.4"/>
<ellipse class="st5" cx="119.8" cy="51.6" rx="0.3" ry="0.3"/>
<path class="st5" d="M128.9,77.3c0,0.3-0.3,0.6-0.6,0.6c-0.3,0-0.6-0.3-0.6-0.6c0-0.3,0.3-0.6,0.6-0.6
	C128.7,76.7,128.9,76.9,128.9,77.3z"/>
<path class="st5" d="M123.1,75.5c0,0.2-0.2,0.4-0.4,0.4c-0.2,0-0.4-0.2-0.4-0.4c0-0.2,0.2-0.4,0.4-0.4
	C122.9,75,123.1,75.2,123.1,75.5z"/>
<path class="st5" d="M128.4,71c0,0.3-0.3,0.6-0.6,0.6c-0.3,0-0.6-0.3-0.6-0.6c0-0.3,0.3-0.6,0.6-0.6C128.2,70.4,128.4,70.7,128.4,71
	z"/>
<ellipse class="st5" cx="123.1" cy="68" rx="0.4" ry="0.5"/>
<path class="st5" d="M119.2,63.7c0,0.3-0.2,0.5-0.4,0.5c-0.2,0-0.4-0.2-0.4-0.5c0-0.3,0.2-0.5,0.4-0.5
	C119,63.3,119.2,63.5,119.2,63.7z"/>
<path class="st5" d="M126.6,63.3c0,0.5-0.4,0.9-0.8,0.9c-0.4,0-0.8-0.4-0.8-0.9c0-0.5,0.4-0.9,0.8-0.9
	C126.3,62.4,126.6,62.8,126.6,63.3z"/>
<path class="st5" d="M122.3,61.5c0,0.3-0.2,0.5-0.5,0.5c-0.2,0-0.5-0.2-0.5-0.5c0-0.3,0.2-0.5,0.5-0.5
	C122.1,61,122.3,61.3,122.3,61.5z"/>
<path class="st5" d="M114.8,78.4c0,0.3-0.2,0.5-0.5,0.5c-0.3,0-0.5-0.2-0.5-0.5c0-0.3,0.2-0.5,0.5-0.5
	C114.6,77.9,114.8,78.1,114.8,78.4z"/>
<ellipse class="st5" cx="117.7" cy="73.2" rx="0.4" ry="0.4"/>
<ellipse class="st5" cx="116.7" cy="68" rx="0.4" ry="0.5"/>
<path class="st5" d="M122.5,71.7c0,0.2-0.1,0.3-0.3,0.3c-0.2,0-0.3-0.2-0.3-0.3c0-0.2,0.1-0.3,0.3-0.3
	C122.3,71.4,122.5,71.5,122.5,71.7z"/>
<ellipse class="st5" cx="121.2" cy="80.8" rx="0.3" ry="0.4"/>
<path class="st5" d="M119.3,76.5c0,0.4-0.3,0.7-0.7,0.7c-0.4,0-0.7-0.3-0.7-0.7c0-0.4,0.3-0.7,0.7-0.7
	C119,75.7,119.3,76.1,119.3,76.5z"/>
<g>
	<path class="st20" d="M46.2,128.4c0,0-3.3-4.2-4.3-6.1l-2.6-5.3L36,118l4.3,6.7l4.5,4.2L46.2,128.4z"/>
	<path class="st21" d="M24.9,25.6c-0.8-0.5-1.7-0.5-2.4-0.5c0.2-0.2,0.5-0.3,0.5-0.3c-0.4-0.1-1.3,0.4-1.3,0.4
		c-5.6-2.4-6.5,6.8-6.4,8.9c0.1,2.1-1.9,2.8-4.8,4.5c-5.6,3.2-6.1,7.5-6.1,7.5c0,0,0.1,0.1,0.1,0.1c0.3-0.5,0.8-1.5,1.3-1.6
		c0,0-0.6,1.3-0.8,2.1c1.7,1.4,4.7,4.5,6.9,6.6c0-0.4,0-1,0.1-1.3l0.3,1.8c1.2,1.2,1.9,2,1.9,2c-0.1-1.7,7-10.8,10.8-13.5
		c0.9-1.5,1.2-4.1,1.3-4.3c-0.2,2.1-0.5,3.2-0.8,3.9C28.8,38.5,26.9,26.9,24.9,25.6z"/>
	<path class="st22" d="M24.9,42.3c0,0-1.8,1.1-3.2,0.6c-1.3-0.4-2.1-2.2-2.1-2.2c0.5-0.1,0.7-1,0.7-4.5l0.2,0.1l4.2,0.9
		c0,0-0.1,1.4-0.1,2.8C24.6,41.1,24.6,42.2,24.9,42.3z"/>
	<path class="st23" d="M20.2,27.1c0,0,2.1-2.4,4.6-0.1C24.8,27,23.3,26.7,20.2,27.1z"/>
	<path class="st21" d="M20.1,35.7c0,0-1.2-2.1-1.5-4c-0.2-1.3,0.4-6.1,4.8-5.4c0,0,1.3,0.1,2.5,1c1,0.7,2.3,2.2,0.8,6.5l-0.4,1.4
		L20.1,35.7z"/>
	<path class="st24" d="M41.3,120.5l-2.2,0.1l-2.4,0.1c0,0-5.5-6.8-8.6-17.7c-0.1-0.3-0.1-0.5-0.2-0.8c-1.7-5.5-5.2-12.3-7.1-18.5
		c-0.3-1-0.6-1.9-0.8-2.8c-0.1-0.3-0.2-0.6-0.2-0.8c-1.4-5.2-1.8-8.7-2.1-12.3L31,67.9C31,67.9,33.2,93,41.3,120.5z"/>
	<path class="st25" d="M30.1,69.4c0,0-5.7,3.2-12.5,0.8c-0.1,0,0.4-29,2.4-29.8c0.4,0.6,1.8,1.2,2.9,1.2c1.4,0,1.8-0.7,1.7-1.4
		c1.4,0.9,2.6,1.7,2.6,1.7C28.4,44.3,30.1,69.4,30.1,69.4z"/>
	<path class="st26" d="M17.6,60.2c-0.6,0.9-1.7,6.5-4.5,7.2c1.4-4,2.5-5.7,2.7-6.9c0.3-2.3,0.3-4.6,0.2-6.8c0.9-1.8,1.6-3,1.6-3
		c0.1-0.3,1.5-5.1,1.9-0.8C20,54,18.3,59.2,17.6,60.2z"/>
	<path class="st27" d="M25.5,38.4c0,0-5.5,0.1-5.5-3.7c0-3.8-0.7-6.3,2.8-6.6c3.5-0.2,4.2,1.2,4.5,2.5
		C27.5,31.9,26.9,38.3,25.5,38.4z"/>
	<path class="st21" d="M25.2,28.1c0,0-1.5,4.5-3.8,5.1c-2.3,0.7-3.3,0-3.3,0s1.8-1.6,2.1-4.3C20.2,28.9,24.1,26,25.2,28.1z"/>
	<path class="st21" d="M24.9,28.5c0,0,1.1,1,1.4,2c0.3,1,0.4,3,0.9,2.9c0,0,1.1-3-0.1-4.7C25.7,26.8,24.9,28.5,24.9,28.5z"/>
	<path class="st20" d="M21.3,127.8c-0.2-1.1-0.5-3.1-0.5-3.1l0.1-7H17l1.4,6.7c0,0.3,0.1,1.5-0.3,2.8c0,0-0.4,1.9,1.3,1.9
		C21.1,129.1,21.5,129,21.3,127.8z"/>
	<path class="st28" d="M21.5,130H18c-0.2-1,0.1-2.8,0.1-2.8c1.9,2,3.1-0.1,3.1-0.1C21.5,127.9,21.5,129.7,21.5,130z"/>
	<path class="st28" d="M47.8,130h-4.3c-0.4-0.4-0.7-1.1-1.2-2.1c-0.3-0.6-0.8-0.9-1.4-1v3.1h-0.9l-0.8-3.3c-0.5-1.1-0.1-2.1,0.3-3
		c0.4,0,1.7,0.3,4,3.2c0.7,0.9,1.6,1.3,2.4,1.3c0,0,0,0,0,0C47.3,128.8,47.7,129.6,47.8,130z"/>
	<path class="st29" d="M47.7,44.7c0,0-3.6,2.2-4.9,2.9c-0.7,0.4-2.4,1.2-3.6,1.9c-0.8,0.4-1.7,0.2-2.2-0.5c-2-2.5-7.1-8-12.3-8.7
		c0,0,3.2,8.7,3.3,10.5c0.1,1.8,0.4,28.8,0.4,28.8s-0.2,1.2,2,0.7c2.2-0.5,2.7-1,2.7-1s-2.1-16.7-1.5-22.5c0.1-1.1,0-2.4-0.2-3.8
		c3.2,2.1,7,3.1,7,3.1s2.8-1.4,6.7-4.5c1.2-1,3.3-4.7,3.3-4.7L47.7,44.7z"/>
	<path class="st18" d="M39.1,120.6l-2.4,0.1c0,0-5.5-6.8-8.6-17.7c-0.1-0.3-0.1-0.5-0.2-0.8c-1.7-5.5-5.2-12.3-7.1-18.5
		c-0.3-1-0.6-1.9-0.8-2.8c-0.1-0.3-0.2-0.6-0.2-0.8l2-1.6c0,0,5.9,10.6,7.7,20.5C31.1,107.6,37.4,118,39.1,120.6z"/>
	<path class="st24" d="M21.9,99.9c0,4.8-0.2,16-0.8,20.6h-2.1c-1.2,0-1.8,0-1.8,0c-1.4-8-2.5-14.6-3.2-20.3
		c-0.6-4.7-1.1-8.7-1.6-12.2c-0.4-3.5-0.7-6.4-0.8-8.9c0-0.4,0-0.8,0-1.1c0-0.4,0-0.7,0-1.1l11.6-1.2C23.1,84.1,21.9,97.1,21.9,99.9
		z"/>
	<path class="st18" d="M19.1,120.5c-1.2,0-1.8,0-1.8,0c-1.4-8-2.5-14.6-3.2-20.3c-0.6-4.7-1.1-8.7-1.6-12.2
		c-0.4-3.5-0.7-6.4-0.8-8.9l4.2,2.8c0,0-2.7,1.1-1.7,9C15.3,98.9,17.6,119.3,19.1,120.5z"/>
	<path class="st29" d="M19.6,79c0,0-0.8,3.2-3.6,2.8c-2.8-0.4-6.8-2.3-6.8-2.3s1.2-4.2,2.7-9.7c0-0.1,0-0.1,0-0.2
		c1.8-6.5,3.9-14.8,5-20.2c0-0.1,0-0.2,0.1-0.3c0.3-1.5,0.5-2.8,0.6-3.7l2.4-5c0,0,3.4,8.6,3.6,10.8C23.7,53.4,19.6,79,19.6,79z"/>
	<path class="st27" d="M16.8,50.9l3.1-10.5c0,0-3.9,1.3-5.9,2.4c0,0-1.2,1.7-2,5.8c0,0-0.8,9.6,1,13.2c0,0,5.6,1.2,14.6-2.2v-2.3
		c0,0-9.9,0.6-11.9,0.8L16.8,50.9z"/>
	<path class="st30" d="M19.2,55.8c-0.1,3.5-0.9,10.2-7.3,13.9c1.8-6.5,3.9-14.8,5-20.2C18.1,51.5,19.3,54,19.2,55.8z"/>
	<path class="st29" d="M19.9,40.4c0,0-5.8,0.4-7.1,3.8c-1.4,3.4-1.8,14.6-0.1,18c0,0,2.4,0.8,6.7-0.1c0.1,0,0.1,0,0.2,0
		c0,0,1.4-3.7,0.1-4.4c0,0-3.6,0.2-3.2-1.1C16.8,55.2,19.9,40.4,19.9,40.4z"/>
	<path class="st31" d="M50.5,44.9c0,0-1.8,36.3-2.6,43.1c0,0-2.5,1.3-4.7,0.6l-2.8-26.7l-2.7,26.9c0,0-3.5,1.1-6.2-0.5L30,54.7
		l2.6-0.5c5.2-1,10.2-3.3,14.5-6.7L50.5,44.9z"/>
	<path class="st27" d="M47.7,44.7c0,0,0.8-3.1,3.9-2.7c0.4,0.1,1.4,0.6,0.7,1.8c-0.5,0.9-0.7,0.4-1.5,1.6c-0.8,1.2-1.6,1.5-2.5,1.3
		L47.7,44.7z"/>
	<path class="st27" d="M26.7,57.9c0,0,0.8-1.1,1-2.1c0.2-1.1,0.7-1.9,2-2.1c1.4-0.2,1.9-0.2,1.9,0.2c0,0.4-1.1,3.4-3.1,5.1
		C26.6,60.8,26.7,57.9,26.7,57.9z"/>
</g>
<path class="st32" d="M4.2,132.8h136.5c0.4,0,0.8,0.4,0.8,0.8v2.3c0,0.4-0.4,0.8-0.8,0.8H4.2c-0.4,0-0.8-0.4-0.8-0.8v-2.3
	C3.4,133.2,3.7,132.8,4.2,132.8z"/>
<ellipse cx="23.8" cy="32.6" rx="0.2" ry="0.9"/>
<ellipse cx="26" cy="32.2" rx="0.2" ry="0.9"/>
<g>
	<g>
		<path class="st33" d="M25.2,33.8c0,0.3,0.1,0.6,0.2,0.9c0,0.1,0.2,0.4,0.1,0.4c-0.1,0.1-0.6,0-0.7,0c-0.2,0-0.2,0.2-0.1,0.2
			c0.2,0,0.9,0.2,1-0.1c0.1-0.2-0.1-0.4-0.1-0.5c-0.1-0.3-0.2-0.7-0.2-1C25.4,33.5,25.2,33.6,25.2,33.8L25.2,33.8z"/>
	</g>
</g>
<g>
	<g>
		<path class="st33" d="M24.4,36.8c0.3,0.3,0.6,0.5,1,0.4c0.4-0.1,0.6-0.4,0.8-0.7c0.4-0.5-0.5-1-0.9-0.5c-0.2,0.2-0.1,0.2-0.3,0
			C24.7,35.7,24,36.4,24.4,36.8L24.4,36.8z"/>
	</g>
</g>
</svg>
