<?xml version="1.0" encoding="utf-8"?>
<!-- Generator: Adobe Illustrator 22.0.0, SVG Export Plug-In . SVG Version: 6.00 Build 0)  -->
<svg version="1.1" id="Layer_1" xmlns="http://www.w3.org/2000/svg" xmlns:xlink="http://www.w3.org/1999/xlink" x="0px" y="0px"
	 viewBox="0 0 144 144" style="enable-background:new 0 0 144 144;" xml:space="preserve">
<style type="text/css">
	.st0{fill:#263238;}
	.st1{fill:#F8A491;}
	.st2{fill:#F58D80;}
	.st3{fill:#8CB0DD;}
	.st4{fill:#F8A592;}
	.st5{fill:#FFFFFF;}
	.st6{fill:#13375B;}
	.st7{fill:url(#SVGID_1_);}
	.st8{fill:#FFF200;}
	.st9{fill:#F37458;}
	.st10{fill:#F8A492;}
	.st11{fill:#754C29;}
	.st12{opacity:0.5;fill:#C8E2F6;}
	.st13{fill:url(#SVGID_2_);}
	.st14{fill:#F9E0B2;}
	.st15{opacity:0.5;fill:#F9E0B2;}
	.st16{fill:#A7A9AC;}
	.st17{fill:#BCBEC0;}
	.st18{opacity:0.5;fill:#808285;}
	.st19{fill:#58595B;}
	.st20{fill:#314394;}
	.st21{fill:#944538;}
	.st22{fill:#34548A;}
	.st23{fill:#476EB5;}
	.st24{fill:#B85742;}
	.st25{fill:#F5333F;}
	.st26{fill:#EFEDE8;}
	.st27{fill:#F8CC7F;}
	.st28{fill:#EBF7F8;}
	.st29{opacity:0.5;fill:#476EB5;}
	.st30{opacity:0.5;fill:#88AED1;}
	.st31{fill:#98D5C7;}
	.st32{fill:#51C0A5;}
	.st33{fill:#C8E2F6;}
	.st34{fill:#009444;}
	.st35{fill:#3C8F7C;}
	.st36{fill:#6D6E71;}
</style>
<g>
	<g>
		<g>
			<path class="st0" d="M71.6,67.1c0-1.8,0.1-3.6,1.5-5.2c1.1-1.3,2.7-1.9,4.3-1.7c4.5,0.5,2.6,4.5,8.6,7c1.9,0.8,3.6,1.5,4.9,2.8
				c2.5,2.5,2.9,5.6-0.1,9.7c-7.3,10.2-16.3-2.4-17.5-4.8C72,72.5,71.6,68.3,71.6,67.1z"/>
			<g>
				<g>
					<path class="st1" d="M90.5,66.7c1-1.1,3.2-4.9,4-6.3c0-0.1-0.1-0.9,0.5-2c0.4-0.8,0.5-2.4,1-2c0.5,0.3-0.2,1.7,0.2,1.7
						c0.4-0.1,1.9-2.9,2.4-2.6c0.4,0.3-1.2,2.9-0.8,2.8c0.4-0.1,1.6-2.6,2.2-2.2c0.6,0.4-1.7,2.8-1.4,3.1c0.3,0.2,1.7-1.3,2.2-1
						c0.5,0.4-2,2-1.8,2c0.2,0,1.8-0.5,1.9-0.1c0.1,0.3-3.8,1.8-4.1,2.5l0,0c-0.7,1.9-1.8,5.5-3.4,7.3c-1.9,2.2-6.5,7-6.5,7
						l-3.4-2.9C83.3,73.9,89.3,68,90.5,66.7z"/>
					<path class="st2" d="M96.3,58.8c0.1,0.2,0.2,0.4,0.3,0.6c0,0,0.3,0.7-0.2,1.4C96.5,60.3,96.7,59.8,96.3,58.8z"/>
				</g>
				<g>
					<path class="st1" d="M65.4,68.4c-1.2-0.9-4-4.3-5-5.4c0-0.1-0.1-0.9-0.8-1.9c-0.5-0.7-0.9-2.3-1.3-1.8
						c-0.4,0.4,0.5,1.7,0.1,1.7c-0.4,0-2.4-2.5-2.8-2.1c-0.4,0.4,1.7,2.6,1.3,2.6c-0.4,0-2-2.3-2.5-1.7c-0.5,0.5,2.2,2.5,1.9,2.8
						c-0.3,0.3-1.9-1-2.3-0.5c-0.4,0.4,2.3,1.6,2.1,1.6c-0.2,0-1.8-0.1-1.9,0.2c0,0.4,4,1.1,4.5,1.7l0,0c1,1.8,2.8,5.1,4.6,6.5
						c2.3,1.8,7.6,5.7,7.6,5.7l2.8-3.5C73.7,74.2,66.8,69.5,65.4,68.4z"/>
					<path class="st2" d="M58.3,61.7c-0.1,0.2-0.2,0.4-0.2,0.7c0,0-0.1,0.8,0.5,1.4C58.4,63.3,58.1,62.8,58.3,61.7z"/>
				</g>
				<path class="st3" d="M68.7,70.4l-2.2,4.9l5.1,5c0,0,0.6,4.4,0.3,5.9c-0.3,1.5-2.2,7.8-2.2,7.8s8.9,3.1,16.3,0.6
					c0,0-0.3-11.8,0-13.1c0.4-1.2,5-8,5-8l-3.8-4L83,73.5c0,0-9.2,0.6-9.7,0.2C72.7,73.4,68.7,70.4,68.7,70.4z"/>
				<path class="st4" d="M79.5,67.3c-0.1,0.8,0.2,1.4,0.7,1.5c0.5,0.1,1-0.5,1.1-1.3c0.1-0.8-0.2-1.4-0.7-1.5
					C80,66,79.5,66.5,79.5,67.3z"/>
				<path class="st4" d="M71.9,67.5c0.1,0.7,0.6,1.3,1.1,1.2c0.5-0.1,0.8-0.8,0.7-1.5c-0.1-0.7-0.6-1.3-1.1-1.2
					C72.1,66.1,71.8,66.8,71.9,67.5z"/>
				<path class="st4" d="M75.9,71.6c0,0,0,1.9,0,2.8c0,0.4,0.2,0.7,0.6,0.7c0.9,0.2,2.7,0.4,3.5-0.9c0.1-0.1,0.1-0.3,0.1-0.4l-1-4.1
					L75.9,71.6z"/>
				<path class="st2" d="M75.9,72.6c1,0.3,2.1,0,3.1-1c0.1-0.1,0.3-0.3,0.4-0.4L79,69.7l-3.1,1.9C75.9,71.6,75.9,72,75.9,72.6z"/>
				<path class="st4" d="M76.2,61.5c0,0,1.6,0.1,2.8,1.3c1.2,1.3,2.6,5.4-0.1,8c-2.7,2.6-5.6,0.2-6.1-2.5
					C72.2,65.6,72.6,61.8,76.2,61.5z"/>
			</g>
			<path class="st0" d="M80.3,66c0,0-4.3-0.3-6.3-4.1l3.3-1.1l2.5,2.4c0,0,1.2,1.5,1.2,1.7C81,65.1,80.3,66,80.3,66z"/>
		</g>
		<path class="st5" d="M77.5,69.3l-2.5,0c0,0,0.1,1,1.2,1C77.5,70.3,77.5,69.3,77.5,69.3z"/>
	</g>
	<ellipse cx="74.9" cy="66.7" rx="0.7" ry="0.7"/>
	<ellipse cx="77.7" cy="66.7" rx="0.7" ry="0.7"/>
</g>
<g>
	<g>
		<g>
			<path class="st6" d="M115.6,73l-5.9-5.9h0l-5.9-5.9c-0.2-0.2-0.5-0.2-0.7,0c-0.2,0.2-0.2,0.5,0,0.7l5.9,5.9l0,0l5.9,5.9
				c0.2,0.2,0.5,0.2,0.7,0C115.8,73.5,115.8,73.2,115.6,73z"/>
			<path class="st0" d="M110.9,64.8c8,4.2,15-1.2,14.8-1c0.2-0.2,1.5-0.6,2.3-0.9c3.5-1.3,5.9-4.8,6.2-8.6c5.1-2.4,7-8.3,4-12
				c1.4-3.6-0.9-8-4.1-10.2c-2.1-4.7-8.8-3.4-12.7-0.3c-1.9,1.6-3.2,4-3.5,6.6c-4.3,1.3-8.1,4.4-7.6,9
				C104.5,51.2,102.8,60.5,110.9,64.8z"/>
			<path class="st2" d="M100.4,52.7c0,0,0.8-1.6,5.1-2.4c4.3-0.8,7.7-0.9,7.7-0.9l0.2,5.3c0,0-6.8,1.1-8.1,1.6
				C104.1,56.7,100.4,52.7,100.4,52.7z"/>
			<linearGradient id="SVGID_1_" gradientUnits="userSpaceOnUse" x1="110.4811" y1="51.9761" x2="125.1739" y2="51.9761">
				<stop  offset="0" style="stop-color:#FFF33B"/>
				<stop  offset="5.948725e-02" style="stop-color:#FFE029"/>
				<stop  offset="0.1303" style="stop-color:#FFD218"/>
				<stop  offset="0.2032" style="stop-color:#FEC90F"/>
				<stop  offset="0.2809" style="stop-color:#FDC70C"/>
				<stop  offset="0.6685" style="stop-color:#F3903F"/>
				<stop  offset="0.8876" style="stop-color:#ED683C"/>
				<stop  offset="1" style="stop-color:#E93E3A"/>
			</linearGradient>
			<path class="st7" d="M110.5,48.8l0.5,7.2c0,0,6-0.4,8.5,0c3.1,0.4,6.7-6.2,5.5-7.1C122.3,46.8,110.5,48.8,110.5,48.8z"/>
			<path class="st8" d="M133.1,60.6c0.9-5.8,1.5-10.9,1.5-10.9c-1.2-0.7-8.1-1-10-1.2c-0.4,0-1.2-0.3-1.2-0.3
				c-1,0.3-4.5,1.2-6.6,5.6c-2.5,5.3-1.3,8.6-1,14.7c0.2,4-1.2,13-1.2,13c3.1,4.2,14.4,4.5,18.3,1.2l-2.8-12.2
				C130.2,67.5,132.8,61.5,133.1,60.6z"/>
			<path class="st1" d="M128.1,43.4c0,0-0.7,4-0.6,5.5c0.1,1.6-0.6,6.6-3.7,6.6c-3.2,0-0.6-6.4-0.3-8c0.3-1.5,0.4-6.3,0.4-6.3
				L128.1,43.4z"/>
			<path class="st9" d="M123.8,43.7c0-1.3,0.1-2.4,0.1-2.4l4.3,2.1c0,0-0.2,0.8-0.3,1.8C126,45.6,124.6,44.9,123.8,43.7z"/>
			<path class="st1" d="M129.7,32.4c0,0,1.6,1,2.2,3c0.6,2.1-0.1,7.4-4.3,8.7c-4.2,1.3-6.1-2.9-5.2-6.2
				C123.3,34.6,125.2,30.4,129.7,32.4z"/>
			<path class="st1" d="M121.9,36.6c0.1,0.9,0.5,1.6,1,1.5c0.5-0.1,0.8-0.8,0.7-1.7c-0.1-0.9-0.5-1.6-1-1.5
				C122.1,35,121.8,35.7,121.9,36.6z"/>
			<path class="st1" d="M130.7,40c-0.5,0.8-0.5,1.7,0,2c0.5,0.4,1.3,0,1.8-0.8c0.5-0.8,0.5-1.7,0-2C132,38.9,131.2,39.2,130.7,40z"
				/>
			<path class="st0" d="M125.2,30.7c0,0,3.7,8.8,6.7,8.4c2.9-0.4,0.7-5.2,0.7-5.4c0-0.1-1.8-2.7-2.3-2.7c-0.5,0-3.3-0.3-3.3-0.3
				H125.2z"/>
			<path class="st10" d="M112.3,65.2c0-0.3-0.1-0.7-0.2-1c-1.8-3.2-5.3-8.3-6-9.1c-3.4-3.6-4.9-3-5.5-2.6c-1.2,0.7,0.5,3.7,1.4,5.1
				c1.3,1.9,6.6,7.4,6.8,7.6c-0.2,0.2-0.8,1-0.9,1c-0.1,0.1-0.8,1.5-1,1.7c-0.1,0.2-0.2,0.8-0.2,0.8l-0.4,0.9
				c-0.3,0.7,0.5,0.8,0.5,0.8c-0.2,0.3-0.1,0.6,0.1,0.7c0.2,0.1,0.4,0.2,0.4,0.2c0,0,0,0.1,0,0.1c-0.1,0.2,0.1,0.5,0.2,0.6
				c0.1,0.1,0.5,0.1,0.6,0c0.1-0.1,0.2,0,0.2,0c0.1,0.2,0.7,0.4,0.9,0.3c0.2-0.1,0.7-1.1,0.8-1.2c0.1-0.1,0.3-0.2,0.4-0.3
				c0.1-0.1,1-1,1.1-1.2c0.1-0.2,0.5-1,0.6-1.5C112.1,67.9,112.3,66.1,112.3,65.2z"/>
			<g>
				<path class="st11" d="M116.1,71.7h-1.2h-8.1v2.6c0,3,1.4,5.4,3.1,5.4h5h1.2h5c1.7,0,3.1-2.4,3.1-5.4v-2.6H116.1z"/>
				<path class="st12" d="M108.9,74.3v-2.6h-2v2.6c0,3,1.4,5.4,3.1,5.4h2C110.2,79.7,108.9,77.3,108.9,74.3z"/>
			</g>
			<path class="st10" d="M141,68c0-0.8-3.2-8.7-3.2-8.7l-4.7,2.2c0,0,2,4.7,2.1,5.2c0,0-6.3,4.8-9.6,7c-0.4,0-1.5,0.4-1.9,0.2
				c0,0,0,0,0,0c-0.5-0.2-1.6-0.4-1.9-0.3c-0.3,0-1,0.1-1.3,0.2c-0.4,0.1-0.8,0.1-1,0.2c-0.1,0-0.4,0-0.6,0
				c-0.3-0.1-0.5,0.3-0.3,0.5c0.2,0.2,0.6,0.3,0.8,0.4c0.7,0.1,1.8-0.1,1.8,0c0,0.1-1.7,1.1-1.9,1.2c-0.2,0.1-2.1,1.2-2.4,1.6
				s-0.1,0.6,0.1,0.6c0.2,0,3-1.4,3-1.4s0.4-0.2,0.3,0c-0.1,0.2-2.6,1.4-3,1.7c-0.3,0.3-0.5,0.6-0.1,0.7c0.5,0.1,3.1-1.3,3.1-1.3
				s0.3-0.2,0.4,0c0,0.2-2.2,1.2-2.3,1.4c-0.2,0.2-0.1,0.5,0.3,0.5c0.4,0,2.8-1.3,2.8-1.3s0.2-0.1,0.2,0.1c0,0.1-1.8,1.1-1.9,1.4
				c-0.1,0.2,0.1,0.3,0.1,0.3c0.4,0.3,2-0.9,2.9-1.3c0.3-0.1,2-1.1,4.3-2.6c0,0,0,0,0,0c2.7-1.4,10.2-5.3,10.2-5.3S141,68.8,141,68z
				"/>
			<linearGradient id="SVGID_2_" gradientUnits="userSpaceOnUse" x1="130.0741" y1="55.9847" x2="138.4123" y2="55.9847">
				<stop  offset="0" style="stop-color:#FFF33B"/>
				<stop  offset="5.948725e-02" style="stop-color:#FFE029"/>
				<stop  offset="0.1303" style="stop-color:#FFD218"/>
				<stop  offset="0.2032" style="stop-color:#FEC90F"/>
				<stop  offset="0.2809" style="stop-color:#FDC70C"/>
				<stop  offset="0.6685" style="stop-color:#F3903F"/>
				<stop  offset="0.8876" style="stop-color:#ED683C"/>
				<stop  offset="1" style="stop-color:#E93E3A"/>
			</linearGradient>
			<path class="st13" d="M135,49.8c0,0-1.3-1.2-2.7,0.3c-1.4,1.5-2.7,4.1-2,9.7c0.2,0.5,0.6,2.7,0.6,2.7c1.8,0.6,7.5-2.5,7.5-2.5
				S135.9,50.9,135,49.8z"/>
			<path class="st5" d="M126.9,41.9l-2.5-0.9c0,0-0.3,1,0.8,1.4C126.6,42.9,126.9,41.9,126.9,41.9z"/>
		</g>
		<path class="st14" d="M131.8,48.6c-0.3,0-0.7,0.2-0.9,0.4c-0.7,0.9-2.5,3.4-3.3,6.1c-1,3.4-2.9,6.6-2.3,7.6c0,0,0.3-0.5,2,0.3
			c1.8,0.9,2.1,1.1,3.6,0.7c0,0,0.8-12,2.3-14.5c0.1-0.2,0-0.4-0.2-0.5C132.8,48.7,132.3,48.6,131.8,48.6z"/>
		<path class="st15" d="M127.4,63.1c0.1,0,0.1,0.1,0.2,0.1c0.2-3,0.7-6.2,0.7-6.2c-1,2.1-1.7,4.6-2.1,5.7
			C126.5,62.7,126.9,62.9,127.4,63.1z"/>
	</g>
	<ellipse cx="125.1" cy="37.2" rx="0.9" ry="0.9"/>
	<ellipse transform="matrix(0.7071 -0.7071 0.7071 0.7071 10.2447 101.803)" cx="128" cy="38.5" rx="0.9" ry="0.9"/>
</g>
<g>
	<polygon class="st16" points="129.9,20.2 105.9,16.4 89.9,16.4 65.8,20.2 65.8,26.5 130,26.5 130,20.2 	"/>
	<rect x="89.9" y="6.1" class="st17" width="16" height="10.3"/>
	<rect x="89.9" y="6.1" class="st18" width="8" height="10.3"/>
	<rect x="65.2" y="26.5" class="st6" width="65.4" height="1.6"/>
	<rect x="83.9" y="22" class="st19" width="27.6" height="2.9"/>
</g>
<g>
	<rect x="65.3" y="34.5" class="st9" width="18.4" height="1.1"/>
	<g>
		<path class="st20" d="M77.6,42.8L77.6,42.8c-0.4-0.4-1-0.7-1.6-0.8l-3.7-0.3V56h4c1.2,0,2.1-1,2.1-2.2v-9.1
			C78.4,44,78.1,43.3,77.6,42.8z M76.6,54.8c-0.5,0-0.8-0.4-0.8-0.9c0-0.5,0.4-0.9,0.8-0.9s0.8,0.4,0.8,0.9
			C77.4,54.4,77.1,54.8,76.6,54.8z"/>
		<rect x="72.3" y="33.3" class="st6" width="1.8" height="8.5"/>
	</g>
	<g>
		<path class="st20" d="M80.8,56V42.2l2.9,0v9.7C83.7,51.9,83.2,56,80.8,56z"/>
		<rect x="80.8" y="33.3" class="st6" width="1.6" height="8.9"/>
	</g>
	<g>
		<path class="st20" d="M67.2,39.7v15c0,0,2.4-5.1,2.3-15H67.2z"/>
		<rect x="67.2" y="33.1" class="st6" width="1.1" height="6.6"/>
	</g>
</g>
<g>
	<g>
		<path class="st1" d="M31.6,131.3c0,0-0.2,4-0.2,4c-0.1,0.5-0.4,1.8-0.4,2.2c0,1.7,8-1.5,6.2-2.2c-0.2-0.1-1-0.6-1.1-1.2
			c-0.1-0.9-0.3-2.7-0.3-2.7L31.6,131.3z"/>
		<path class="st9" d="M37.2,135.2c0,0-1.9,0.5-2.8,0.7c-1,0.1-2.2-1-2.9-0.7c-0.7,0.3-0.7,3.6-0.7,3.6s10,0.6,12.8-0.3
			C44.7,138.1,41,136.5,37.2,135.2z"/>
		<path class="st1" d="M14,131.7c0,0-0.2,4-0.2,4c-0.1,0.5-0.4,1.8-0.4,2.2c0,1.7,8-1.5,6.2-2.2c-0.2-0.1-1.3-1-1.3-1.6
			c-0.1-0.9,0-2.3,0-2.3L14,131.7z"/>
		<path class="st9" d="M19.5,135.6c0,0-1.9,0.5-2.8,0.7c-1,0.1-2.2-1-2.9-0.7c-0.7,0.3-0.8,3.3-0.8,3.3s10.7,0.7,13.2,0
			C27.4,138.6,23.4,136.8,19.5,135.6z"/>
		<g>
			<path class="st0" d="M19.8,20.3c-0.7-0.1-1.4-0.2-2.1-0.4c-0.8-0.2-1.8-0.4-2.3-0.4c-1.2,0.1-3.3,0.6-4.2,2
				c-1.1,1.7-3.9,1-1.7,8.5c2.4,8.5,7.3,6.6,7.4,6.4c0.1-0.2,3.3-6.4,3.3-6.4s2.2,2.9,2.2,2.8C22.5,32.7,28.2,21.3,19.8,20.3z"/>
			<path class="st4" d="M53.1,32.6c-0.2-0.5-2.5,0.9-2.9,0.6c-0.5-0.3,2-2.6,1.8-3c-0.4-0.8-2.9,2.4-3.1,2c-0.2-0.3,2.1-3.7,1.3-3.9
				c-0.8-0.2-2,3.7-2.5,3.4c-0.4-0.3,1.5-3.5,0.7-4.2c-0.4-0.4-2.5,6-3.2,6.2c-0.7,0.3-1.5-2.5-2.2-2.4c-0.7,0.1,2.2,5.1,2,5.5
				c-0.1,0.4-2.9,9-4.5,11.5c-0.9-0.4-6.4-2.3-7.3-2.8c-0.4,1.9-1.6,3.3-2.1,5.2c3,1.3,11.4,3.7,12.3,3.4c2.7-0.9,4.2-13.3,4.7-15.6
				c0.5-2.3,1.6-2.7,2.3-4C51,33.6,53.3,33.1,53.1,32.6z"/>
			<path class="st21" d="M35.7,53.9c0,0-11.8-3.2-14.7-5.6c-2.9-2.3-3.5-7.7-0.7-9.5c2.8-1.8,17.6,7.6,17.6,7.6L35.7,53.9z"/>
			<path class="st22" d="M26.7,74.2l3.4,1.4l7.1,32.6l-0.3,24.4l-5.7,0.1c0,0-2.7-21.4-2.7-23c0-1.7-12.3-29-12.3-29L26.7,74.2z"/>
			<path class="st23" d="M24.1,76c0,0-2.5,25.1-2.5,29.3c0,4.2-2,27.9-2,27.9l-5.7,0c0,0-0.4-7.2-1-17.8c-0.1-1.7,0.1-5,0-6.7
				C12,96.3,10.2,84.6,11,80c0.1-0.7,0.4-2.7,0.9-3.2C15.7,73.1,24.1,76,24.1,76z"/>
			<path class="st24" d="M14.7,38.5c0,0-3.9,0.5-5,1.3c-1.2,0.8-2.5,2.7-2.5,2.7s4.8,22,4.8,25.6c0,2.9-1,9.9-1,9.9
				s14.6,0.9,20.2-1.2c0,0-1.7-8.3-1.7-10.5c0-2.2-2.1-22.1-2.6-23.5c-0.4-1.3-1.2-3.5-3.9-4.1C20.3,38,14.7,38.5,14.7,38.5z"/>
			<path class="st4" d="M15.8,32.6l-1,6.1c0,0,3.6,7.3,5.7,6.7c1.8-0.5,0.7-7,0.7-7c0-0.2-1-3.7-0.7-5.2
				C20.8,31.5,15.8,32.6,15.8,32.6z"/>
			<path class="st9" d="M20.5,35.6c0.3-1.7-4.7-0.6-4.7-0.6l-0.1,0.5l-0.1,0.9c0,0,1.7,3.8,5.4,3.3C20.7,38.8,20.4,36.3,20.5,35.6z"
				/>
			<path class="st1" d="M16.2,23.4c2.6-0.9,5.4,0.6,5.9,3.2c0.2,1.1,0.4,2.5,0.5,4c0.2,3.7-1.7,7.3-3.5,7.3c-1.8,0-6.7-2.2-7-7.4
				C11.9,27.3,13.5,24.4,16.2,23.4z"/>
			<path class="st1" d="M13.4,30.9c0,0.8-0.5,1.5-1.2,1.5c-0.7,0-1.3-0.6-1.3-1.4c0-0.8,0.5-1.5,1.2-1.5
				C12.8,29.5,13.4,30.1,13.4,30.9z"/>
			<path class="st0" d="M12.1,29.5c0,0,2.2,0.1,2.7-1.3c0.5-1.4,2.6-4.6,6.3-4.2c3.7,0.4-3.6-2.1-3.9-2.1c-0.3,0.1-3.6,0.7-3.6,0.7
				s-2.1,2.5-2.2,2.7c0,0.2-0.3,2.8-0.3,2.8L12.1,29.5z"/>
			<path class="st5" d="M20.7,33.7L17.6,34c0,0,0.2,1.1,1.6,1C20.8,34.9,20.7,33.7,20.7,33.7z"/>
			<g>
				<path class="st20" d="M32.7,63.2L43.2,74c0,0-5.9-1.5-12.8-8.7L32.7,63.2z"/>
				<polygon class="st6" points="25.7,58.1 26.8,57.1 32.7,63.2 31.6,64.2 				"/>
			</g>
			<path class="st1" d="M33.1,62.4C33,62.3,33,62.3,33,62.3c0.1-0.2,0.1-0.9-0.2-1c-0.2-0.1-1.5-0.2-1.6-0.3
				c-0.1-0.1-0.3-0.2-0.5-0.2c-0.2,0-1.5-0.5-1.7-0.5c-0.3,0-1.1,0.4-1.6,0.5c-0.5,0.1-1.3,0.6-1.5,0.8c-0.2,0.1-3.6-0.1-4.4-0.1
				c-1,0-1.7-0.1-1.7-0.1s-5.6-0.8-11.4-1.2l1-4.5L3.9,55c-0.4,2.6-1.4,6.6-1.4,7.8c-0.1,2.4,8.5,2.1,16.2,1.8h0
				c0.8,0,1.6-0.1,2.4-0.1c1,0,2.6,0.1,3.4,0.1l0,0c0.5,0.1,1.1,0.2,1.2,0.2c0.1,0.1,1,0.2,1.1,0.2c0.1,0,0.4,0.2,0.5,0.2
				c0.1,0.1,1.9,0.1,2.2,0.1c0.3,0,0.9-0.1,0.9-0.1l1.2,0c0.9,0,0.6-0.8,0.6-0.8c0.4,0,0.6-0.2,0.7-0.4c0.1-0.2,0-0.5,0-0.5
				c0,0,0.1-0.1,0.1-0.1c0.3,0,0.4-0.3,0.5-0.5C33.4,62.8,33.2,62.5,33.1,62.4z"/>
			<path class="st24" d="M10.4,39.4c0,0-2.3,0.5-4.7,3.1c-2.2,2.3-3.5,15.4-3.5,15.4l7.5,1.2l0.6-6.3l2-2.9L10.4,39.4z"/>
		</g>
	</g>
	<ellipse cx="16.3" cy="30.1" rx="1.1" ry="0.9"/>
	<ellipse cx="20.7" cy="29.5" rx="1.1" ry="0.9"/>
</g>
<g>
	
		<rect x="25.4" y="81.6" transform="matrix(-1 -1.224647e-16 1.224647e-16 -1 164.7286 222.5655)" class="st25" width="113.9" height="59.4"/>
	
		<rect x="26.8" y="81.6" transform="matrix(-1 -1.224647e-16 1.224647e-16 -1 166.0888 165.4763)" class="st26" width="112.5" height="2.3"/>
	<rect x="105.4" y="79.9" class="st27" width="1.1" height="61.1"/>
	<rect x="63.4" y="79.9" class="st27" width="1" height="61.1"/>
	
		<rect x="44.2" y="81.8" transform="matrix(6.123234e-17 -1 1 6.123234e-17 -56.1749 145.8599)" class="st27" width="1.2" height="38.4"/>
	
		<rect x="44.3" y="102.1" transform="matrix(-1.836970e-16 1 -1 -1.836970e-16 166.1552 76.4702)" class="st27" width="1.2" height="38.4"/>
	
		<rect x="84.5" y="100.7" transform="matrix(-1.836970e-16 1 -1 -1.836970e-16 206.4048 36.2206)" class="st27" width="1.2" height="41.3"/>
	<polygon class="st6" points="111.5,87.3 134.2,87.3 134.5,87.3 134.5,88.3 134.5,90.2 134.2,90.2 134.2,88.3 111.5,88.3 
		111.5,90.2 111.2,90.2 111.2,88.3 111.2,87.3 	"/>
	<polygon class="st6" points="34.2,87.3 56.9,87.3 57.2,87.3 57.2,88.3 57.2,90.2 56.9,90.2 56.9,88.3 34.2,88.3 34.2,90.2 
		33.8,90.2 33.8,88.3 33.8,87.3 	"/>
	<polygon class="st6" points="34.2,105.6 56.9,105.6 57.2,105.6 57.2,106.6 57.2,108.5 56.9,108.5 56.9,106.6 34.2,106.6 
		34.2,108.5 33.8,108.5 33.8,106.6 33.8,105.6 	"/>
	<polygon class="st6" points="34.2,126.1 56.9,126.1 57.2,126.1 57.2,127.1 57.2,129 56.9,129 56.9,127.1 34.2,127.1 34.2,129 
		33.8,129 33.8,127.1 33.8,126.1 	"/>
	<polygon class="st6" points="74,126.1 96.7,126.1 97,126.1 97,127.1 97,129 96.7,129 96.7,127.1 74,127.1 74,129 73.7,129 
		73.7,127.1 73.7,126.1 	"/>
	
		<rect x="67.6" y="85.6" transform="matrix(-1 -1.224647e-16 1.224647e-16 -1 170.6746 185.4572)" class="st6" width="35.5" height="14.2"/>
	<g>
		<path class="st28" d="M95.2,91.3H98c1.6,0,2.9-1.3,2.9-3l0,0h-8.6l0,0C92.3,89.9,93.6,91.3,95.2,91.3z"/>
		<path class="st12" d="M99.8,88.3h1.1c0,1.6-1.3,3-2.9,3h-1.1C98.5,91.3,99.8,89.9,99.8,88.3z"/>
	</g>
	<g>
		<path class="st28" d="M85.1,91.3h2.8c1.6,0,2.9-1.3,2.9-3l0,0h-8.6l0,0C82.2,89.9,83.5,91.3,85.1,91.3z"/>
		<path class="st12" d="M89.7,88.3h1.1c0,1.6-1.3,3-2.9,3h-1.1C88.4,91.3,89.7,89.9,89.7,88.3z"/>
	</g>
	<g>
		<path class="st9" d="M85.2,92.8H88c1.6,0,2.9-1.3,2.9-3l0,0h-8.6l0,0C82.3,91.4,83.6,92.8,85.2,92.8z"/>
		<path class="st29" d="M89.7,89.8h1.1c0,1.6-1.3,3-2.9,3h-1.1C88.4,92.8,89.7,91.4,89.7,89.8z"/>
	</g>
	<g>
		<path class="st28" d="M85.1,94.6h2.8c1.6,0,2.9-1.3,2.9-3l0,0h-8.6l0,0C82.2,93.3,83.5,94.6,85.1,94.6z"/>
		<path class="st12" d="M89.7,91.7h1.1c0,1.6-1.3,3-2.9,3h-1.1C88.4,94.6,89.7,93.3,89.7,91.7z"/>
	</g>
	<g>
		<path class="st9" d="M85.2,96.5H88c1.6,0,2.9-1.3,2.9-3l0,0h-8.6l0,0C82.3,95.1,83.6,96.5,85.2,96.5z"/>
		<path class="st29" d="M89.7,93.5h1.1c0,1.6-1.3,3-2.9,3h-1.1C88.4,96.5,89.7,95.1,89.7,93.5z"/>
	</g>
	<g>
		<path class="st28" d="M85.1,98.3h2.8c1.6,0,2.9-1.3,2.9-3l0,0h-8.6l0,0C82.2,97,83.5,98.3,85.1,98.3z"/>
		<path class="st12" d="M89.7,95.4h1.1c0,1.6-1.3,3-2.9,3h-1.1C88.4,98.3,89.7,97,89.7,95.4z"/>
	</g>
	<g>
		<path class="st9" d="M85.2,99.8H88c1.6,0,2.9-1.3,2.9-3l0,0h-8.6l0,0C82.3,98.5,83.6,99.8,85.2,99.8z"/>
		<path class="st29" d="M89.7,96.8h1.1c0,1.6-1.3,3-2.9,3h-1.1C88.4,99.8,89.7,98.5,89.7,96.8z"/>
	</g>
	<g>
		<path class="st27" d="M95.3,92.8h2.8c1.6,0,2.9-1.3,2.9-3l0,0h-8.6l0,0C92.4,91.4,93.7,92.8,95.3,92.8z"/>
		<path class="st29" d="M99.8,89.8h1.1c0,1.6-1.3,3-2.9,3h-1.1C98.5,92.8,99.8,91.4,99.8,89.8z"/>
	</g>
	
		<rect x="67.6" y="102.9" transform="matrix(-1 -1.224647e-16 1.224647e-16 -1 170.733 219.9738)" class="st6" width="35.5" height="14.2"/>
	<g>
		<path class="st28" d="M95.2,94.6H98c1.6,0,2.9-1.3,2.9-3l0,0h-8.6l0,0C92.3,93.3,93.6,94.6,95.2,94.6z"/>
		<path class="st12" d="M99.8,91.7h1.1c0,1.6-1.3,3-2.9,3h-1.1C98.5,94.6,99.8,93.3,99.8,91.7z"/>
	</g>
	
		<rect x="67.6" y="85.6" transform="matrix(-1 -1.224647e-16 1.224647e-16 -1 142.523 185.4572)" class="st30" width="7.3" height="14.2"/>
	<g>
		<path class="st27" d="M95.3,96.5h2.8c1.6,0,2.9-1.3,2.9-3l0,0h-8.6l0,0C92.4,95.1,93.7,96.5,95.3,96.5z"/>
		<path class="st29" d="M99.8,93.5h1.1c0,1.6-1.3,3-2.9,3h-1.1C98.5,96.5,99.8,95.1,99.8,93.5z"/>
	</g>
	
		<rect x="67.6" y="102.9" transform="matrix(-1 -1.224647e-16 1.224647e-16 -1 142.523 219.9738)" class="st30" width="7.3" height="14.2"/>
	<g>
		<path class="st28" d="M95.2,98.3H98c1.6,0,2.9-1.3,2.9-3l0,0h-8.6l0,0C92.3,97,93.6,98.3,95.2,98.3z"/>
		<path class="st12" d="M99.8,95.4h1.1c0,1.6-1.3,3-2.9,3h-1.1C98.5,98.3,99.8,97,99.8,95.4z"/>
	</g>
	<g>
		<path class="st27" d="M95.3,99.8h2.8c1.6,0,2.9-1.3,2.9-3l0,0h-8.6l0,0C92.4,98.5,93.7,99.8,95.3,99.8z"/>
		<path class="st29" d="M99.8,96.8h1.1c0,1.6-1.3,3-2.9,3h-1.1C98.5,99.8,99.8,98.5,99.8,96.8z"/>
	</g>
	<g>
		<g>
			<path class="st31" d="M94.2,116.3h-7l0,0c0,0.4,0.1,0.8,0.3,0.8h6.5C94.1,117.1,94.2,116.7,94.2,116.3L94.2,116.3z"/>
			<path class="st32" d="M94.2,115.5h-7l0,0c0,0.4,0.4,0.8,0.8,0.8H94c0.1,0,0.2-0.1,0.2-0.2V115.5z"/>
			<path class="st31" d="M94.2,114.7h-7l0,0c0,0.4,0.1,0.8,0.3,0.8h6.5C94.1,115.5,94.2,115.1,94.2,114.7L94.2,114.7z"/>
			<path class="st32" d="M94.2,113.9h-7l0,0c0,0.4,0.1,0.8,0.3,0.8h6.5C94.1,114.7,94.2,114.3,94.2,113.9L94.2,113.9z"/>
			<path class="st31" d="M94.2,113.1h-7l0,0c0,0.4,0.1,0.8,0.3,0.8h6.5C94.1,113.9,94.2,113.5,94.2,113.1L94.2,113.1z"/>
			<path class="st32" d="M94.2,112.3h-7l0,0c0,0.4,0.1,0.8,0.3,0.8h6.5C94.1,113.1,94.2,112.7,94.2,112.3L94.2,112.3z"/>
		</g>
		<path class="st12" d="M91.1,113.1h0.3c-0.1,0-0.3-0.4-0.3-0.8h7c0,0.4-0.1,0.8-0.3,0.8h0.3c0,0.4-0.1,0.8-0.3,0.8h0.3
			c0,0.4-0.1,0.8-0.3,0.8h0.3c0,0.4-0.1,0.8-0.3,0.8h0.3v0.5c0,0.2-0.1,0.3-0.3,0.3h0.3c0,0.4-0.1,0.8-0.3,0.8h-6.5
			c-0.1,0-0.3-0.4-0.3-0.8h0c0,0,0,0,0,0v-0.8h0.3c-0.1,0-0.3-0.4-0.3-0.8h0.3c-0.1,0-0.3-0.4-0.3-0.8h0.3
			C91.2,113.9,91.1,113.5,91.1,113.1z"/>
		<g>
			<path class="st9" d="M99.4,116.3h-7l0,0c0,0.4,0.1,0.8,0.3,0.8h6.5C99.3,117.1,99.4,116.7,99.4,116.3L99.4,116.3z"/>
			<path class="st28" d="M99.4,115.5h-7l0,0c0,0.4,0.4,0.8,0.8,0.8h5.9c0.2,0,0.3-0.1,0.3-0.3V115.5z"/>
			<path class="st9" d="M99.4,114.7h-7l0,0c0,0.4,0.1,0.8,0.3,0.8h6.5C99.3,115.5,99.4,115.1,99.4,114.7L99.4,114.7z"/>
			<path class="st28" d="M99.4,113.9h-7l0,0c0,0.4,0.1,0.8,0.3,0.8h6.5C99.3,114.7,99.4,114.3,99.4,113.9L99.4,113.9z"/>
			<path class="st9" d="M99.4,113.1h-7l0,0c0,0.4,0.1,0.8,0.3,0.8h6.5C99.3,113.9,99.4,113.5,99.4,113.1L99.4,113.1z"/>
			<path class="st28" d="M99.4,112.3h-7l0,0c0,0.4,0.1,0.8,0.3,0.8h6.5C99.3,113.1,99.4,112.7,99.4,112.3L99.4,112.3z"/>
		</g>
	</g>
	<g>
		<g>
			<path class="st31" d="M78.2,110.8L78.2,110.8c2.4,0,4.3-1.9,4.3-4.3v-2.2h-8.6v2.2C73.9,108.8,75.8,110.8,78.2,110.8z"/>
			<path class="st12" d="M80.7,109.1v-4.8h1.8v4.8c0,0.9-0.7,1.6-1.6,1.6h-1.8C80,110.8,80.7,110,80.7,109.1z"/>
			<path class="st27" d="M73.1,104.9l1.4,0.9c0,0,0,0,0,0l0.2-0.2c0,0,0,0,0,0l-1.4-0.9c0,0,0,0,0,0L73.1,104.9
				C73.1,104.9,73.1,104.9,73.1,104.9z"/>
			<path class="st27" d="M83.2,104.9l-1.4,0.9c0,0,0,0,0,0l-0.2-0.2c0,0,0,0,0,0l1.4-0.9c0,0,0,0,0,0L83.2,104.9
				C83.2,104.9,83.2,104.9,83.2,104.9z"/>
		</g>
		<path class="st6" d="M74.7,117.1h6.9c0.1,0,0.2-0.1,0.2-0.2l0,0c0-0.1-0.1-0.2-0.2-0.2h-6.9c-0.1,0-0.2,0.1-0.2,0.2v0
			C74.6,117,74.6,117.1,74.7,117.1z"/>
		<path class="st9" d="M78.2,116.7L78.2,116.7c3,0,5.5-2.5,5.5-5.5v-2.8h-11v2.8C72.7,114.2,75.1,116.7,78.2,116.7z"/>
		<path class="st12" d="M81.4,114.6v-6.2h2.3v6.2c0,1.2-0.9,2.1-2,2.1h-2.3C80.5,116.7,81.4,115.7,81.4,114.6z"/>
		<path class="st27" d="M71.7,109.2l1.8,1.2c0,0,0,0,0,0l0.2-0.3c0,0,0,0,0,0l-1.8-1.2c0,0,0,0,0,0L71.7,109.2
			C71.7,109.1,71.7,109.2,71.7,109.2z"/>
		<path class="st27" d="M84.7,109.2l-1.8,1.2c0,0,0,0,0,0l-0.2-0.3c0,0,0,0,0,0l1.8-1.2c0,0,0,0,0,0L84.7,109.2
			C84.7,109.1,84.7,109.2,84.7,109.2z"/>
		<path class="st33" d="M73.8,103.8h8.7c0.1,0,0.2,0.1,0.2,0.2l0,0c0,0.1-0.1,0.2-0.2,0.2h-8.7c-0.1,0-0.2-0.1-0.2-0.2l0,0
			C73.6,103.9,73.7,103.8,73.8,103.8z"/>
	</g>
	<g>
		<path class="st28" d="M79.3,91.3v-4.5h-1.1v4.5l0,0c-0.4,0-0.8,0.4-0.8,0.8v7.7h2.7v-7.7C80.1,91.6,79.7,91.3,79.3,91.3L79.3,91.3
			z"/>
		<path class="st12" d="M79.3,91.3v-4.5h-0.6v4.5c0.4,0,0.8,0.4,0.8,0.8v7.7h0.6v-7.7C80.1,91.6,79.7,91.3,79.3,91.3z"/>
		<rect x="78.2" y="86.8" class="st9" width="1.1" height="2.2"/>
		<rect x="77.4" y="94.8" class="st31" width="2.7" height="3.9"/>
	</g>
	<g>
		<path class="st28" d="M75.5,91.3v-4.5h-1.1v4.5l0,0c-0.4,0-0.8,0.4-0.8,0.8v7.7h2.7v-7.7C76.3,91.6,75.9,91.3,75.5,91.3L75.5,91.3
			z"/>
		<path class="st29" d="M75.5,91.3v-4.5h-0.6v4.5c0.4,0,0.8,0.4,0.8,0.8v7.7h0.6v-7.7C76.3,91.6,75.9,91.3,75.5,91.3z"/>
		<rect x="74.4" y="86.8" class="st9" width="1.1" height="2.2"/>
		<rect x="73.6" y="94.8" class="st27" width="2.7" height="3.9"/>
	</g>
	<g>
		<path class="st28" d="M71.7,91.3v-4.5h-1.1v4.5l0,0c-0.4,0-0.8,0.4-0.8,0.8v7.7h2.7v-7.7C72.5,91.6,72.1,91.3,71.7,91.3L71.7,91.3
			z"/>
		<path class="st12" d="M71.7,91.3v-4.5h-0.6v4.5c0.4,0,0.8,0.4,0.8,0.8v7.7h0.6v-7.7C72.5,91.6,72.1,91.3,71.7,91.3z"/>
		<rect x="70.6" y="86.8" class="st9" width="1.1" height="2.2"/>
		<rect x="69.8" y="94.8" class="st3" width="2.7" height="3.9"/>
	</g>
	
		<rect x="23.1" y="79.3" transform="matrix(-1 -1.224647e-16 1.224647e-16 -1 164.2803 162.0818)" class="st6" width="118" height="3.5"/>
</g>
<path class="st34" d="M37.7,77.8c0,0-2.5-6.5-2.4-7.6c0.1-1.1,1.1-1.6,1.6-0.4c0.6,1.3,0.8,2.6,1.2,2.1c0.4-0.5-1.1-5.7,0.6-6
	c1.7-0.3,0.6,6.7,1.3,6.5c0.7-0.2,1-7.6,2.9-7c1.8,0.6-1.2,7.6-0.5,7.6c0.7,0,1.8-6.6,3.8-5.6c2,1-2.6,6.1-1.8,7
	c0.7,0.8,3.6-5.4,5.5-3.6c1.9,1.8-4.6,5.4-4.4,5.7c0.2,0.3,5.5-4.2,6.7-2.5c1.2,1.7-4.1,2.6-3.8,3.1c0.3,0.6,3-0.4,2.9,0.7
	c-0.2,1.1-5.9,1.1-5.9,1.1L37.7,77.8z"/>
<g>
	<path class="st35" d="M41,73.1c-0.7-0.4-1-1-0.3-1.5c0.8-0.7,2.3-0.4,2.9,0.6c0.4,0.7,0.2,1.8-0.3,2.4c-0.2,0.3-0.6,0.6-1,0.8
		c-0.4,0.2-1,0.3-1.2,0.3l0.1,0.4c0.2,0,0.5-0.1,0.7-0.1c0.8-0.2,1.3-0.7,1.7-1.2c0,0,1.1-1.4,0.3-2.7c-0.7-1.4-3-1.7-3.9-0.5
		c-0.6,0.7-0.1,1.6,0.7,2.1L41,73.1z"/>
	<path class="st6" d="M25.6,74.2c0.2-1.9,2.4-3.2,5-3c1.9,0.2,3.4,1.1,4,2.4c3.8,0.5,6.7,1.8,6.6,3.1c-0.1,0.6-0.7,0.9-1.2,1.1
		c-0.9,0.4-1.9,0.5-2.9,0.6c-1.2,0.1-2.5,0.1-3.7,0.1c-1.2,0-2.4-0.1-3.6-0.3c-0.9-0.2-1.9-0.5-2.7-1c-0.7-0.4-1.2-1.1-1.4-1.8
		C25.6,75,25.6,74.6,25.6,74.2z"/>
	<path class="st23" d="M39.3,75.6c0,0-5.3-0.9-5.7-1.1c-0.5-0.2-0.3-1.3-2.2-1.9c-1.9-0.6-3.2-0.1-3.5,0.9c-0.3,1,1,1.9,1.6,1.3
		c0.6-0.6,0.8-1.4,1.9-1.1c1.1,0.2,1.9,1.3,1.9,1.3L39.3,75.6z"/>
	<path class="st35" d="M38.8,75.4l0.5,0.3L38.9,76l0.6,0.2l-0.6,0.3l0,0l0.6,0.4l-0.6,0.4l0.6,0.3l-0.1,0.4c1.8-0.1,2.3-1.4,2.3-1.4
		c0-0.2,0.1-0.3,0.1-0.5c0-1.7-2.9-1.9-2.9-1.9l0.4,0.3L39,74.8l0.3,0.3L38.8,75.4z"/>
</g>
<g>
	<path class="st2" d="M47.1,75.2c0.1,1.7,2.2,3.2,4.4,3.2c2.1,0,4.2-1.6,4.2-3.3c0-2.4-1.2-2.4-2.7-2.2c-0.3,0-0.6,0.1-0.9,0.1
		c-0.2,0-0.4,0-0.6,0c-0.2,0-0.4,0-0.6,0c-0.2,0-0.5,0-0.7-0.1C48.5,72.7,47,72.5,47.1,75.2z"/>
	<g>
		<path class="st32" d="M52.6,70.6C52.6,70.6,52.6,70.6,52.6,70.6L52.6,70.6C52.6,70.6,52.6,70.6,52.6,70.6z"/>
		<path class="st32" d="M49.4,71.9c0.2-0.2,0.4,0,0.4,0c-0.3,0-0.2,0.4,0.1,0.6c0.2,0.2,1.2,0.1,1.6,0c0,0,0,0,0.1,0
			c-0.3-0.8,0.1-2.8,1.2-2.4l-0.2,0.5c0,0-0.1,0-0.1,0c-0.5-0.1-0.9,1.3-0.7,1.9c0.7,0,1.8,0.4,1.9,0.1c0.2-0.3-0.2-0.3-0.2-0.3
			l-0.3,0.1c0,0,0.3-0.5,0.7-0.4c0.6,0.2,0.4,0.7,0.3,0.9C54,73,52.9,73,52.4,73c0.2,0.1,0.7,0.4,1,0.8c0.3,0.5-0.3,1.3-0.3,1.3
			s0.4-0.7,0-1.1c-0.3-0.3-0.9-0.7-1.2-0.9l0,1.8c0,0-0.4-0.4-0.4-1.1c0-0.5,0.1-0.7,0.1-0.8l-0.4,0c-0.2,0.1-0.6,0.2-0.8,0.4
			c-0.4,0.3,0.2,0.9,0.2,0.9s-0.3-0.1-0.5-0.4c-0.3-0.6,0-0.8,0.3-0.9c-0.2,0-0.4,0-0.8-0.1C49.1,72.8,49.2,72.1,49.4,71.9z"/>
	</g>
</g>
<g>
	<path class="st24" d="M43.9,76.4c0.1,1.3,1.8,2.5,3.5,2.4c1.7-0.1,3.3-1.4,3.2-2.7c-0.1-1.9-1-1.9-2.2-1.7c-0.2,0-0.5,0.1-0.7,0.1
		c-0.1,0-0.3,0-0.4,0c-0.2,0-0.3,0-0.5,0c-0.2,0-0.4,0-0.6,0C44.9,74.4,43.7,74.2,43.9,76.4z"/>
	<g>
		<path class="st35" d="M48.1,72.6C48.1,72.6,48.1,72.6,48.1,72.6L48.1,72.6C48.1,72.6,48.1,72.6,48.1,72.6z"/>
		<path class="st35" d="M45.6,73.7c0.2-0.2,0.3,0,0.3,0c-0.2,0-0.1,0.3,0.1,0.5c0.1,0.1,1,0,1.3,0c0,0,0,0,0.1,0
			c-0.2-0.7,0-2.2,0.9-2l-0.1,0.4c0,0-0.1,0-0.1,0c-0.4,0-0.6,1-0.5,1.6c0.5,0,1.5,0.2,1.5,0.1c0.1-0.2-0.2-0.3-0.2-0.3L48.6,74
			c0,0,0.3-0.4,0.5-0.3c0.4,0.1,0.4,0.6,0.3,0.7c-0.1,0.1-0.9,0.1-1.3,0.1c0.1,0,0.6,0.3,0.8,0.6c0.3,0.4-0.2,1-0.2,1
			s0.3-0.6-0.1-0.9c-0.3-0.2-0.8-0.5-1-0.7l0,1.5c0,0-0.3-0.3-0.3-0.8c0-0.4,0-0.6,0.1-0.7l-0.3,0c-0.2,0.1-0.4,0.2-0.6,0.3
			c-0.3,0.2,0.2,0.7,0.2,0.7s-0.3-0.1-0.4-0.3c-0.3-0.5,0-0.6,0.2-0.7c-0.2,0-0.4,0-0.6,0C45.4,74.4,45.4,73.9,45.6,73.7z"/>
	</g>
</g>
<rect x="24.4" y="78.2" class="st27" width="31.8" height="1.1"/>
<rect x="2.3" y="138.3" transform="matrix(-1 -1.224647e-16 1.224647e-16 -1 144.1258 279.7623)" class="st36" width="139.5" height="3.2"/>
</svg>
