<?xml version="1.0" encoding="utf-8"?>
<!-- Generator: Adobe Illustrator 16.0.0, SVG Export Plug-In . SVG Version: 6.00 Build 0)  -->
<!DOCTYPE svg PUBLIC "-//W3C//DTD SVG 1.1//EN" "http://www.w3.org/Graphics/SVG/1.1/DTD/svg11.dtd">
<svg version="1.1" id="Layer_1" xmlns="http://www.w3.org/2000/svg" xmlns:xlink="http://www.w3.org/1999/xlink" x="0px" y="0px"
	 width="1400px" height="1400px" viewBox="0 0 1400 1400" enable-background="new 0 0 1400 1400" xml:space="preserve">
<g>
	<rect y="0" fill="#FFFFFF" width="1400" height="1400"/>
	<g>
		<path fill="#FFFFFF" d="M1268.5,210.2c0-43.5-35.2-78.7-78.7-78.7H210.2c-43.5,0-78.7,35.2-78.7,78.7v814.2h1137V210.2z"/>
		<path fill="#A8E5FF" d="M410.1,605.6H284.2c-8.3,0-15.1,6.8-15.1,15.1c0,8.4-6.8,15.1-15.1,15.1l0,0h-78.9l0,0
			c-8.3,0-15.1,6.8-15.1,15.1c0,8.4,6.8,15.1,15.1,15.1h125.8c8.4,0,15.1-6.8,15.1-15.1c0-8.4,6.8-15.1,15.1-15.1h78.9l0,0
			c8.4,0,15.1-6.8,15.1-15.1C425.2,612.4,418.4,605.6,410.1,605.6z"/>
		<path fill="#A8E5FF" d="M893.1,189.1H739.8c-10.2,0-18.4,8.2-18.4,18.4c0,10.2-8.3,18.4-18.4,18.4l0,0h-10.2h0
			c-10.2,0-18.4,8.2-18.4,18.4c0,10.2,8.3,18.4,18.4,18.4h67.4c10.2,0,18.4-8.3,18.4-18.4c0-10.2,8.2-18.4,18.4-18.4h96.1l0,0
			c10.2,0,18.4-8.2,18.4-18.4C911.6,197.3,903.3,189.1,893.1,189.1z"/>
		<path fill="#A8E5FF" d="M1187.9,593c8.4,0,15.1-6.8,15.1-15.1c0-8.4-6.8-15.1-15.1-15.1H1129c-8.3,0-15.1,6.8-15.1,15.1
			c0,8.4,6.8,15.1,15.1,15.1h16.7h30.3h6.6H1187.9L1187.9,593z"/>
		<path fill="#A8E5FF" d="M1146.3,494h11.9l0,0c8.4,0,15.1-6.8,15.1-15.1s-6.8-15.1-15.1-15.1h-58.9c-8.4,0-15.1,6.8-15.1,15.1
			s6.8,15.1,15.1,15.1h4.2h12.5H1146.3z"/>
		<path fill="#A8E5FF" d="M504.3,256.2h-6.6h-30.3h-16.7c-8.4,0-15.1-6.8-15.1-15.1c0-8.4-6.8-15.1-15.1-15.1h-58.9
			c-8.4,0-15.1,6.8-15.1,15.1c0,8.4-6.8,15.1-15.1,15.1l0,0h-11.9h-30.3h-12.5c-8.4,0-15.1,6.8-15.1,15.1c0,8.4,6.8,15.1,15.1,15.1
			h16.7h30.3h180.7l0,0c8.4,0,15.1-6.8,15.1-15.1C519.4,263,512.7,256.2,504.3,256.2z"/>
		<path fill="#A8E5FF" d="M230,451.2h16.7h30.3h33.8l0,0c8.4,0,15.1-6.8,15.1-15.1c0-8.4-6.8-15.1-15.1-15.1H230
			c-8.4,0-15.1,6.8-15.1,15.1C214.9,444.4,221.6,451.2,230,451.2z"/>
		<path fill="#A8E5FF" d="M1119.9,327.2h-5.5h-16.7c-8.4,0-15.1-6.8-15.1-15.1c0-8.4-6.8-15.1-15.1-15.1h-62.9
			c-8.3,0-15.1,6.8-15.1,15.1c0,8.4-6.8,15.1-15.1,15.1l0,0h-16h-30.3h-16.7h-29c-8.4,0-15.1,6.8-15.1,15.1
			c0,8.4,6.8,15.1,15.1,15.1h14.3c8.4,0,15.1,6.8,15.1,15.1c0,8.4,6.8,15.1,15.1,15.1h16.7h30.2h16l0,0c8.4,0,15.1-6.8,15.1-15.1v0
			c0,0,0,0,0,0c0-8.4,6.8-15.1,15.1-15.1l0,0h62.9l0,0h36.9l0,0c8.4,0,15.1-6.8,15.1-15.1C1135,334,1128.2,327.2,1119.9,327.2z"/>
		<g>
			<polygon fill="#B8A4A5" points="575.7,608.7 1003.4,608.7 1003.4,452.6 922.5,353.2 506.7,531.1 			"/>
			<polygon fill="#CCB8B9" points="1003.4,353.2 922.5,353.2 1003.4,452.6 			"/>
			<polygon fill="#CCB8B9" points="575.7,608.7 506.7,531.1 922.5,353.2 397.4,353.2 397.4,1024.4 1003.4,1024.4 1003.4,608.7 			
				"/>
		</g>
		<g>
			<g>
				<g>
					<polygon fill="#E0E0E0" points="1268.5,727.1 1203,536.6 1203,968.9 1268.5,968.9 					"/>
					<polygon fill="#E0E0E0" points="1203,536.6 1203,968.9 1054.5,968.9 					"/>
				</g>
				<rect x="1165.4" y="968.9" fill="#E0E0E0" width="37.6" height="55.5"/>
				<rect x="1203" y="968.9" fill="#E0E0E0" width="37.6" height="55.5"/>
			</g>
			<polygon opacity="0.2" fill="#E0E0E0" points="1240.6,985.4 1165.4,978.4 1165.4,968.9 1240.6,968.9 			"/>
		</g>
		<g>
			<g>
				<g>
					<polygon fill="#00A179" points="1228.7,959 1117.7,959 1117.7,635.9 					"/>
					<polygon fill="#00BB8D" points="1117.7,635.9 1117.7,959 1006.6,959 					"/>
				</g>
				<rect x="1089.6" y="959" fill="#AB7F62" width="28.1" height="41.5"/>
				<rect x="1117.7" y="959" fill="#916B53" width="28.1" height="41.5"/>
			</g>
			<polygon opacity="0.2" fill="#231F20" points="1145.8,971.4 1089.6,966.1 1089.6,959 1145.8,959 			"/>
		</g>
		<g>
			<g>
				<g>
					<polygon fill="#E0E0E0" points="402.9,997.8 331.7,997.8 331.7,790.7 					"/>
					<polygon fill="#E0E0E0" points="331.7,790.7 331.7,997.8 260.5,997.8 					"/>
				</g>
				<rect x="313.7" y="997.8" fill="#E0E0E0" width="18" height="26.6"/>
				<rect x="331.7" y="997.8" fill="#E0E0E0" width="18" height="26.6"/>
			</g>
			<polygon opacity="0.2" fill="#E0E0E0" points="349.7,1005.7 313.7,1002.4 313.7,997.8 349.7,997.8 			"/>
		</g>
		<g>
			<g>
				<g>
					<polygon fill="#E0E0E0" points="261.4,997.8 190.2,997.8 190.2,790.7 					"/>
					<polygon fill="#E0E0E0" points="131.4,961.7 131.4,997.8 190.2,997.8 190.2,790.7 					"/>
				</g>
				<rect x="172.2" y="997.8" fill="#E0E0E0" width="18" height="26.6"/>
				<rect x="190.2" y="997.8" fill="#E0E0E0" width="18" height="26.6"/>
			</g>
			<polygon opacity="0.2" fill="#E0E0E0" points="208.2,1005.7 172.2,1002.4 172.2,997.8 208.2,997.8 			"/>
		</g>
		<g>
			<rect x="1056.5" y="996.8" fill="#916B53" width="212" height="27.6"/>
			<rect x="1056.5" y="826.8" fill="#916B53" width="212" height="27.6"/>
			<polygon fill="#AB7F62" points="1215.1,1024.4 1253.4,1024.4 1253.4,813.7 1234.2,792.3 1215.1,813.7 			"/>
			<polygon fill="#AB7F62" points="1145.1,1024.4 1183.4,1024.4 1183.4,813.7 1164.3,792.3 1145.1,813.7 			"/>
			<polygon fill="#AB7F62" points="1075.2,1024.4 1113.5,1024.4 1113.5,813.7 1094.4,792.3 1075.2,813.7 			"/>
		</g>
		<rect x="1003.4" y="353.2" fill="#B8A4A5" width="53.1" height="671.2"/>
		<rect x="663.7" y="767.6" fill="#B8A4A5" width="277.2" height="217.4"/>
		<g>
			<polygon fill="#8FD7FF" points="783.5,778.5 674.6,929 674.6,974.1 708.5,974.1 850.1,778.5 			"/>
			<polygon fill="#47BEFF" points="674.6,778.5 674.6,929 783.5,778.5 			"/>
			<polygon fill="#8FD7FF" points="930,822.8 820.6,974.1 859.2,974.1 930,876.2 			"/>
			<polygon fill="#47BEFF" points="930,876.2 859.2,974.1 930,974.1 			"/>
			<polygon fill="#47BEFF" points="930,778.5 850.1,778.5 708.5,974.1 820.6,974.1 930,822.8 			"/>
		</g>
		<polygon opacity="0.2" fill="#231F20" points="921.5,790.7 921.5,965.6 674.3,965.6 674.3,974.1 921.5,974.1 921.5,974.1 
			930,974.1 930,790.7 		"/>
		<rect x="131.4" y="1076" fill="#808285" width="1137" height="113.8"/>
		<rect x="131.4" y="1024.4" fill="#E6E7E8" width="1137" height="37.1"/>
		<rect x="131.4" y="1061.5" fill="#BCBEC0" width="1137" height="14.5"/>
		<rect x="1025.1" y="577.9" fill="#717375" width="53.1" height="61.6"/>
		<path fill="#F08278" d="M870.3,313.8h-27.2c29.9,0,54.3,24.5,54.3,54.3V504c0,29.9-24.5,54.4-54.3,54.4h27.2
			c29.9,0,54.3-24.5,54.3-54.4V368.1C924.6,338.2,900.1,313.8,870.3,313.8z"/>
		<path fill="#FF8B81" d="M843.1,313.8H580.9h-27.2c-29.9,0-54.3,24.5-54.3,54.3V504c0,29.9,24.5,54.4,54.3,54.4h27.2h262.2
			c29.9,0,54.3-24.5,54.3-54.4V368.1C897.4,338.2,873,313.8,843.1,313.8z"/>
		<path fill="#FFFFFF" d="M553.7,536.6c-18,0-32.6-14.6-32.6-32.6V368.1c0-18,14.6-32.6,32.6-32.6h289.4c18,0,32.6,14.6,32.6,32.6
			V504c0,18-14.6,32.6-32.6,32.6H553.7z"/>
		<rect x="374.8" y="577.9" fill="#808285" width="650.4" height="61.6"/>
		<g>
			<polygon fill="#808285" points="540.2,778.5 466.7,778.5 466.7,1004.7 540.2,958.2 			"/>
			<polygon fill="#6D6E70" points="540.2,778.5 540.2,958.2 466.7,1004.7 466.7,1024.4 599.9,1024.4 599.9,778.5 			"/>
		</g>
		<g>
			<path fill="#D6736B" d="M374.8,769.4c0,0.2,0,0.4,0,0.7c0,27.7,22.5,50.2,50.2,50.2c27.7,0,50.2-22.5,50.2-50.2
				c0-0.2,0-0.4,0-0.7H374.8z"/>
			<rect x="374.8" y="639.5" fill="#F08278" width="100.5" height="130.6"/>
			<path fill="#E6E6E6" d="M475.3,769.4c0,0.2,0,0.4,0,0.7c0,27.7,22.5,50.2,50.2,50.2c27.7,0,50.2-22.5,50.2-50.2
				c0-0.2,0-0.4,0-0.7H475.3z"/>
			<rect x="475.2" y="639.5" fill="#FFFFFF" width="100.4" height="130.6"/>
			<path fill="#D6736B" d="M575.7,769.4c0,0.2,0,0.4,0,0.7c0,27.7,22.5,50.2,50.2,50.2c27.7,0,50.2-22.5,50.2-50.2
				c0-0.2,0-0.4,0-0.7H575.7z"/>
			<rect x="575.7" y="639.5" fill="#F08278" width="100.5" height="130.6"/>
			<path fill="#E6E6E6" d="M676.2,769.4c0,0.2,0,0.4,0,0.7c0,27.7,22.5,50.2,50.2,50.2c27.7,0,50.2-22.5,50.2-50.2
				c0-0.2,0-0.4,0-0.7H676.2z"/>
			<rect x="676.1" y="639.5" fill="#FFFFFF" width="100.5" height="130.6"/>
			<path fill="#D6736B" d="M776.6,769.4c0,0.2,0,0.4,0,0.7c0,27.7,22.5,50.2,50.2,50.2c27.7,0,50.2-22.5,50.2-50.2
				c0-0.2,0-0.4,0-0.7H776.6z"/>
			<rect x="776.6" y="639.5" fill="#F08278" width="100.4" height="130.6"/>
			<path fill="#E6E6E6" d="M877.1,769.4c0,0.2,0,0.4,0,0.7c0,27.7,22.5,50.2,50.2,50.2c27.7,0,50.2-22.5,50.2-50.2
				c0-0.2,0-0.4,0-0.7H877.1z"/>
			<rect x="877" y="639.5" fill="#FFFFFF" width="100.5" height="130.6"/>
			<path fill="#D6736B" d="M977.5,769.4c0,0.2,0,0.4,0,0.7c0,27.7,22.5,50.2,50.2,50.2c27.7,0,50.2-22.5,50.2-50.2
				c0-0.2,0-0.4,0-0.7H977.5z"/>
			<rect x="977.5" y="639.5" fill="#F08278" width="100.5" height="130.6"/>
		</g>
		<g>
			<g>
				<g>
					<polygon fill="#00A179" points="354.9,989.5 261.5,989.5 261.5,717.9 					"/>
					<polygon fill="#00BB8D" points="261.5,717.9 261.5,989.5 168.2,989.5 					"/>
				</g>
				<rect x="237.9" y="989.5" fill="#AB7F62" width="23.6" height="34.9"/>
				<rect x="261.5" y="989.5" fill="#916B53" width="23.6" height="34.9"/>
			</g>
			<polygon opacity="0.2" fill="#231F20" points="285.2,999.9 237.9,995.5 237.9,989.5 285.2,989.5 			"/>
		</g>
		<g>
			<path fill="#00A66B" d="M1268.5,1189.8h-1137c0,2,0.2,3.9,0.3,5.8l1135.9,5.4C1268.1,1197.3,1268.5,1193.6,1268.5,1189.8z"/>
			<path fill="#00B474" d="M131.7,1195.6c3,40.7,36.9,72.9,78.4,72.9h979.6c39.7,0,72.4-29.4,77.8-67.5L131.7,1195.6z"/>
		</g>
		<rect x="166.2" y="1118.6" fill="#E6E7E8" width="83.4" height="10.4"/>
		<rect x="289.1" y="1118.6" fill="#E6E7E8" width="83.4" height="10.4"/>
		<rect x="412.1" y="1118.6" fill="#E6E7E8" width="83.4" height="10.4"/>
		<rect x="535" y="1118.6" fill="#E6E7E8" width="83.4" height="10.4"/>
		<rect x="658" y="1118.6" fill="#E6E7E8" width="83.4" height="10.4"/>
		<rect x="780.9" y="1118.6" fill="#E6E7E8" width="83.4" height="10.4"/>
		<rect x="903.8" y="1118.6" fill="#E6E7E8" width="83.4" height="10.4"/>
		<rect x="1026.8" y="1118.6" fill="#E6E7E8" width="83.4" height="10.4"/>
		<rect x="1149.7" y="1118.6" fill="#E6E7E8" width="83.4" height="10.4"/>
		<text transform="matrix(1 0 0 1 551.9463 483.9502)" fill="#EBEBEB" font-family="'BlackHanSans-Regular'" font-size="118.4902">CAFE</text>
		<text transform="matrix(1 0 0 1 548.4336 480.4404)" fill="#808285" font-family="'BlackHanSans-Regular'" font-size="118.4902">CAFE</text>
		<g>
			<path fill="#47BEFF" d="M385.5,552.3L385.5,552.3C385.6,552.3,385.5,552.3,385.5,552.3z"/>
			<path fill="#47BEFF" d="M359.5,659.2H357C357.7,659.4,358.6,659.4,359.5,659.2z"/>
			<path fill="#42AEEB" d="M377.1,573.3l1.1-3.8c-10.8-10.1-13-32.5-13.2-35.4V384.4h-7.1V534C358.1,537.4,360.9,567.3,377.1,573.3z
				"/>
			<path fill="#42AEEB" d="M440.2,616l-42.2-60.5c-1.7-2.4-3.6-3.5-5.2-3.2h0h-7.1c1.4-0.2,2.9,0.7,4.4,2.3c0.3,0.3,0.6,0.5,0.9,0.9
				L433,616c3.4,4.9,1.7,10.9-3.7,13.3l-66.8,29.1l-0.8,0.3c-0.8,0.4-1.4,0.4-2.1,0.5h4.6h2.6c0.7-0.1,1.3-0.1,2.1-0.5l67.6-29.4
				C441.9,626.8,443.6,620.9,440.2,616z"/>
			<path fill="#47BEFF" d="M433,616l-42.2-60.5c-0.3-0.4-0.6-0.5-0.9-0.9c-1.5-1.7-3-2.6-4.4-2.3h0c-1.7,0.3-3.1,1.9-3.9,4.8
				l-3.5,12.3l-1.1,3.8c-16.2-5.9-19-35.9-19.2-39.2V384.4h-58.1h-7.1l0,151.4c0.9,30.2,15.9,85.1,66.7,100.2l-4.6,16.5
				c-1.1,3.7,0,6,2.3,6.6h2.6c0.7-0.1,1.3-0.1,2.1-0.5l0.8-0.3l66.8-29.1C434.8,626.8,436.5,620.9,433,616z"/>
		</g>
		<path fill="#FFFFFF" d="M342.3,422.9c0,9.3-7.5,16.8-16.8,16.8c-9.3,0-16.8-7.5-16.8-16.8c0-9.3,7.5-16.8,16.8-16.8
			C334.8,406.2,342.3,413.7,342.3,422.9z"/>
		<path fill="#FFFFFF" d="M342.3,484c0,9.3-7.5,16.8-16.8,16.8c-9.3,0-16.8-7.5-16.8-16.8c0-9.3,7.5-16.8,16.8-16.8
			C334.8,467.2,342.3,474.7,342.3,484z"/>
		<path fill="#FFFFFF" d="M342.3,545c0,9.3-7.5,16.8-16.8,16.8c-9.3,0-16.8-7.5-16.8-16.8c0-9.3,7.5-16.8,16.8-16.8
			C334.8,528.2,342.3,535.7,342.3,545z"/>
		<rect x="364.9" y="441.5" fill="#808285" width="32.5" height="18"/>
		<rect x="364.9" y="503.8" fill="#808285" width="32.5" height="18"/>
	</g>
</g>
</svg>
