<?xml version="1.0" encoding="utf-8"?>
<!-- Generator: Adobe Illustrator 22.0.0, SVG Export Plug-In . SVG Version: 6.00 Build 0)  -->
<svg version="1.1" id="Layer_1" xmlns="http://www.w3.org/2000/svg" xmlns:xlink="http://www.w3.org/1999/xlink" x="0px" y="0px"
	 viewBox="0 0 144 144" style="enable-background:new 0 0 144 144;" xml:space="preserve">
<style type="text/css">
	.st0{fill:#FFFFFF;}
	.st1{fill:#EEBE9D;stroke:#A97C50;stroke-miterlimit:10;}
	.st2{fill:none;stroke:#8B5E3C;stroke-miterlimit:10;}
	.st3{fill:#424143;}
	.st4{fill:#E6E7E8;}
	.st5{fill:#D2D3D4;}
	.st6{fill:#006938;}
	.st7{fill:#009447;}
	.st8{fill:url(#SVGID_1_);}
	.st9{fill:#3BB54A;}
	.st10{fill:url(#SVGID_2_);}
	.st11{fill:url(#SVGID_3_);}
	.st12{fill:url(#SVGID_4_);}
	.st13{fill:url(#SVGID_5_);}
	.st14{fill:#FFFFFF;stroke:#8B5E3C;stroke-width:0.75;stroke-miterlimit:10;}
	.st15{fill:#424143;stroke:#8B5E3C;stroke-width:0.75;stroke-miterlimit:10;}
	.st16{fill:url(#SVGID_6_);}
	.st17{fill:#C3996C;}
	.st18{fill:url(#SVGID_7_);}
	.st19{fill:url(#SVGID_8_);}
	.st20{fill:#ED1A3C;stroke:#ED1C24;stroke-miterlimit:10;}
	.st21{fill:url(#SVGID_9_);}
	.st22{fill:#D71A34;}
	.st23{fill:url(#SVGID_10_);}
	.st24{fill:url(#SVGID_11_);}
	.st25{fill:#E71D39;}
	.st26{fill:#BB132C;}
	.st27{fill:#B11B29;}
	.st28{fill:#90101C;}
	.st29{fill:url(#SVGID_12_);}
	.st30{fill:#FFFFFF;stroke:#BE1E2D;stroke-miterlimit:10;}
	.st31{fill:none;stroke:#231F20;stroke-miterlimit:10;}
	.st32{clip-path:url(#SVGID_14_);}
	.st33{fill:#010101;}
</style>
<g>
	<ellipse class="st0" cx="73.9" cy="111" rx="67.4" ry="6.8"/>
	<ellipse class="st1" cx="73.8" cy="111" rx="61.4" ry="5.6"/>
	<ellipse class="st2" cx="73.1" cy="111" rx="52.3" ry="4.4"/>
	<ellipse class="st2" cx="73.1" cy="111" rx="23.3" ry="2"/>
</g>
<g>
	<g>
		<g>
			<path class="st3" d="M122.7,50.4l-7.9,45.1c0,0.2-0.2,0.3-0.4,0.3c-0.2,0-0.4-0.2-0.3-0.4l7-45.2c0.1-0.4,0.5-0.6,0.9-0.6
				C122.4,49.7,122.7,50,122.7,50.4C122.7,50.4,122.7,50.4,122.7,50.4z"/>
			<path class="st3" d="M122.7,50.4L118.2,99c0,0.2-0.2,0.3-0.5,0.3c-0.2,0-0.4-0.2-0.4-0.4l3.6-48.7c0-0.4,0.5-0.7,1-0.7
				C122.3,49.6,122.7,50,122.7,50.4C122.7,50.4,122.7,50.4,122.7,50.4z"/>
			<path class="st3" d="M121,50.4l7.9,45.1c0,0.2,0.2,0.3,0.4,0.3c0.2,0,0.4-0.2,0.3-0.4l-7-45.2c-0.1-0.4-0.5-0.6-0.9-0.6
				C121.3,49.7,120.9,50,121,50.4C121,50.4,121,50.4,121,50.4z"/>
		</g>
		<path class="st3" d="M122.3,49.7C122.3,49.7,122.3,49.7,122.3,49.7C122.2,49.7,122.2,49.7,122.3,49.7c-0.2-0.1-0.3-0.1-0.4-0.1
			c-0.5,0-0.9,0.3-1,0.7l-0.1,0.8l-0.9,6c0.6-0.1,1.4-0.2,2.2-0.2l0-0.2l0,0.2c0.5,0,1,0.1,1.6,0.2l-1.1-6.8
			C122.7,50,122.5,49.8,122.3,49.7z"/>
	</g>
	<path class="st4" d="M130.3,45.4c-10.8-1.1-17.3,0-17.3,0l-1.3,9c0,0,7.1,0.6,20.1,0L130.3,45.4z"/>
	<path class="st5" d="M111.7,54.3c0,0,1.8,0.2,5.3,0.2c-2.2-3.1-2.5-6.5-2.2-9.4c-1.2,0.1-1.8,0.2-1.8,0.2L111.7,54.3z"/>
</g>
<g>
	<g>
		<path class="st6" d="M28.8,68.8c0.8-3.1,2-6.3,4.3-8.6c2.4-2.4,6.2-3.8,9.5-2.8c0.6,0.2,1.3,0.6,1.1,1.2c-0.1,0.2-0.2,0.3-0.4,0.5
			c-0.9,0.9-1.8,1.8-2.8,2.7c-0.6-0.6-1.5-1-2.5-1.1c0.5,0.8,1,1.7,1.5,2.5c-0.7,0.6-1.3,1.2-2,1.8c-0.1,0.1-0.3,0.2-0.4,0.3
			c-0.2,0-0.4-0.1-0.5-0.2c-0.6-0.5-1.2-1-1.9-1.5c-0.1,1.2,0.5,2.5,1.5,3.3c-0.6,0.6-1.1,1.1-1.7,1.7c-0.8-0.6-1.6-1.2-2.5-1.8
			c0.1,1,0.5,2,1.2,2.8c-0.8,0.7-2.1,0.7-3.1,1.2c-1,0.6-1.5,1.6-1.9,2.7c-1.2,3.4-0.9,6.6-1,10C26,78.9,27.7,73.2,28.8,68.8z"/>
		<path class="st7" d="M26.2,77c-0.1-3.9,0.6-7.9,2.4-11.4c0,0.7,0,1.5,0,2.2c2-3.2,4.9-6.1,8.2-8.2c-0.6,0.7-1,1.5-1.3,2.4
			c2.7-2.4,6.7-3.6,10.5-3c-0.5,0.3-1.1,0.7-1.6,1c1.8,0,3.6,0.4,5.1,1.2c-0.7,0.2-1.4,0.3-2,0.5c0.5,0.4,1,0.7,1.5,1.1
			c-3.3,0.8-6.6,1.9-9.8,3.1c0.9-0.1,1.7-0.1,2.6,0c0.1,0,0.3,0,0.4,0.1c0.3,0.3-0.2,0.7-0.7,0.8c-3.9,1.1-7.6,2.8-10.9,5.1
			c0.9-0.3,1.9-0.5,2.9-0.5c-4.2,3.9-6.3,9.6-5.6,15c0.2,1.5,0.8,3.3,0.3,4.8c-1.6-1-0.9-4.4-1.2-5.9C26.7,82.6,26.3,79.8,26.2,77z"
			/>
		<linearGradient id="SVGID_1_" gradientUnits="userSpaceOnUse" x1="48.2977" y1="56.0157" x2="26.9081" y2="74.6992">
			<stop  offset="0" style="stop-color:#FFFFFF;stop-opacity:0"/>
			<stop  offset="1" style="stop-color:#000000"/>
		</linearGradient>
		<path class="st8" d="M30.3,73.4c0.5,0,0.8-0.6,1.1-1c0.3-0.3,0.6-0.5,1-0.8c-0.6,0.1-1.1,0.2-1.6,0.4c3.3-2.2,7-4,10.9-5.1
			c0.4-0.1,1-0.5,0.7-0.8c-0.1-0.1-0.3-0.1-0.4-0.1c-0.9-0.1-1.7-0.1-2.6,0c3.2-1.3,6.4-2.3,9.8-3.1c0,0-0.1,0-0.1-0.1
			c-2.2,0.1-4.4,0.5-6.6,0.8c0.8-0.5,1.7-1.1,2.5-1.6c-1.2-0.1-2.4,0.1-3.4,0.5c0.4-0.6,1-1.2,1.7-1.6c-0.7,0-1.4,0.3-2.1,0.5
			c-2.6,1-5.1,2.4-7.3,4c0.4-0.7,0.8-1.4,1.2-2.1c-1,0.4-1.9,1-2.8,1.6c0.1-1.3,1.8-2.2,2-3.5c-2.2,1.8-4.1,4-5.6,6.3
			c0-0.7,0-1.5,0-2.2c-0.5,0.9-0.9,1.9-1.2,2.9c0.3,1.7,0.9,3.4,2.2,4.6C29.8,73.3,30,73.4,30.3,73.4z"/>
		<path class="st9" d="M30,78.9c1-3.8,1.4-7.8,0.4-11.6c-0.2,0.7-0.3,1.5-0.5,2.2c-1.2-3.6-3.3-6.9-6.1-9.6c0.4,0.8,0.6,1.7,0.6,2.6
			c-2-2.9-5.7-4.8-9.5-4.9c0.4,0.4,0.9,0.9,1.3,1.3c-1.7-0.4-3.6-0.3-5.3,0.2c0.6,0.3,1.2,0.6,1.9,0.9c-0.6,0.3-1.2,0.5-1.7,0.8
			c3.1,1.5,6,3.1,8.8,5c-0.8-0.2-1.7-0.4-2.5-0.5c-0.1,0-0.3,0-0.4,0.1c-0.4,0.2,0.1,0.7,0.5,1c3.6,1.8,6.8,4.2,9.4,7.1
			c-0.8-0.5-1.8-0.8-2.7-1.1c3.2,4.6,3.8,10.6,1.8,15.7c-0.6,1.5-1.6,3.1-1.4,4.7c1.8-0.7,2-4.1,2.6-5.5
			C28.2,84.3,29.3,81.6,30,78.9z"/>
		<linearGradient id="SVGID_2_" gradientUnits="userSpaceOnUse" x1="25.985" y1="64.4356" x2="28.5812" y2="82.7348">
			<stop  offset="0" style="stop-color:#FFFFFF;stop-opacity:0"/>
			<stop  offset="1" style="stop-color:#000000"/>
		</linearGradient>
		<path class="st10" d="M30.4,67.3c-0.2,0.7-0.3,1.5-0.5,2.2c-0.1-0.2-0.1-0.4-0.2-0.6c0,0.1,0,0.2-0.1,0.2c-0.1,0.1-0.3,0-0.4-0.1
			c-0.8-0.6-1.5-1.3-2.2-2.1c-0.1,1.2,0.7,2.4,0.4,3.6c-0.2-0.2-0.3-0.4-0.4-0.7c-0.4-1.1-1.3-2-2.1-2.9c-0.7-0.8-1.4-1.6-2.1-2.4
			c0.6,1.9,1.9,3.7,2.3,5.7c-0.4-0.8-1.1-1.5-1.9-2c0,0.4,0.1,0.9,0.2,1.3c-0.3-0.2-0.6-0.3-0.9-0.5c0,0.1,0,0.3,0,0.4
			c1.5,1.2,2.9,2.4,4.2,3.8c-0.8-0.5-1.8-0.8-2.7-1.1c1.7,2.5,2.7,5.4,2.9,8.3c0.2,0,0.4-0.1,0.6-0.2c0.4-0.2,0.7-0.5,1-0.9
			c0.9-1,1.5-2.2,2.1-3.4C31.1,73.1,31.1,70.1,30.4,67.3z"/>
		<path class="st6" d="M26.1,75.2c-0.8-3.1-2-6.3-4.3-8.6c-2.4-2.4-6.2-3.8-9.5-2.8c-0.6,0.2-1.3,0.6-1.1,1.2
			c0.1,0.2,0.2,0.3,0.4,0.5c0.9,0.9,1.8,1.8,2.8,2.7c0.6-0.6,1.5-1,2.5-1.1c-0.5,0.8-1,1.7-1.5,2.5c0.7,0.6,1.3,1.2,2,1.8
			c0.1,0.1,0.3,0.2,0.4,0.3c0.2,0,0.4-0.1,0.5-0.2c0.6-0.5,1.2-1,1.9-1.5c0.1,1.2-0.5,2.5-1.5,3.3c0.6,0.6,1.1,1.1,1.7,1.7
			c0.8-0.6,1.6-1.2,2.5-1.8c-0.1,1-0.5,2-1.2,2.8c0.8,0.7,2.1,0.7,3.1,1.2c1,0.6,1.5,1.6,1.9,2.7c1.2,3.4,0.9,6.6,1,10
			C28.9,85.3,27.3,79.5,26.1,75.2z"/>
		<linearGradient id="SVGID_3_" gradientUnits="userSpaceOnUse" x1="15.4168" y1="63.1871" x2="28.7324" y2="80.4815">
			<stop  offset="0" style="stop-color:#FFFFFF;stop-opacity:0"/>
			<stop  offset="1" style="stop-color:#000000"/>
		</linearGradient>
		<path class="st11" d="M13.7,66.1c0.6,0.1,1.2,0.4,1.8,0.6c0.9,0.2,1.8,0.1,2.6-0.3c-0.3,0.8-0.7,1.5-1,2.3c0,0.1-0.1,0.2-0.1,0.3
			c0,0.1,0.1,0.2,0.3,0.3c0.4,0.3,0.8,0.6,1.3,0.5c0.2,0,0.3-0.1,0.4-0.2c0.6-0.3,1.1-0.5,1.7-0.8c0.2,0.5,0.5,1,0.5,1.6
			c0.1,0.5-0.1,1.1-0.5,1.5c0.8,0.1,1.8,0.1,2.2-0.5c0.5,0.2,0.5,0.8,0.5,1.3c-0.1,0.7-0.1,1.3-0.2,2c0.8,0,1.4,0.5,1.9,1.1
			c0.5,0.5,0.8,1.2,1.4,1.7c0.1,0.1,0.2,0.2,0.3,0.2c-0.2-0.8-0.4-1.6-0.6-2.4c-0.8-3.1-2-6.3-4.3-8.6c-1.5-1.5-3.6-2.7-5.8-3
			c0,0-0.1,0.1-0.1,0.1C14.9,64.2,14.3,65.2,13.7,66.1z"/>
		<path class="st6" d="M27.4,78.1c0.8-3.1,2-6.3,4.3-8.6c2.4-2.4,6.2-3.8,9.5-2.8c0.6,0.2,1.3,0.6,1.1,1.2c-0.1,0.2-0.2,0.3-0.4,0.5
			c-0.9,0.9-1.8,1.8-2.8,2.7c-0.6-0.6-1.5-1-2.5-1.1c0.5,0.8,1,1.7,1.5,2.5c-0.7,0.6-1.3,1.2-2,1.8c-0.1,0.1-0.3,0.2-0.4,0.3
			c-0.2,0-0.4-0.1-0.5-0.2c-0.6-0.5-1.2-1-1.9-1.5c-0.1,1.2,0.5,2.5,1.5,3.3c-0.6,0.6-1.1,1.1-1.7,1.7c-0.8-0.6-1.6-1.2-2.5-1.8
			c0.1,1,0.5,2,1.2,2.8c-0.8,0.7-2.1,0.7-3.1,1.2c-1,0.6-1.5,1.6-1.9,2.7c-1.2,3.4-0.9,6.6-1,10C24.5,88.3,26.2,82.5,27.4,78.1z"/>
		<linearGradient id="SVGID_4_" gradientUnits="userSpaceOnUse" x1="39.5856" y1="72.7854" x2="18.6454" y2="75.3861">
			<stop  offset="0" style="stop-color:#FFFFFF;stop-opacity:0"/>
			<stop  offset="1" style="stop-color:#000000"/>
		</linearGradient>
		<path class="st12" d="M30.4,77.6c-0.4-0.5-0.3-1.3,0.2-1.7c0.1,0,0.1-0.1,0.1-0.2c0-0.1-0.1-0.2-0.2-0.3c-0.2-0.2-0.2-0.5-0.1-0.7
			c0.6,0,1.1,0.1,1.7,0.2c0.1-0.5,0.5-1,1-1.2c0.1-0.3-0.1-0.6-0.3-0.8c-0.1-0.3-0.2-0.6,0.1-0.8c0.2-0.1,0.5-0.1,0.7,0
			c0.3,0.1,0.7,0.2,1,0.3c0.1,0,0.2,0,0.2,0c0.1,0,0.2-0.2,0.3-0.3c0.3-0.6,0.7-1.2,1.3-1.6c0.1-0.1,0.2-0.2,0.2-0.3
			c0-0.1-0.1-0.2-0.2-0.3c-0.3-0.3-0.6-0.7-0.8-1.1c0-0.1-0.1-0.2-0.1-0.3c0-0.2,0.3-0.3,0.5-0.3c1-0.2,2.1-0.3,3.1-0.5
			c-0.1-0.7-1.1-1-1.8-1.1c-0.2,0-0.5-0.1-0.7-0.1c-1.9,0.5-3.7,1.5-5.1,2.9c-2.4,2.4-3.5,5.5-4.3,8.6c-0.2,0.8-0.5,1.7-0.7,2.7
			c0,0,0,0.1,0,0.1C27.4,79.4,28.7,78.2,30.4,77.6z"/>
	</g>
	<path class="st3" d="M18.8,88.2c0,0,8.4-1.1,15.5,0c0,0-0.2,12.5-5.2,12.9c0,0-1.1,0.3-2.5,0.4c-2,0.1-3.9-0.8-5-2.3
		C20.2,97.4,18.7,94.1,18.8,88.2z"/>
	<linearGradient id="SVGID_5_" gradientUnits="userSpaceOnUse" x1="25.2363" y1="91.2119" x2="23.6586" y2="106.5039">
		<stop  offset="0" style="stop-color:#FFFFFF;stop-opacity:0"/>
		<stop  offset="1" style="stop-color:#000000"/>
	</linearGradient>
	<path class="st13" d="M21.6,99.3c1.1,1.5,3,2.3,5,2.3c1.4-0.1,2.5-0.4,2.5-0.4c0.7-0.1,1.4-0.4,1.9-0.9c-8.4-1.7-10.4-9-10.9-12.2
		c-0.8,0.1-1.3,0.1-1.3,0.1C18.7,94.1,20.2,97.4,21.6,99.3z"/>
</g>
<g>
	<g>
		<rect x="46.1" y="55.6" class="st14" width="54.7" height="2.5"/>
		<path class="st15" d="M101.3,58.6H45.6v-3.5h55.6V58.6z M46.6,57.7h53.7v-1.6H46.6V57.7z"/>
	</g>
	<g>
		<rect x="50.3" y="47.8" class="st0" width="12.9" height="7.6"/>
		<path class="st3" d="M63.7,55.9H49.8v-8.5h13.8V55.9z M50.8,55h11.9v-6.7H50.8V55z"/>
	</g>
	<g>
		<rect x="51.4" y="52" class="st3" width="10.7" height="1.9"/>
		<path class="st3" d="M62.7,54H50.8v-2.3h11.9V54z"/>
	</g>
	<g>
		<rect x="93.5" y="47.3" class="st0" width="2.4" height="8.2"/>
		<path class="st3" d="M96.4,55.9H93v-9.1h3.4V55.9z M94,55h1.4v-7.2H94V55z"/>
	</g>
	<g>
		<polygon class="st0" points="86.1,55.6 83.8,55.1 85.6,47.1 87.9,47.6 		"/>
		<path class="st3" d="M86.5,56.1l-3.3-0.7l2-8.9l3.3,0.7L86.5,56.1z M84.3,54.7l1.4,0.3l1.6-7.1l-1.4-0.3L84.3,54.7z"/>
	</g>
	<g>
		<rect x="88.6" y="48.1" class="st0" width="2.4" height="7.3"/>
		<path class="st3" d="M91.5,55.9h-3.4v-8.2h3.4V55.9z M89.1,55h1.4v-6.4h-1.4V55z"/>
	</g>
	<g>
		<rect x="91.1" y="46.2" class="st0" width="2.4" height="9.2"/>
		<path class="st3" d="M94,55.9h-3.4V45.8H94V55.9z M91.6,55H93v-8.3h-1.4V55z"/>
	</g>
</g>
<g>
	<linearGradient id="SVGID_6_" gradientUnits="userSpaceOnUse" x1="75.4814" y1="107.3111" x2="75.4814" y2="100.3204">
		<stop  offset="0" style="stop-color:#FFFFFF;stop-opacity:0"/>
		<stop  offset="1" style="stop-color:#000000"/>
	</linearGradient>
	<polygon class="st16" points="42.8,105.9 46.1,101.1 105.1,101.1 108.2,105.8 	"/>
	<g>
		<path class="st17" d="M43.2,100.9c0,0.1-0.2,3.2-0.3,4.6c0,0.5,0.5,0.8,0.9,0.5c0,0,0,0,0,0c0.4-0.4,1.2-5.2,1.2-5.2L43.2,100.9z"
			/>
		<linearGradient id="SVGID_7_" gradientUnits="userSpaceOnUse" x1="44.1167" y1="100.7112" x2="43.9" y2="102.2063">
			<stop  offset="0" style="stop-color:#C3996C"/>
			<stop  offset="0.9981" style="stop-color:#C3996C;stop-opacity:0"/>
		</linearGradient>
		<path class="st18" d="M43.2,100.9c0,0,0,0.5-0.1,1.1c0.4,0,1,0,1.6,0.2c0.1-0.8,0.2-1.4,0.2-1.4L43.2,100.9z"/>
		<path class="st17" d="M108,100.9c0,0.1,0.2,3.2,0.3,4.6c0,0.5-0.5,0.8-0.9,0.5c0,0,0,0,0,0c-0.4-0.4-1.2-5.2-1.2-5.2L108,100.9z"
			/>
		<linearGradient id="SVGID_8_" gradientUnits="userSpaceOnUse" x1="107.0043" y1="100.4945" x2="107.3837" y2="102.4864">
			<stop  offset="0" style="stop-color:#C3996C"/>
			<stop  offset="0.9981" style="stop-color:#C3996C;stop-opacity:0"/>
		</linearGradient>
		<path class="st19" d="M106.2,100.8c0,0,0.1,0.8,0.3,1.8c0.4-0.2,0.9-0.4,1.5-0.4c0-0.7-0.1-1.2-0.1-1.2L106.2,100.8z"/>
		<path class="st17" d="M46.3,97.1c0,0.1-0.2,3.2-0.3,4.6c0,0.5,0.5,0.8,0.9,0.5c0,0,0,0,0,0c0.4-0.4,1.2-5.2,1.2-5.2L46.3,97.1z"/>
		<path class="st17" d="M104.8,97.1c0,0.1,0.2,3.2,0.3,4.6c0,0.5-0.5,0.8-0.9,0.5c0,0,0,0,0,0c-0.4-0.4-1.2-5.2-1.2-5.2L104.8,97.1z
			"/>
		<path class="st20" d="M113.9,83.6l-5.6-1.8c0,0,0.3-3.4-0.4-6.9c-0.8-3.5-3.2-2.7-7-2.2s-20.9,1-23.4,1c-1.4,0-1.9,0.9-2,1.7
			c-0.1-0.8-0.6-1.7-2-1.7c-2.5,0-19.6-0.4-23.4-1c-3.8-0.6-6.2-1.3-7,2.2c-0.8,3.5-0.4,6.9-0.4,6.9L37,83.6c0,0-1.1,0.5-0.9,4.5
			c0.1,4,1,13.1,4.7,12c0,0-0.2,1.1,2,1.1h32.6h0.1h32.6c2.2,0,2-1.1,2-1.1c3.7,1.1,4.6-7.9,4.7-12C115,84,113.9,83.6,113.9,83.6z"
			/>
		<linearGradient id="SVGID_9_" gradientUnits="userSpaceOnUse" x1="75.5874" y1="78.4951" x2="75.5874" y2="92.9671">
			<stop  offset="0" style="stop-color:#FFFFFF;stop-opacity:0"/>
			<stop  offset="0.5046" style="stop-color:#908E8E;stop-opacity:0.5046"/>
			<stop  offset="1" style="stop-color:#000000"/>
		</linearGradient>
		<path class="st21" d="M47.6,84.8c1.3-0.7,2.8-0.9,4.3-1.1c6.3-0.6,12.8,0.5,19.1-0.7c1.5-0.3,3.1-0.8,4.1-2.2
			c1.2,1.6,3.2,2.1,5,2.2c1.7,0.1,3.5,0,5.2-0.2c4.2-0.6,8.2-0.8,12.5-0.7c2,0.1,4.1,0.2,5.9,1.3c-0.1,0.5-0.1,1-0.2,1.6
			c0,0.2,0,0.3-0.1,0.5c-0.1,0.1-0.2,0.1-0.4,0.2c-0.7,0.1-1.4,0.2-2.2,0.3c-6.9,0.7-13.9,0-20.8,1.1c-0.2,0-0.3,0.1-0.5,0.1
			c-0.2,0.1-0.3,0.3-0.4,0.5c-0.7,1.1-1,2.5-0.9,3.8c0.1,1.5,1.6,2.3,2.9,2.7c1.3,0.4,2.6,0.6,3.6,1.7c-0.6,0.2-1.3,0.3-2,0.3
			C77.6,96,72.5,96,67.4,95.7c-0.5,0-1,0-1.5-0.2c-0.7-0.2-1.4-0.7-2-1.2c-2.5-1.9-5.1-3.7-7.8-5c-1.4-0.6-2.6-2-4.1-2.6
			c-1.4-0.6-2.9-1-4.3-1.9c-0.1-0.1-0.3-0.2-0.2-0.3C47.6,84.6,47.5,84.8,47.6,84.8z"/>
		<path class="st22" d="M36.7,83.9c0,0,0.3-0.8,1.1,0.2c0.8,0.9,2.7,5.6,2.8,7.7c0.1,2.1,0.3,4.2,0.4,4.4c0.1,0.2,0.1,0.3,0.4,0
			c0.3-0.2,20.8-0.1,25-0.2c4.3-0.1,3.7-10.3,3.7-10.3l-22.3-0.3c0,0-3.1-3.7-4.9-3.7c0,0-0.4,0-0.5,0c-0.1,0-5,1.6-5,1.6
			S36.9,83.5,36.7,83.9z"/>
		<linearGradient id="SVGID_10_" gradientUnits="userSpaceOnUse" x1="50.3704" y1="73.241" x2="56.681" y2="95.2354">
			<stop  offset="0" style="stop-color:#FFFFFF;stop-opacity:0"/>
			<stop  offset="1" style="stop-color:#000000"/>
		</linearGradient>
		<path class="st23" d="M41,96.2c0.1,0.2,0.1,0.3,0.4,0c0.3-0.2,20.8-0.1,25-0.2c3.4,0,3.7-6.5,3.7-9.2l-20.5-0.2
			c0,0-0.3-0.5-0.8-1.2l-1,0c0,0-1-1.2-2.2-2.2c-0.7,1.4-2.5,4.5-5.6,6.2c0.3,0.9,0.5,1.8,0.5,2.4C40.8,93.9,40.9,96,41,96.2z"/>
		<path class="st22" d="M114.2,83.9c0,0-0.3-0.8-1.1,0.2c-0.8,0.9-2.7,5.6-2.8,7.7c-0.1,2.1-0.3,4.2-0.4,4.4c-0.1,0.2-0.1,0.3-0.4,0
			c-0.3-0.2-20.8-0.1-25-0.2c-4.3-0.1-3.7-10.3-3.7-10.3l22.3-0.3c0,0,3.1-3.7,4.9-3.7c0,0,0.4,0,0.5,0c0.1,0,5,1.6,5,1.6
			S114,83.5,114.2,83.9z"/>
		
			<linearGradient id="SVGID_11_" gradientUnits="userSpaceOnUse" x1="146.3094" y1="73.241" x2="152.62" y2="95.2354" gradientTransform="matrix(-1 0 0 1 246.8304 0)">
			<stop  offset="0" style="stop-color:#FFFFFF;stop-opacity:0"/>
			<stop  offset="1" style="stop-color:#000000"/>
		</linearGradient>
		<path class="st24" d="M109.9,96.2c-0.1,0.2-0.1,0.3-0.4,0c-0.3-0.2-20.8-0.1-25-0.2c-3.4,0-3.7-6.5-3.7-9.2l20.5-0.2
			c0,0,0.3-0.5,0.8-1.2l1,0c0,0,1-1.2,2.2-2.2c0.7,1.4,2.5,4.5,5.6,6.2c-0.3,0.9-0.5,1.8-0.5,2.4C110.1,93.9,110,96,109.9,96.2z"/>
		<path class="st25" d="M40.9,91.3c-0.1,1.7,0.3,4.4,0.3,4.4s0.3,0.5,1.1,0.1c0.8-0.4,10.9,0.3,19.4,0.2c8.5-0.1,13.3,0.2,13.5-0.1
			c0.2-0.3,0.3-7.5-0.2-9.7c-0.5-2.2-26.8-0.8-27.1-0.8c-0.3-0.1-5.8,4-6,4.1C41.9,89.6,40.9,90,40.9,91.3z"/>
		<path class="st26" d="M41.2,95.7c0,0,0.3,0.5,1.1,0.1c0.8-0.4,10.9,0.3,19.4,0.2c8.5-0.1,13.3,0.2,13.5-0.1
			c0.1-0.2,0.2-2.9,0.1-5.5c-0.3-0.1-1-0.2-3.4-0.1c-3.6,0.3-19.5,0.6-22.8,0.5c-2.8-0.1-6-1.1-7.9-0.7c-0.2,0.3-0.3,0.6-0.4,1.1
			C40.8,93,41.2,95.7,41.2,95.7z"/>
		<path class="st25" d="M110.3,91.3c0.1,1.7-0.3,4.4-0.3,4.4s-0.3,0.5-1.1,0.1c-0.8-0.4-10.9,0.3-19.4,0.2
			c-8.5-0.1-13.3,0.2-13.5-0.1c-0.2-0.3-0.3-7.5,0.2-9.7c0.5-2.2,26.8-0.8,27.1-0.8c0.3-0.1,5.8,4,6,4.1
			C109.2,89.6,110.2,90,110.3,91.3z"/>
		<path class="st26" d="M75.9,95.9c0.2,0.3,5,0,13.5,0.1c8.5,0.1,18.6-0.6,19.4-0.2c0.8,0.4,1.1-0.1,1.1-0.1s0.4-2.7,0.3-4.4
			c-0.1-1.2-1-1.7-1-1.7c0,0,0,0-0.1-0.1c-3.4,0.1-16.6,0.7-19.8,0.6c-3.2-0.1-10.9,0-13.5,0.1C75.7,92.9,75.8,95.8,75.9,95.9z"/>
		<g>
			<path class="st27" d="M43.2,79.3l0.5,2.7c0,0,2.2,2.5,1.1,5.7c0,0,0.2,1.8,2.1,0.9c1.8-0.8,7-0.5,8-0.6c1-0.1,1.4-0.1,1.1-0.4
				C55.6,87.2,43.2,79.3,43.2,79.3z"/>
			<g>
				<path class="st27" d="M42.1,77.8c0,0,1.4,2.7,2.3,3.4c0,0,1.2,3.4,1.2,3.5c0,0-0.3,2,0,3.9c0,0,0.1,0.4,1.2-0.1
					c1.2-0.5,2.5-0.8,3.3-0.7c0.8,0.1,3,0.1,3.5,0.1c0.5,0.1,2.3-0.1,2.1-0.4c-0.3-0.3-1.6-3.5-1.8-4.2c-0.2-0.6-1.3-4.3-1.5-5
					c-0.3-0.7-0.3-1.7-1.4-1.3c-1.1,0.5-3.8,1-5.3,0.9C44.3,77.8,41.5,77,42.1,77.8z"/>
				<path class="st28" d="M42.1,77.8c0,0,1.4,2.7,2.3,3.4c0,0,1.2,3.4,1.2,3.5c0,0-0.3,2,0,3.9c0,0,0.1,0.4,1.2-0.1
					c1.2-0.5,2.5-0.8,3.3-0.7s3,0.1,3.5,0.1c0.4,0.1,1.9,0,2.1-0.3c-1.2-0.2-2.4,0.1-3.6,0c-0.1,0-0.2,0-0.2-0.1
					c-0.2-0.2,0.1-0.6-0.1-0.9c-0.1,0.5-0.5,0.9-1,0.9c-0.3,0-0.6-0.1-0.9-0.2c-0.8-0.2-1.6-0.1-2.4,0.4c-0.2,0.1-0.4,0.2-0.6,0.2
					c-0.2,0-0.3-0.2-0.4-0.4c-0.3-0.4-0.4-0.9-0.4-1.4c0-0.5,0.1-1,0.4-1.4c0.3-0.4,0.7-0.5,1.2-0.7c-0.4-0.1-0.8,0-1.2-0.1
					c-0.4-0.1-0.8-0.6-0.9-1c-0.1-0.5-0.1-1-0.1-1.5c0-0.1,0-0.2,0.1-0.3c0.1-0.1,0.1-0.1,0.2-0.2c0.5-0.2,1-0.2,1.5-0.5
					c0.1,0,0.2-0.1,0.1-0.2c-0.6,0.2-1.3,0.3-2,0.3c-0.5,0-1-0.2-1.5-0.5c-0.4-0.3-0.8-0.8-0.9-1.3c0-0.2-0.1-0.4-0.1-0.6
					c-0.1-0.2-0.1-0.3-0.2-0.4c-0.1-0.1-0.1-0.2-0.2-0.4C42.1,77.4,41.9,77.5,42.1,77.8z"/>
			</g>
		</g>
		<linearGradient id="SVGID_12_" gradientUnits="userSpaceOnUse" x1="100.448" y1="81.6458" x2="103.1853" y2="91.439">
			<stop  offset="0" style="stop-color:#FFFFFF;stop-opacity:0"/>
			<stop  offset="1" style="stop-color:#000000"/>
		</linearGradient>
		<path class="st29" d="M108.3,81.5c0,0,0.1,1.1-1.1,1.8c0,0-1.2,2.8-1.9,3.4c0,0-1.2,2.9-1.5,3.2c-0.3,0.3-0.7,0.6-2-0.2
			c-1.3-0.8-4.4-1.7-5.4-2c-1-0.3-3.6-0.3-1.6-1.1C96.9,85.8,107.3,81,108.3,81.5z"/>
		<path class="st27" d="M109.3,80.3c0,0-1.9,2.3-2.9,2.8c0,0-1.8,3-1.9,3.1c0,0-0.1,2-0.8,3.8c0,0-0.1,0.4-1.2-0.4
			c-1-0.8-2.3-1.4-3.1-1.4c-0.8-0.1-2.9-0.6-3.4-0.7c-0.5-0.1-2.3-0.6-2-0.9s2.2-3.1,2.5-3.7c0.3-0.6,2.1-3.9,2.5-4.6
			c0.4-0.7,0.6-1.6,1.6-0.9c1,0.7,3.5,1.8,5,2C107.1,79.8,110,79.6,109.3,80.3z"/>
		<path class="st28" d="M96,87.6c0.5,0.1,2.6,0.6,3.4,0.7c0.8,0.1,2.1,0.6,3.1,1.4c1,0.8,1.2,0.4,1.2,0.4c0.6-1.9,0.8-3.8,0.8-3.8
			c0.1-0.1,1.9-3.1,1.9-3.1c1.1-0.5,2.9-2.8,2.9-2.8c0.4-0.3-0.1-0.5-0.9-0.5c-0.2,0.3-0.2,0.7-0.4,1.1c-0.2,0.4-0.6,0.8-1,1.1
			c-0.8,0.6-1.8,0.8-2.7,0.6c0.4,0.2,0.7,0.4,1.1,0.5c0.1,0,0.1,0.1,0.1,0.1c0,0.1,0,0.2-0.1,0.3c-0.4,0.6-0.8,1.2-1.2,1.7
			c-0.1,0.1-0.1,0.2-0.2,0.2c-0.1,0.1-0.2,0.1-0.4,0c-0.4,0-0.7-0.1-1-0.3c-0.2-0.1-0.6-0.3-0.8-0.1c0.4,0.2,0.9,0.5,1.3,0.7
			c0.1,0.1,0.2,0.1,0.3,0.2c0.1,0.1,0.1,0.3,0.1,0.5c0.1,0.8,0,1.6-0.2,2.4c-0.1,0.3-0.1,0.5-0.4,0.6c-0.3,0.1-0.6-0.1-0.8-0.4
			c-1.2-1.1-2.8-1.4-4.3-1.6c-1.3-0.2-2.7-0.3-3.9-0.9C94.1,87.1,95.6,87.5,96,87.6z"/>
	</g>
</g>
<g>
	<rect x="66.3" y="33.6" class="st30" width="13.7" height="19.3"/>
	<rect x="65.1" y="31.8" class="st31" width="16.2" height="22.8"/>
	<g>
		<defs>
			<rect id="SVGID_13_" x="66.3" y="33.6" width="13.7" height="19.3"/>
		</defs>
		<clipPath id="SVGID_14_">
			<use xlink:href="#SVGID_13_"  style="overflow:visible;"/>
		</clipPath>
		<g class="st32">
			<path class="st33" d="M71.2,46.1c0,0.1,0.1,0.5,0.1,0.6c0,0,0,0.1,0,0.1c0,0.1,0,0.1,0,0.2c0,0.1,0,0.1,0,0.2
				c0.1,0.3,0.1,0.5,0.1,0.9c0,0.1-0.1,1-0.1,1.1c-0.1,0.5-0.4,0.7-0.6,0.9c-0.1,0.1-0.1,0.1-0.2,0.1c-0.1,0-0.3,0.1-0.4,0.1
				c-0.2-0.1-0.5-0.1-0.7-0.3c-0.1-0.1-0.1-0.1-0.2-0.1c-0.2-0.3-0.4-0.6-0.6-1c-0.1-0.3-0.3-0.5-0.4-0.8c-0.2-0.5-0.2-0.5-0.4-1
				c-0.1-0.3-0.1-0.4-0.2-0.7c0-0.2-0.1-0.4-0.1-0.5c-0.1-0.2-0.1-0.4-0.1-0.6c-0.1-0.5-0.1-0.9-0.1-1.3c0-0.3,0-0.5,0-0.8
				c0-0.1,0-0.3,0.1-0.4c0,0,0-0.1,0-0.1c0.1-0.1,0.2-0.2,0.4-0.2c0.1,0,0.3,0.1,0.4,0.3c0.1,0.1,0.1,0.2,0.2,0.4
				c0.1,0.1,0.1,0.2,0.1,0.3c0.1,0.2,0.1,0.4,0.1,0.7l0.1,0.5c0,0.3,0.1,0.5,0.1,0.8c0,0.4,0.1,0.8,0.2,1.2c0.1,0.7,0.2,0.8,0.5,1.4
				c0.1,0.2,0.2,0.3,0.4,0.5c0,0,0.3,0.4,0.4,0.4c0.1,0.1,0.2,0.1,0.3,0.2c0,0,0.2-0.1,0.2-0.1c0.1,0,0.2-0.8,0.3-0.9
				c0.1-0.2,0.1-0.5,0.1-0.7c0-0.2,0-0.4-0.1-0.7c0-0.4-0.1-0.6-0.2-1C71,45.5,71.1,45.8,71.2,46.1z M68.7,45.8
				c-0.1-0.7-0.1-0.8-0.3-1.6c-0.1-0.3-0.1-0.5-0.2-0.8c-0.1-0.2-0.1-0.3-0.2-0.5c0-0.1,0-0.1-0.1,0c0,0.1,0,0.1,0,0.1
				c-0.1,0.2-0.1,0.3-0.1,0.5c0,0.1,0,0.3,0,0.4c0,0.2,0,0.3,0.1,0.5l0.1,0.4c0.1,0.2,0.2,0.5,0.2,0.8l0.1,0.4
				c0.1,0.4,0.1,0.2,0.2,0.6c0,0.1,0.2,0.3,0.2,0.1C68.8,46.4,68.7,46.2,68.7,45.8z"/>
			<path class="st33" d="M70.8,45.2c-0.2-0.1-0.4-0.2-0.6-0.4c-0.1-0.1-0.2-0.3-0.3-0.5c0,0,0-0.1,0-0.1c0-0.1,0-0.3,0.1-0.4
				c0-0.1,0.1-0.2,0.2-0.3c0.1-0.1,0.4-0.1,0.4-0.1c0.1,0,0.2,0,0.3,0c0.1,0,0.2,0,0.4,0.1c0.1,0,0.1,0.1,0.2,0.1
				c0.1,0.1,0.2,0.1,0.2,0.2c0.1,0.1,0.1,0.1,0.2,0.2c0,0,0.1,0.1,0.1,0.1c0.1,0.1,0.2,0.2,0.2,0.3c0,0.1,0.1,0.1,0.2,0
				c0.4-0.4,0.5-0.5,0.9-1l0.1-0.2l0-0.1c0,0,0.1,0.1,0.1,0.1c0,0.1,0.1,0,0.1,0.1c0,0.5-0.7,1.3-1,1.6l0,0c0,0,0,0.1,0,0.1
				c0,0,0,0,0,0.1c0.1,0.2,0.1,0.4,0.2,0.6c0,0.1,0.1,0.3,0.1,0.4c0,0.1,0,0.2,0,0.3l0,0.1c0,0,0,0.1,0,0.1c0,0.1,0,0.3-0.1,0.4
				c0,0,0,0.1,0,0.1c-0.1,0.2-0.2,0.3-0.3,0.3c-0.2,0.1-0.3,0.1-0.5,0l-0.3-0.2c-0.1-0.1-0.3-0.3-0.4-0.5c-0.1-0.2-0.2-0.4-0.3-0.6
				c-0.1-0.3-0.1-0.5-0.1-0.8C70.9,45.3,70.9,45.3,70.8,45.2C70.9,45.3,70.8,45.2,70.8,45.2z M71.5,43.9c-0.1-0.1-0.2-0.2-0.3-0.2
				c-0.1-0.1-0.2-0.1-0.3-0.1c-0.1,0-0.1,0-0.2,0c-0.1,0-0.1,0-0.2,0c-0.2,0-0.2,0.4-0.2,0.5c0.1,0.6,0.6,0.8,1,0.8
				c0.6,0.3,0.9-0.3,0.3-0.8C71.6,44,71.5,43.9,71.5,43.9z M72.2,46.4c0,0.1,0.1,0.1,0.1,0.2c0,0,0,0,0,0c0.1,0,0.1,0,0.2,0
				c0,0,0,0,0,0l0-0.1c0-0.3-0.1-0.6-0.2-0.9c0-0.1-0.1-0.2-0.1-0.3C72,45.4,72,45.6,72,45.8C72,46.1,72.1,46.2,72.2,46.4z M72,44
				L72,44C72,44,72,44,72,44z M72,44C72,44,72,44,72,44C72,44,72,44,72,44z"/>
			<path class="st33" d="M76.2,40.1c0,0.1,0.1,0.2,0.1,0.3c0,0,0,0.1,0,0.1c0,0.1-0.2,0.4-0.2,0.4c0,0.1-0.4,0.2-0.4,0.2
				c0,0-0.2,0-0.2,0c0,0-0.2,0-0.3,0c-0.2-0.1-0.3-0.1-0.4-0.2c0,0.2,0,0.2,0.1,0.4c0,0.2,0.1,0.4,0.1,0.6c0,0,0,0.1,0,0.1
				c0,0.1,0.1,0.2,0.1,0.4c0,0.1,0,0.2,0.1,0.3c0,0,0,0,0,0.1c0.1,0.1,0.1,0.1,0.1,0.2c0,0.1,0,0.2,0,0.3c0.1,0.2,0.1,0.3,0,0.5
				c0,0.1,0,0.1,0,0.2c0,0-0.1,0.1-0.1,0.1c0,0-0.1,0.1-0.1,0.2c-0.1,0.2-0.2,0.2-0.3,0.2c-0.1,0-0.5,0-0.5,0
				c-0.1,0-0.3-0.1-0.4-0.2c-0.1-0.1-0.1-0.2-0.1-0.2c-0.1-0.2-0.2-0.3-0.3-0.5l-0.2-0.4c-0.1-0.3-0.3-0.6-0.4-0.9
				c-0.1-0.2-0.1-0.3-0.2-0.5c-0.1-0.1-0.1-0.2-0.2-0.3l-0.1-0.1c0,0,0-0.1,0-0.1c0,0,0-0.1,0.1-0.1c0,0,0.1,0,0.1,0
				c0.1,0,0.1,0,0.1,0c0,0,0.1,0,0.1,0c0.1,0,0.2,0,0.3,0c0.1,0,0.2,0,0.3,0.1c0,0,0,0-0.1,0.1c0,0.1,0,0.1,0.1,0.2
				c0.1,0,0.2,0.1,0.3,0.2c0,0,0.1,0.1,0.1,0.1c0.1,0.1,0.2,0.2,0.3,0.3l0.1,0.1c0.1,0.1,0.1,0.2,0.2,0.3c0,0.1,0.1,0.1,0.2,0.2
				c0,0.1,0,0.1,0.1,0.1l0,0l-0.1-0.1c0,0,0,0,0,0c0,0,0,0,0,0c0,0,0,0,0,0c0.1,0.1,0.1,0.2,0.2,0.3c0,0,0.1,0.1,0.1,0.1
				c0,0,0,0.1,0.1,0.1c0,0,0,0,0,0c0,0,0,0,0,0c0,0-0.1-0.1-0.1-0.2l0,0c0,0,0,0,0,0c0.1,0,0.1,0.1,0.1,0.1l0.1,0c0,0,0,0,0,0
				c0,0.1,0.1,0.1,0.1,0.1l0-0.1c0-0.3,0-0.6-0.1-0.9l0-0.3c0-0.1,0-0.3-0.1-0.4c0-0.1-0.1-0.2-0.1-0.3c-0.1-0.3,0-0.2-0.1-0.5
				c0,0-0.2-0.2-0.3-0.2c-0.1-0.2-0.2-0.1-0.1-0.2c0,0,0.2-0.1,0.2-0.2c0.1,0,0,0,0.1,0c0,0,0.1,0,0.1-0.1c0,0,0,0,0.1,0
				c0,0,0,0,0.1,0c0.3,0.3,0.4,0.3,0.7,0.5c0.1,0,0.4,0.1,0.5-0.1c0.1-0.1,0.1-0.2,0.1-0.3C76.2,40.4,76.2,40.3,76.2,40.1
				C76.2,40.1,76.2,40.1,76.2,40.1C76.2,40.1,76.2,40.1,76.2,40.1z M73.9,42.5L73.9,42.5C74,42.5,74,42.5,73.9,42.5
				C74,42.5,74,42.5,73.9,42.5L73.9,42.5z M73.9,42.4L73.9,42.4C73.9,42.4,73.9,42.4,73.9,42.4C73.9,42.4,73.9,42.4,73.9,42.4
				L73.9,42.4z M74,42.6C74,42.6,74,42.6,74,42.6C74,42.6,74,42.6,74,42.6C74,42.6,74,42.6,74,42.6C74,42.6,74,42.6,74,42.6z
				 M74.1,42.6C74.1,42.6,74.1,42.6,74.1,42.6L74.1,42.6L74.1,42.6z M74.8,43.5C74.8,43.5,74.8,43.5,74.8,43.5
				C74.8,43.5,74.8,43.5,74.8,43.5C74.9,43.5,74.9,43.5,74.8,43.5C74.8,43.5,74.8,43.5,74.8,43.5z M74.8,43.4
				C74.8,43.4,74.8,43.3,74.8,43.4L74.8,43.4C74.8,43.4,74.7,43.4,74.8,43.4C74.8,43.4,74.8,43.4,74.8,43.4L74.8,43.4z"/>
			<path class="st33" d="M76.7,39.4C76.8,39.4,76.8,39.4,76.7,39.4c0,0.1,0,0.1,0,0.1c0,0,0,0.1,0,0.1c0,0,0,0,0,0.1c0,0,0,0,0,0
				l0,0l-0.1,0.1c0,0,0-0.1,0-0.1l0,0l0.1,0.2c0,0,0,0,0,0C77,40,77,40,77,40.1c0,0.1,0.1,0.1,0.2,0.1c0.1,0,0.3,0.1,0.3,0.2
				c0.2,0,0.5,0,0.6-0.1c0,0,0.2-0.3,0.3-0.4c0.1-0.3,0.2-0.6,0.3-0.9c0-0.3,0.1-0.5,0.1-0.8l0-0.1l0-0.3c0-0.2,0-0.4,0-0.6
				c0-0.1,0-0.1,0-0.2c0,0.1,0.1,0.2,0.1,0.3c0,0,0,0.1,0,0.1c0,0.1,0,0.2,0,0.3l0,0.2l0,0.1l0-0.1c0,0.1,0,0.1,0,0.2c0,0,0,0,0,0
				c0,0.1,0,0.1,0,0.2c0,0.1,0,0.2,0,0.3c0,0.2,0,0.3,0,0.5c0,0.1,0,0.1,0,0.2l0,0.2c0,0.1,0,0.2-0.1,0.2c0,0.1-0.1,0.3-0.2,0.4
				l0,0.1c-0.1,0.1-0.1,0.3-0.2,0.4c-0.1,0.1-0.6,0.5-0.8,0.6c-0.4,0.2-0.5,0.1-0.8,0.1c-0.1,0-0.2,0-0.3-0.1
				c-0.1-0.1-0.2-0.2-0.3-0.3c-0.2-0.3-0.4-0.6-0.5-1c0-0.1,0-0.1-0.1-0.2c0,0.1,0,0.1,0,0.2c0,0.1,0.1,0.2,0.1,0.3
				c-0.1-0.1-0.1-0.2-0.1-0.3c-0.1-0.2-0.1-0.5-0.1-0.7c0-0.2,0-0.5,0-0.7c0-0.2,0-0.5,0.1-0.7l0-0.1c0-0.1,0.1-0.1,0.1-0.1
				c0,0,0.1,0,0.1,0c0,0,0.1,0,0.1,0c0.1,0,0.5-0.3,0.6-0.3c0,0,0.1,0,0.1,0c0.1,0,0.2,0.1,0.3,0.1c0,0,0.1,0,0.1,0
				c0.1,0.1,0.2,0.2,0.3,0.3c0.1,0.1,0.1,0.3,0.2,0.5c0,0.1,0,0.2,0.1,0.3c0,0.1,0,0.2,0.1,0.3c0,0.1,0,0.2,0,0.3
				c0,0.1-0.1,0.1-0.1,0.2c0,0,0,0-0.1,0c0,0,0,0,0,0c-0.1,0.1-0.2,0-0.2,0.1c0,0,0,0-0.1,0c0-0.1,0-0.1-0.1-0.1
				c-0.1,0-0.2-0.1-0.3-0.1c0,0-0.1,0-0.1,0C76.7,39.3,76.7,39.3,76.7,39.4z M76.7,41L76.7,41c0.1,0.1,0.1,0.1,0.2,0.1c0,0,0,0,0,0
				c-0.1,0-0.2-0.1-0.3-0.2c0,0,0,0,0,0c-0.1-0.1-0.2-0.3-0.3-0.4c0,0,0-0.1,0-0.1l0-0.1c0,0.1,0,0.1,0.1,0.2l0.1,0.1
				c0.2,0.3,0.3,0.5,0.6,0.6c0,0,0.1,0,0.1,0c0,0,0.1,0,0.1,0c0,0,0,0,0,0c-0.1,0-0.1,0-0.2-0.1C76.8,41,76.7,41,76.7,41
				C76.7,41,76.7,41,76.7,41z M76.2,40.4c0.1,0.2,0.2,0.3,0.3,0.4c0,0,0,0,0,0l-0.2-0.3C76.3,40.5,76.3,40.4,76.2,40.4
				C76.2,40.4,76.2,40.4,76.2,40.4z M76.6,38.7l0,0.2c0,0.1,0.1,0.1,0.1,0.1c0,0,0.1,0,0.1,0c0.1,0,0.1-0.1,0.2-0.1
				c0-0.1,0-0.2,0-0.3C77,38.3,77,38.2,77,38c-0.1-0.5-0.3-0.1-0.4,0.1C76.6,38.3,76.6,38.5,76.6,38.7z"/>
		</g>
		<use xlink:href="#SVGID_13_"  style="overflow:visible;fill:none;stroke:#6D6E71;stroke-miterlimit:10;"/>
	</g>
</g>
<g>
	<rect x="46.8" y="29.6" class="st0" width="12.3" height="12.3"/>
	<path class="st4" d="M59,41.9v-6.3c-0.1,0-0.3,0-0.4,0c-0.9,0-1.8,0.1-2.6,0.4c-2.1,0.8-3.4,3-5.5,3.8c-1.1,0.5-2.4,0.6-3.6,0.3
		c0,0-0.1,0-0.1,0v1.8H59z"/>
	<rect x="45.8" y="28.6" class="st31" width="14.2" height="14.2"/>
	<path class="st4" d="M59,41.9v-4.3c-1,0.2-2,0.3-3,0.2c-3.1-0.3-5.9-2.1-9-2.4c-0.1,0-0.2,0-0.2,0v6.5H59z"/>
	<circle class="st4" cx="56.4" cy="31.9" r="1.5"/>
</g>
</svg>
